<svg width="19" height="21" viewBox="0 0 19 21" fill="none" xmlns="http://www.w3.org/2000/svg">
<path d="M9.18805 20.9993C10.6368 20.9993 11.812 19.8242 11.812 18.3743H6.56413C6.56413 19.8242 7.7393 20.9993 9.18805 20.9993ZM18.0229 14.8588C17.2304 14.0073 15.7476 12.7264 15.7476 8.53052C15.7476 5.3436 13.513 2.79243 10.4998 2.16653V1.31177C10.4998 0.587021 9.91243 -0.000732422 9.18805 -0.000732422C8.46367 -0.000732422 7.8763 0.587021 7.8763 1.31177V2.16653C4.86312 2.79243 2.62846 5.3436 2.62846 8.53052C2.62846 12.7264 1.14566 14.0073 0.353193 14.8588C0.107085 15.1234 -0.00202254 15.4396 2.83593e-05 15.7493C0.00454033 16.4219 0.532441 17.0618 1.3167 17.0618H17.0594C17.8437 17.0618 18.372 16.4219 18.3761 15.7493C18.3781 15.4396 18.269 15.123 18.0229 14.8588Z" fill="#6B6969"/>
</svg>
