<svg width="28" height="28" viewBox="0 0 28 28" fill="none" xmlns="http://www.w3.org/2000/svg">
<circle cx="14" cy="14" r="14" fill="#EE436A"/>
<g clip-path="url(#clip0)">
<path d="M15.3241 17.2252L15.3166 17.2321L15.3145 17.2342L13.7416 18.676C12.5437 19.7741 10.577 19.774 9.37923 18.676L9.3792 18.676C8.20628 17.601 8.20628 15.8699 9.3792 14.7949L9.37923 14.7949L10.0721 14.1598C10.1046 14.4601 10.1699 14.7596 10.2697 15.0528L10.0446 15.2591L10.3825 15.6277L10.0446 15.2591C9.18036 16.0513 9.1435 17.3698 10.0139 18.1835L10.3554 17.8182L10.0139 18.1835C10.862 18.9763 12.2376 18.9805 13.0915 18.1978L14.6665 16.7543L14.6665 16.7542C15.544 15.9498 15.54 14.63 14.6665 13.8293L14.6661 13.829C14.5839 13.7537 14.5023 13.6915 14.4307 13.6422C14.4445 13.5843 14.4768 13.5249 14.5355 13.4712L14.5355 13.4712L14.967 13.0756C15.0912 13.1595 15.208 13.2515 15.3164 13.3509C16.4992 14.4362 16.4835 16.1565 15.3241 17.2252ZM18.6198 10.3231L18.6198 10.3231C19.7927 11.3981 19.7927 13.1292 18.6198 14.2041L18.6198 14.2042L17.9269 14.8393C17.8944 14.539 17.8291 14.2394 17.7293 13.9462L17.9544 13.7399C18.8187 12.9477 18.8555 11.6292 17.9851 10.8155L17.9851 10.8155C17.137 10.0227 15.7614 10.0185 14.9075 10.8013L13.3325 12.2448L13.3325 12.2448C12.455 13.0492 12.459 14.369 13.3325 15.1697L13.3329 15.17C13.4151 15.2453 13.4967 15.3075 13.5683 15.3568C13.5545 15.4147 13.5222 15.4741 13.4635 15.5278L13.4635 15.5278L13.032 15.9234C12.9078 15.8396 12.791 15.7475 12.6826 15.6481C11.4999 14.5628 11.5155 12.8426 12.675 11.7738L12.6825 11.7669L12.6846 11.7648L14.2574 10.3231C15.4554 9.22492 17.422 9.22507 18.6198 10.3231ZM18.9575 9.95464L18.9577 9.95448L18.9575 9.95464Z" stroke="white"/>
</g>
<defs>
<clipPath id="clip0">
<rect width="12" height="11" fill="white" transform="translate(8 9)"/>
</clipPath>
</defs>
</svg>
