<svg width="13" height="13" viewBox="0 0 13 13" fill="none" xmlns="http://www.w3.org/2000/svg">
<mask id="path-1-inside-1" fill="white">
<path d="M4.87493 8.75978L10.6133 3.02136L11.3749 3.78295L4.87493 10.2829L1.85352 7.26153L2.6151 6.49995L4.87493 8.75978Z"/>
</mask>
<path d="M4.87493 8.75978L10.6133 3.02136L11.3749 3.78295L4.87493 10.2829L1.85352 7.26153L2.6151 6.49995L4.87493 8.75978Z" fill="#EE436A"/>
<path d="M4.87493 8.75978L3.46072 10.174L4.87493 11.5882L6.28915 10.174L4.87493 8.75978ZM10.6133 3.02136L12.0276 1.60715L10.6133 0.192934L9.19914 1.60715L10.6133 3.02136ZM11.3749 3.78295L12.7891 5.19716L14.2034 3.78295L12.7891 2.36873L11.3749 3.78295ZM4.87493 10.2829L3.46072 11.6972L4.87493 13.1114L6.28915 11.6972L4.87493 10.2829ZM1.85352 7.26153L0.439302 5.84732L-0.974911 7.26153L0.439302 8.67574L1.85352 7.26153ZM2.6151 6.49995L4.02931 5.08573L2.6151 3.67152L1.20089 5.08573L2.6151 6.49995ZM6.28915 10.174L12.0276 4.43558L9.19914 1.60715L3.46072 7.34557L6.28915 10.174ZM9.19913 4.43557L9.96072 5.19716L12.7891 2.36873L12.0276 1.60715L9.19913 4.43557ZM9.96072 2.36873L3.46072 8.86873L6.28915 11.6972L12.7891 5.19716L9.96072 2.36873ZM6.28915 8.86873L3.26773 5.84732L0.439302 8.67574L3.46072 11.6972L6.28915 8.86873ZM3.26773 8.67574L4.02931 7.91416L1.20089 5.08573L0.439302 5.84732L3.26773 8.67574ZM1.20089 7.91416L3.46072 10.174L6.28915 7.34557L4.02931 5.08573L1.20089 7.91416Z" fill="#EE436A" mask="url(#path-1-inside-1)"/>
</svg>
