<svg width="138" height="23" viewBox="0 0 138 23" fill="none" xmlns="http://www.w3.org/2000/svg">
<path d="M14.8794 21.2866C14.8794 21.7681 14.7095 22.1693 14.3696 22.4902C14.0298 22.8301 13.6286 23 13.166 23H13.1235C12.661 23 12.2598 22.8301 11.9199 22.4902C11.5801 22.1693 11.4102 21.7681 11.4102 21.2866V14.9712H3.69287V21.2866C3.69287 21.7681 3.52295 22.1693 3.18311 22.4902C2.84326 22.8301 2.44206 23 1.97949 23H1.93701C1.47445 23 1.07324 22.8301 0.733398 22.4902C0.393555 22.1693 0.223633 21.7681 0.223633 21.2866V8.20264C0.223633 6.18245 0.941081 4.45492 2.37598 3.02002C3.81087 1.59456 5.53369 0.881836 7.54443 0.881836C9.56462 0.881836 11.2922 1.59456 12.7271 3.02002C14.1619 4.45492 14.8794 6.18245 14.8794 8.20264V21.2866ZM11.4102 11.5161V8.20264C11.4102 7.1359 11.0373 6.22493 10.2915 5.46973C9.5363 4.71452 8.62061 4.33691 7.54443 4.33691C6.4777 4.33691 5.56673 4.71452 4.81152 5.46973C4.06576 6.22493 3.69287 7.1359 3.69287 8.20264V11.5161H11.4102ZM30.6431 0.881836C33.6922 0.881836 36.3024 1.96273 38.4736 4.12451C40.6354 6.2863 41.7163 8.89176 41.7163 11.9409C41.7163 14.9901 40.6354 17.5955 38.4736 19.7573C36.3024 21.9191 33.6922 23 30.6431 23C27.5939 23 24.9884 21.9191 22.8267 19.7573C20.6649 17.5955 19.584 14.9901 19.584 11.9409C19.584 8.89176 20.6649 6.2863 22.8267 4.12451C24.9884 1.96273 27.5939 0.881836 30.6431 0.881836ZM30.6431 4.33691C28.5474 4.33691 26.7585 5.07796 25.2764 6.56006C23.7943 8.04215 23.0532 9.83577 23.0532 11.9409C23.0532 14.0461 23.7943 15.8397 25.2764 17.3218C26.7585 18.7944 28.5474 19.5308 30.6431 19.5308C32.7482 19.5308 34.5418 18.7944 36.0239 17.3218C37.506 15.8397 38.2471 14.0461 38.2471 11.9409C38.2471 9.83577 37.506 8.04215 36.0239 6.56006C34.5418 5.07796 32.7482 4.33691 30.6431 4.33691ZM53.7842 11.5869C54.7848 11.5869 55.6392 11.2376 56.3472 10.5391C57.0552 9.83105 57.4092 8.97673 57.4092 7.97607C57.4092 6.96598 57.0552 6.10693 56.3472 5.39893C55.6392 4.70036 54.7848 4.35107 53.7842 4.35107H52.1558C51.4478 4.35107 50.8955 4.5446 50.499 4.93164C50.1875 5.24316 49.9893 5.61133 49.9043 6.03613C49.8854 6.13997 49.876 6.30518 49.876 6.53174V11.5869H53.7842ZM57.4092 18.667C57.4092 17.6663 57.0552 16.812 56.3472 16.104C55.7052 15.4526 54.9406 15.1034 54.0532 15.0562H49.876V21.2866C49.876 21.7586 49.7108 22.1598 49.3804 22.4902C49.0405 22.8301 48.6346 23 48.1626 23H48.1343C47.6528 23 47.2516 22.8301 46.9307 22.4902C46.5908 22.1693 46.4209 21.7681 46.4209 21.2866V6.4043C46.4209 4.88444 46.959 3.58643 48.0352 2.51025C49.1208 1.42464 50.4235 0.881836 51.9434 0.881836H53.7842C55.7383 0.881836 57.4045 1.57568 58.7827 2.96338C60.1704 4.35107 60.8643 6.02197 60.8643 7.97607C60.8643 9.92074 60.1704 11.5869 58.7827 12.9746L58.457 13.3145L58.7969 13.6685C60.1751 15.0467 60.8643 16.7129 60.8643 18.667V21.2866C60.8643 21.7681 60.6943 22.1693 60.3545 22.4902C60.0146 22.8301 59.6134 23 59.1509 23H59.1226C58.66 23 58.2588 22.8301 57.9189 22.4902C57.5791 22.1693 57.4092 21.7681 57.4092 21.2866V18.667ZM79.9272 21.2866C79.9272 21.7681 79.7573 22.1693 79.4175 22.4902C79.0776 22.8301 78.6764 23 78.2139 23H78.1714C77.7088 23 77.3076 22.8301 76.9678 22.4902C76.6279 22.1693 76.458 21.7681 76.458 21.2866V14.9712H68.7407V21.2866C68.7407 21.7681 68.5708 22.1693 68.231 22.4902C67.8911 22.8301 67.4899 23 67.0273 23H66.9849C66.5223 23 66.1211 22.8301 65.7812 22.4902C65.4414 22.1693 65.2715 21.7681 65.2715 21.2866V8.20264C65.2715 6.18245 65.9889 4.45492 67.4238 3.02002C68.8587 1.59456 70.5815 0.881836 72.5923 0.881836C74.6125 0.881836 76.34 1.59456 77.7749 3.02002C79.2098 4.45492 79.9272 6.18245 79.9272 8.20264V21.2866ZM76.458 11.5161V8.20264C76.458 7.1359 76.0851 6.22493 75.3394 5.46973C74.5841 4.71452 73.6685 4.33691 72.5923 4.33691C71.5256 4.33691 70.6146 4.71452 69.8594 5.46973C69.1136 6.22493 68.7407 7.1359 68.7407 8.20264V11.5161H76.458Z" fill="#00B6B8"/>
<path d="M88.5259 9.8877L92.4199 9.87354C93.194 9.87354 93.8501 9.60921 94.3882 9.08057C94.9263 8.54248 95.1953 7.88639 95.1953 7.1123C95.1953 6.34766 94.9263 5.69629 94.3882 5.1582C93.8407 4.61068 93.1846 4.33691 92.4199 4.33691H89.0498C88.8988 4.33691 88.7713 4.38883 88.6675 4.49268C88.5731 4.59652 88.5259 4.72396 88.5259 4.875V9.8877ZM85.0566 4.875C85.0566 3.77051 85.4484 2.8265 86.2319 2.04297C87.0155 1.26888 87.9548 0.881836 89.0498 0.881836H92.4199C94.1475 0.881836 95.6201 1.49072 96.8379 2.7085C98.0557 3.92627 98.6646 5.39421 98.6646 7.1123C98.6646 9.05697 98.0557 10.5391 96.8379 11.5586C98.2728 12.6536 98.9902 14.2821 98.9902 16.4438C98.9902 18.2469 98.3483 19.7904 97.0645 21.0742C95.7806 22.3581 94.2324 23 92.4199 23H89.0498C87.9548 23 87.0155 22.6082 86.2319 21.8247C85.4484 21.0412 85.0566 20.1019 85.0566 19.0068V4.875ZM92.4199 19.5308C93.279 19.5308 94.0106 19.2334 94.6147 18.6387C95.2095 18.0345 95.5068 17.3029 95.5068 16.4438C95.5068 15.5848 95.2095 14.8532 94.6147 14.249C94.0106 13.6449 93.279 13.3428 92.4199 13.3428H88.5259V19.0068C88.5259 19.1579 88.5731 19.2853 88.6675 19.3892C88.7713 19.4836 88.8988 19.5308 89.0498 19.5308H92.4199ZM118.195 15.6792C118.195 17.6994 117.477 19.4222 116.042 20.8477C114.608 22.2826 112.88 23 110.86 23C108.849 23 107.126 22.2826 105.691 20.8477C104.257 19.4222 103.539 17.6994 103.539 15.6792V2.59521C103.539 2.12321 103.709 1.71729 104.049 1.37744C104.389 1.04704 104.79 0.881836 105.252 0.881836H105.295C105.757 0.881836 106.159 1.04704 106.499 1.37744C106.838 1.71729 107.008 2.12321 107.008 2.59521V15.6792C107.008 16.7459 107.381 17.6569 108.127 18.4121C108.882 19.1579 109.793 19.5308 110.86 19.5308C111.936 19.5308 112.852 19.1579 113.607 18.4121C114.353 17.6569 114.726 16.7459 114.726 15.6792V2.59521C114.726 2.12321 114.896 1.71729 115.235 1.37744C115.575 1.04704 115.976 0.881836 116.439 0.881836H116.481C116.944 0.881836 117.345 1.04704 117.685 1.37744C118.025 1.71729 118.195 2.12321 118.195 2.59521V15.6792ZM137.838 8.88232C137.838 10.6571 137.272 12.2241 136.139 13.5835C135.016 14.9146 133.718 15.7264 132.245 16.019V21.2866C132.245 21.7681 132.075 22.1693 131.735 22.4902C131.396 22.8301 130.994 23 130.532 23H130.489C130.027 23 129.625 22.8301 129.286 22.4902C128.946 22.1693 128.776 21.7681 128.776 21.2866V16.019C127.303 15.7264 126.005 14.9146 124.882 13.5835C123.749 12.2241 123.183 10.6571 123.183 8.88232V2.59521C123.183 2.12321 123.353 1.71729 123.692 1.37744C124.032 1.04704 124.433 0.881836 124.896 0.881836H124.938C125.401 0.881836 125.802 1.04704 126.142 1.37744C126.482 1.71729 126.652 2.12321 126.652 2.59521V8.88232C126.652 9.9585 127.025 10.8742 127.771 11.6294C128.526 12.3752 129.437 12.748 130.503 12.748C131.58 12.748 132.495 12.3752 133.25 11.6294C133.996 10.8742 134.369 9.9585 134.369 8.88232V2.59521C134.369 2.12321 134.539 1.71729 134.879 1.37744C135.219 1.04704 135.62 0.881836 136.083 0.881836H136.125C136.588 0.881836 136.989 1.04704 137.329 1.37744C137.668 1.71729 137.838 2.12321 137.838 2.59521V8.88232Z" fill="#175993"/>
</svg>
