<svg width="34" height="34" viewBox="0 0 34 34" fill="none" xmlns="http://www.w3.org/2000/svg">
<path d="M28.3333 6.00327V2.83333C28.3314 1.26933 27.064 0.00198333 25.5 0H2.83333C1.26933 0.00198333 0.00198333 1.26933 0 2.83333V15.3C0.00439168 16.7471 1.10132 17.9574 2.54093 18.1041L4.67103 23.6335C5.23373 25.0936 6.87338 25.8209 8.33354 25.2589L21.6353 20.1348C20.7162 22.5356 20.9777 25.2288 22.3411 27.4081L22.6667 27.9287V33.4333C22.6667 33.7464 22.9202 34 23.2333 34H33.4333C33.7464 34 34 33.7464 34 33.4333V14.7284C33.9946 12.7687 33.2145 10.891 31.829 9.50513L28.3333 6.00327ZM28.3333 9.39222L30.0532 13.8567C30.3902 14.733 29.9534 15.7164 29.0772 16.0537L28.0942 16.4333C28.2512 16.076 28.3325 15.6899 28.3333 15.3V9.39222ZM1.13333 15.3V2.83333C1.13333 1.89465 1.89465 1.13333 2.83333 1.13333H25.5C26.4387 1.13333 27.2 1.89465 27.2 2.83333V6.43507H27.195L27.2 6.44796V15.3C27.1956 15.3989 27.1827 15.4969 27.1615 15.5935L21.9708 10.4023C20.804 9.26245 18.9439 9.25367 17.7667 10.3816C16.5892 11.5103 16.5185 13.3689 17.6075 14.583L19.8203 17H2.83333C1.89465 17 1.13333 16.2387 1.13333 15.3ZM8.3929 18.1333L4.36333 19.6847L3.7672 18.1333H8.3929ZM7.92597 24.2011C7.0499 24.5388 6.06602 24.102 5.72843 23.226L4.77247 20.74L11.5368 18.1333V18.1299H20.859L21.5955 18.9329L7.92597 24.2011ZM32.8667 32.8667H23.8V28.3333H32.8667V32.8667ZM32.8667 27.2H23.5478L23.302 26.8073C21.9204 24.5993 21.8654 21.8104 23.1585 19.55C23.2809 19.3361 23.2509 19.0675 23.0843 18.8859L18.4406 13.8199C17.7481 13.0619 17.7871 11.8902 18.5284 11.1803C19.2701 10.4703 20.4424 10.4819 21.1694 11.2061L30.1994 20.234L31.0006 19.4327L28.904 17.336L29.4854 17.1094C30.9443 16.5465 31.6713 14.9083 31.11 13.4486L29.192 8.46812L31.0277 10.3077C32.2007 11.4804 32.8621 13.0696 32.8667 14.7284V27.2Z" fill="#028A8B"/>
<path d="M6.45994 7.93339C7.27367 7.93339 7.93327 7.27379 7.93327 6.46006V3.74006C7.93327 2.92632 7.27367 2.26672 6.45994 2.26672H3.73994C2.9262 2.26672 2.2666 2.92632 2.2666 3.74006V6.46006C2.2666 7.27379 2.9262 7.93339 3.73994 7.93339H6.45994ZM3.39994 6.46006V5.66672H4.53327V4.53339H3.39994V3.74006C3.39994 3.55235 3.55223 3.40006 3.73994 3.40006H6.45994C6.64764 3.40006 6.79994 3.55235 6.79994 3.74006V4.53339H5.6666V5.66672H6.79994V6.46006C6.79994 6.64777 6.64764 6.80006 6.45994 6.80006H3.73994C3.55223 6.80006 3.39994 6.64777 3.39994 6.46006Z" fill="#028A8B"/>
<path d="M2.8335 9.6333H5.10016V10.7666H2.8335V9.6333Z" fill="#028A8B"/>
<path d="M2.8335 13.0333H5.10016V14.1667H2.8335V13.0333Z" fill="#028A8B"/>
<path d="M13.0332 13.0333H15.2999V14.1667H13.0332V13.0333Z" fill="#028A8B"/>
<path d="M6.2334 9.6333H8.50006V10.7666H6.2334V9.6333Z" fill="#028A8B"/>
<path d="M9.6333 9.6333H11.9V10.7666H9.6333V9.6333Z" fill="#028A8B"/>
<path d="M13.0332 9.6333H15.2999V10.7666H13.0332V9.6333Z" fill="#028A8B"/>
<path d="M23.8003 2.83337H24.9336V4.53337H23.8003V2.83337Z" fill="#028A8B"/>
<path d="M21.5332 2.83337H22.6665V4.53337H21.5332V2.83337Z" fill="#028A8B"/>
<path d="M19.2666 2.83337H20.3999V4.53337H19.2666V2.83337Z" fill="#028A8B"/>
<path d="M17 2.83337H18.1333V4.53337H17V2.83337Z" fill="#028A8B"/>
<path d="M24.9336 29.4667H26.0669V30.6H24.9336V29.4667Z" fill="#028A8B"/>
</svg>
