<svg width="34" height="35" viewBox="0 0 34 35" fill="none" xmlns="http://www.w3.org/2000/svg">
<g clip-path="url(#clip0)">
<path d="M33.9999 18.6675V16.3342C33.9999 16.012 33.7462 15.7508 33.4333 15.7508H24.9333V4.08418C24.9333 3.76203 24.6796 3.50085 24.3666 3.50085H19.7704C20.5354 2.73479 20.9669 1.68282 20.9666 0.584186C20.9666 0.262041 20.7129 0.000854492 20.4 0.000854492C19.0055 0.0031149 17.7145 0.75904 17 1.99177C16.2854 0.75904 14.9945 0.0031149 13.6 0.000854492C13.287 0.000854492 13.0333 0.262041 13.0333 0.584186C13.033 1.68282 13.4645 2.73479 14.2295 3.50085H9.63331C9.32037 3.50085 9.06665 3.76203 9.06665 4.08418V15.7508H0.566665C0.253724 15.7508 0 16.012 0 16.3342V18.6675C0 18.9896 0.253724 19.2508 0.566665 19.2508H19.1748L15.7748 20.4175H7.36665C7.21634 20.4175 7.07227 20.479 6.96602 20.5884L4.53332 23.0926L3.80063 22.3384C3.57934 22.1107 3.22064 22.1107 2.99936 22.3384L0.166033 25.255C-0.055179 25.4828 -0.055179 25.8521 0.166033 26.0799L8.66602 34.8299C8.8873 35.0576 9.246 35.0576 9.46728 34.8299L12.3006 31.9132C12.5218 31.6854 12.5218 31.3162 12.3006 31.0884L12.2071 30.9921L15.4813 28.5841H26.6333C26.7751 28.5841 26.9118 28.5294 27.0163 28.4307L33.1783 22.6166C34.1075 21.7411 34.2693 20.2953 33.5579 19.2251C33.8139 19.1686 33.9975 18.9369 33.9999 18.6675ZM19.7608 1.24218C19.5145 2.32623 18.6922 3.17265 17.6392 3.42618C17.8855 2.34213 18.7077 1.49572 19.7608 1.24218ZM16.3608 3.42618C15.3077 3.17265 14.4855 2.32623 14.2392 1.24218C15.2922 1.49572 16.1145 2.34213 16.3608 3.42618ZM10.2 4.66751H23.7999V15.7508H17.7083L22.5533 9.10083C22.7044 8.89346 22.7044 8.60821 22.5533 8.40084L20.8533 6.06751C20.7463 5.92065 20.5783 5.83417 20.4 5.83417H13.6C13.4216 5.83417 13.2537 5.92065 13.1466 6.06751L11.4466 8.40084C11.2956 8.60821 11.2956 8.89346 11.4466 9.10083L16.2916 15.7508H10.2V4.66751ZM14.3366 9.33417L15.5635 12.8067L13.0333 9.33417H14.3366ZM13.0333 8.1675L13.8833 7.00084H15.632L14.4987 8.1675H13.0333ZM15.5419 9.33417H18.458L17 13.4607L15.5419 9.33417ZM16.1012 8.1675L17 7.24234L17.8987 8.1675H16.1012ZM19.5012 8.1675L18.3679 7.00084H20.1166L20.9666 8.1675H19.5012ZM20.9666 9.33417L18.4365 12.8067L19.6633 9.33417H20.9666ZM1.13333 18.0841V16.9175H32.8666V18.0841H1.13333ZM24.2198 19.5859C24.1593 19.4683 24.0892 19.3562 24.0102 19.2508H29.1096L25.2846 22.7508H23.2735C24.3838 22.1458 24.8075 20.7288 24.2198 19.5859ZM9.06665 33.5926L1.36793 25.6675L3.39999 23.5756L11.0987 31.5008L9.06665 33.5926ZM32.4133 21.7591L26.4128 27.4174H15.3C15.1819 27.4174 15.0669 27.4553 14.9707 27.5259L11.3945 30.1555L5.33459 23.9174L7.60125 21.5841H15.8666C15.9275 21.5841 15.988 21.5741 16.0457 21.5543L21.8427 19.5652C22.442 19.3581 23.0909 19.6905 23.292 20.3074C23.4931 20.9244 23.1702 21.5924 22.5709 21.7994C22.5494 21.8068 22.5276 21.8136 22.5057 21.8197L19.1907 22.7507H17.5666V23.9174H25.4999C25.6386 23.9175 25.7725 23.8651 25.8762 23.7704L30.418 19.6147C30.6742 19.3802 31.0051 19.2506 31.3479 19.2507H31.4652C32.2389 19.2479 32.8683 19.8912 32.8711 20.6875C32.8725 21.0953 32.7062 21.4846 32.4133 21.7591Z" fill="#028A8B"/>
<path d="M3.23448 24.6714L2.43311 25.4963L4.13323 27.2465L4.93461 26.4215L3.23448 24.6714Z" fill="#028A8B"/>
<path d="M27.7666 2.3335H26.6333V3.50016H27.7666V2.3335Z" fill="#028A8B"/>
<path d="M28.8999 1.16687H27.7666V2.33354H28.8999V1.16687Z" fill="#028A8B"/>
<path d="M30.0332 2.3335H28.8999V3.50016H30.0332V2.3335Z" fill="#028A8B"/>
<path d="M28.8999 3.50012H27.7666V4.66679H28.8999V3.50012Z" fill="#028A8B"/>
<path d="M34 0.583496H32.8667V1.75016H34V0.583496Z" fill="#028A8B"/>
<path d="M29.4668 7.00012H28.3335V8.16679H29.4668V7.00012Z" fill="#028A8B"/>
<path d="M6.23343 6.41675H5.1001V7.58341H6.23343V6.41675Z" fill="#028A8B"/>
<path d="M6.23343 8.75012H5.1001V9.91679H6.23343V8.75012Z" fill="#028A8B"/>
<path d="M7.36673 7.5835H6.2334V8.75016H7.36673V7.5835Z" fill="#028A8B"/>
<path d="M5.10013 7.5835H3.9668V8.75016H5.10013V7.5835Z" fill="#028A8B"/>
<path d="M1.13333 3.50012H0V4.66679H1.13333V3.50012Z" fill="#028A8B"/>
<path d="M6.23343 0.583496H5.1001V1.75016H6.23343V0.583496Z" fill="#028A8B"/>
</g>
<defs>
<clipPath id="clip0">
<rect width="34" height="35" fill="white"/>
</clipPath>
</defs>
</svg>
