<svg width="34" height="34" viewBox="0 0 34 34" fill="none" xmlns="http://www.w3.org/2000/svg">
<g clip-path="url(#clip0)">
<path d="M33.9432 15.7424C33.9629 15.6892 33.9742 15.6335 33.9767 15.5767C33.9767 15.5169 33.967 15.4573 33.9485 15.4005L33.9047 15.2767C33.4415 10.8001 31.2193 6.69085 27.7264 3.85309C27.4768 3.64976 27.2158 3.4661 26.9549 3.27773C26.9419 3.26692 26.9349 3.25169 26.9208 3.24144C26.9067 3.23119 26.8953 3.2323 26.8834 3.22482C23.9955 1.15467 20.5334 0.038568 16.9801 0.0319196C16.8338 0.0319196 16.6867 0.0319196 16.5773 0.0432772C14.6819 0.0801205 12.8071 0.440797 11.0333 1.10979C9.49563 -0.0896908 7.4083 -0.307149 5.65617 0.549664C3.90404 1.40648 2.79403 3.1877 2.7968 5.1379C2.83088 5.78667 2.98157 6.42381 3.24225 7.01856C2.66328 7.81 2.15357 8.64964 1.71893 9.52861C1.71034 9.54219 1.70536 9.55687 1.69788 9.571C-2.32441 17.8879 1.02251 27.8951 9.23911 32.1185C17.4554 36.3422 27.5411 33.2399 31.9634 25.1285C33.1745 22.8972 33.8629 20.4198 33.9762 17.8837C33.9939 17.61 34 17.3311 34 17.0518C34 16.6122 33.9773 16.1765 33.9432 15.7424ZM32.2947 12.8309C32.2226 12.7669 32.1562 12.693 32.0808 12.634C31.3395 12.0711 30.4993 11.6514 29.6037 11.3968C28.7882 11.1921 27.9358 11.1832 27.1161 11.3708C26.4189 11.5287 25.6959 11.5323 24.9969 11.3813C23.6407 11.0852 22.5689 10.8516 22.0004 9.94386C21.1863 8.63884 21.568 6.80471 22.4271 6.15926C22.7102 5.96396 23.0595 5.88944 23.3977 5.95205C23.9994 6.00136 24.6041 5.89942 25.1565 5.65592C25.7443 5.38056 26.2665 4.98304 26.6884 4.4894C26.7956 4.57223 26.9089 4.64674 27.0139 4.73234C29.5741 6.81662 31.4199 9.64773 32.2947 12.8309ZM7.90278 1.16658C10.0948 1.17018 11.8708 2.94614 11.8741 5.1379C11.8741 6.8349 9.32526 10.7201 7.90278 12.6897C6.55398 10.8669 5.38192 8.91945 4.40295 6.87396C4.13618 6.33073 3.97606 5.74152 3.93146 5.1379C3.93396 2.94558 5.71047 1.16907 7.90278 1.16658ZM1.09481 17.0518C1.09703 15.9947 1.20368 14.9401 1.4131 13.9038C1.47377 14.6925 1.57654 15.3942 1.66851 16.0028C2.02005 18.3289 2.35219 20.5218 4.06665 22.5271C4.78357 23.372 5.98416 24.7845 7.84045 24.9934C9.69674 25.2022 12.0212 24.1343 12.6927 23.8019L12.9503 23.672C13.3071 23.4473 13.7149 23.3169 14.1357 23.2925C14.8534 23.3576 15.5183 23.6972 15.992 24.2404C16.9601 25.3122 17.2058 27.1017 16.5177 28.0699C16.2972 28.3575 15.9928 28.5691 15.6462 28.6755C15.0531 28.8738 14.549 29.2758 14.2235 29.8101C13.744 30.6783 13.6548 31.7091 13.9783 32.6468C6.50661 31.1991 1.10645 24.6626 1.09481 17.0518ZM16.9801 32.9371C16.4319 32.9371 15.8842 32.9088 15.3387 32.8526C15.2922 32.793 15.249 32.731 15.2094 32.6665C14.826 31.9573 14.8218 31.1032 15.1986 30.3905C15.4033 30.0653 15.7205 29.8268 16.0895 29.7204C16.6305 29.5339 17.1025 29.1874 17.4424 28.727C18.4291 27.3394 18.1499 24.9355 16.8355 23.4814C16.1518 22.6997 15.1844 22.2232 14.1481 22.1578H14.1229C13.5254 22.1758 12.9431 22.3492 12.4328 22.6612L12.1907 22.7836C10.9511 23.3947 9.18731 23.9989 7.96649 23.8615C6.55759 23.7038 5.57916 22.5509 4.93011 21.7874C3.42535 20.0287 3.13089 18.0826 2.79071 15.8305C2.4256 13.9038 2.4112 11.9273 2.74749 9.99539C3.05138 9.38013 3.39461 8.7851 3.7755 8.21389C3.79434 8.25157 3.81512 8.29007 3.83229 8.32747C3.86858 8.39949 3.90598 8.47096 3.94559 8.54299C4.00238 8.65019 4.05917 8.7574 4.11596 8.86544C4.15502 8.93801 4.19463 9.01059 4.23507 9.08372C4.29519 9.19148 4.35585 9.29924 4.41708 9.407C4.45807 9.47847 4.4988 9.55022 4.54035 9.62169C4.60351 9.72945 4.66667 9.83666 4.73038 9.94386C4.77221 10.0142 4.81376 10.084 4.85615 10.1538C4.92319 10.2671 4.99078 10.3732 5.05837 10.4827C5.09687 10.5447 5.13483 10.6076 5.17167 10.6688C5.25561 10.8034 5.33899 10.9339 5.42237 11.0661C5.44453 11.1001 5.46669 11.1359 5.4883 11.1694C5.59218 11.3303 5.69523 11.4874 5.79634 11.6406C5.83485 11.6974 5.87225 11.7542 5.90992 11.811C5.97225 11.9046 6.03458 11.9982 6.09524 12.0877L6.22987 12.2847C6.27863 12.3567 6.32794 12.4287 6.37559 12.4974L6.5116 12.693C6.55371 12.7539 6.59581 12.8135 6.63598 12.8705C6.67615 12.9279 6.72158 12.9927 6.76369 13.0512C6.80552 13.1096 6.83405 13.1503 6.86757 13.1974L6.98087 13.3539L7.07339 13.4822L7.1637 13.6066L7.23738 13.7063L7.30664 13.8005L7.34791 13.8573C7.39861 13.926 7.43711 13.9775 7.44792 13.9916C7.55485 14.1346 7.723 14.2188 7.90167 14.2188C8.08035 14.2188 8.2485 14.1346 8.35542 13.9916C8.83162 13.3603 13.0088 7.76014 13.0088 5.1379C13.0088 4.97224 12.9985 4.80769 12.9827 4.64425C12.9777 4.59383 12.9697 4.54342 12.9633 4.493C12.9486 4.37942 12.9312 4.26585 12.9068 4.15255C12.896 4.09576 12.8841 4.04257 12.8716 3.988C12.8453 3.87442 12.8148 3.76112 12.7802 3.64754C12.7661 3.60211 12.7542 3.55613 12.7392 3.51153C12.6882 3.35945 12.6309 3.20903 12.5658 3.06276C12.5533 3.03478 12.5384 3.00597 12.5254 2.98049C12.4686 2.86248 12.4121 2.74558 12.3467 2.63145C12.3184 2.58048 12.2871 2.53117 12.2567 2.48103C12.2021 2.39155 12.1453 2.30346 12.0863 2.21675C12.0511 2.16633 12.0154 2.11592 11.9785 2.06633C11.9591 2.0414 11.9428 2.01481 11.9217 1.99043C13.1021 1.59291 14.3262 1.33916 15.5676 1.23473C14.683 2.90431 14.3941 4.44868 14.7243 5.83016C14.9706 6.7554 15.4379 7.60722 16.0861 8.31223C16.6199 8.9732 17.0039 9.44966 16.9801 10.2275C16.9313 11.8727 15.0734 13.2423 14.3703 13.7598C13.4481 14.4238 12.4173 14.9216 11.3239 15.2313C10.2934 15.5679 9.40449 15.8582 9.06459 16.8726C8.72857 18.2123 9.28038 19.6178 10.4383 20.3708C11.1322 20.7456 11.95 20.8179 12.699 20.5705C13.5196 20.3799 14.3678 20.3392 15.2027 20.4508C16.2806 20.6035 17.21 20.7345 17.6507 21.3517C17.9122 21.7204 17.8987 22.1016 17.8477 22.8008C17.7313 23.7906 17.8319 24.7939 18.1419 25.741C18.4006 26.5172 18.7915 27.6893 19.7306 27.8245C19.7915 27.8342 19.8533 27.8392 19.9148 27.8392C20.5794 27.8392 20.986 27.2524 21.4137 26.6352C21.6027 26.3624 21.811 26.0679 22.0606 25.7723C23.2282 27.6588 24.4144 29.2331 24.4695 29.3079C24.5767 29.4508 24.7449 29.5348 24.9233 29.5348C25.1019 29.5348 25.2701 29.4508 25.3773 29.3079C26.6081 27.6596 27.73 25.9322 28.7353 24.1374C29.4323 24.3393 30.096 24.6418 30.7054 25.0355C27.8668 29.9287 22.637 32.9396 16.9801 32.9371ZM27.5693 17.4984C28.4123 18.2502 28.8943 19.3261 28.894 20.4558C28.894 20.8639 28.7284 21.6728 27.9416 23.2091C27.0435 24.8737 26.0352 26.476 24.9227 28.0054C24.3889 27.2616 23.4703 25.9413 22.6484 24.5537C22.1902 23.793 21.781 23.0044 21.4229 22.1919C21.1561 21.6487 20.996 21.0594 20.9514 20.4558C20.9539 18.2635 22.7304 16.487 24.9227 16.4845C25.0454 16.4845 25.167 16.49 25.2881 16.5011C26.1363 16.5779 26.9369 16.928 27.5693 17.4984ZM32.8454 17.8253C32.7476 19.9832 32.2038 22.0974 31.2478 24.0346C30.6262 23.6415 29.9564 23.3296 29.2555 23.1063C29.6938 22.2861 29.9572 21.3833 30.0287 20.4558C30.024 18.5089 28.917 16.7327 27.171 15.8706L27.1352 15.8548C27.0084 15.7936 26.8795 15.7363 26.748 15.6848C26.6577 15.6496 26.564 15.6222 26.4715 15.5928C26.4147 15.5756 26.3637 15.5543 26.3086 15.536C26.1623 15.4945 26.0136 15.4607 25.864 15.4327H25.8565C25.7659 15.4158 25.674 15.4066 25.582 15.3947C24.1232 15.1928 22.6487 15.6352 21.542 16.6067C20.435 17.5784 19.8054 18.9832 19.8167 20.4558C19.8608 21.2121 20.0516 21.9528 20.3785 22.6362C20.6965 23.3603 21.0553 24.0659 21.4531 24.7493C21.0985 25.1374 20.7738 25.5515 20.4816 25.9884C20.3256 26.2557 20.1286 26.4967 19.8979 26.7028C19.7843 26.6857 19.5741 26.4435 19.217 25.382C18.9566 24.5762 18.8749 23.723 18.9782 22.8825C19.1256 22.1276 18.9807 21.345 18.5732 20.6929C17.8488 19.6799 16.5842 19.5015 15.3537 19.327C14.3972 19.1962 13.4248 19.24 12.4841 19.4558C11.7583 19.5946 11.4214 19.6464 11.0361 19.4062C10.3322 18.9236 9.98041 18.0702 10.1397 17.2316C10.2912 16.7779 10.7452 16.6139 11.6716 16.3097C12.8813 15.9626 14.0215 15.4086 15.0421 14.672C15.8687 14.0656 18.0491 12.4564 18.1147 10.261C18.151 9.0599 17.5502 8.31888 16.9693 7.60251C16.4324 7.02743 16.0418 6.33184 15.8302 5.5742C15.5288 4.31017 15.9022 2.82785 16.915 1.16658H16.9801C20.1034 1.17101 23.1567 2.09403 25.7596 3.82068C25.459 4.15559 25.0953 4.42762 24.6889 4.62126C24.2933 4.79246 23.8609 4.86005 23.4318 4.81794C22.8351 4.74425 22.2329 4.89911 21.7456 5.25147C20.4591 6.21992 19.8827 8.68953 21.0389 10.5442C21.8619 11.8586 23.2678 12.165 24.803 12.4996C25.6294 12.6741 26.4834 12.6705 27.3084 12.4888C27.9704 12.3309 28.6608 12.3329 29.3217 12.4952C30.0655 12.7096 30.7636 13.0592 31.3813 13.526C32.0229 14.0581 32.5094 14.7529 32.79 15.5377C32.8365 16.0388 32.8653 16.5413 32.8653 17.0518C32.8653 17.3056 32.8603 17.5624 32.8432 17.8253H32.8454Z" fill="#EE436A"/>
<path d="M7.90263 6.83979C9.15585 6.83979 10.172 5.82397 10.172 4.57047C10.172 3.31725 9.15585 2.30115 7.90263 2.30115C6.6494 2.30115 5.6333 3.31725 5.6333 4.57047C5.6333 5.82397 6.6494 6.83979 7.90263 6.83979ZM7.90263 3.43581C8.52924 3.43581 9.03729 3.94386 9.03729 4.57047C9.03729 5.19708 8.52924 5.70513 7.90263 5.70513C7.27601 5.70513 6.76796 5.19708 6.76796 4.57047C6.76796 3.94386 7.27601 3.43581 7.90263 3.43581Z" fill="#EE436A"/>
<path d="M22.6533 19.8885C22.6533 21.142 23.6694 22.1578 24.9226 22.1578C26.1759 22.1578 27.192 21.142 27.192 19.8885C27.192 18.6352 26.1759 17.6191 24.9226 17.6191C23.6694 17.6191 22.6533 18.6352 22.6533 19.8885ZM26.0573 19.8885C26.0573 20.5151 25.5493 21.0231 24.9226 21.0231C24.296 21.0231 23.788 20.5151 23.788 19.8885C23.788 19.2619 24.296 18.7538 24.9226 18.7538C25.5493 18.7538 26.0573 19.2619 26.0573 19.8885Z" fill="#EE436A"/>
</g>
<defs>
<clipPath id="clip0">
<rect width="34" height="34" fill="white"/>
</clipPath>
</defs>
</svg>
