<svg width="34" height="34" viewBox="0 0 34 34" fill="none" xmlns="http://www.w3.org/2000/svg">
<path d="M33.3359 0H0.664062C0.297367 0 0 0.297301 0 0.664062V29.75C0 30.1167 0.297367 30.4141 0.664062 30.4141H14.4434C14.8101 30.4141 15.1074 30.1167 15.1074 29.75C15.1074 29.3833 14.8101 29.0859 14.4434 29.0859H1.32812V6.10599C1.35004 6.10818 1.37229 6.10938 1.3948 6.10938H32.6719V29.0859H31.3791C31.0124 29.0859 30.715 29.3833 30.715 29.75C30.715 30.1167 31.0124 30.4141 31.3791 30.4141H33.3359C33.7026 30.4141 34 30.1167 34 29.75V0.664062C34 0.297301 33.7026 0 33.3359 0ZM32.6719 4.78125H1.3948C1.37229 4.78125 1.35004 4.78245 1.32812 4.78464V1.32812H32.6719V4.78125Z" fill="#EE436A"/>
<path d="M17.7351 29.2805C17.6116 29.1569 17.4403 29.0859 17.2656 29.0859C17.091 29.0859 16.9196 29.1569 16.7961 29.2805C16.6726 29.4041 16.6016 29.5754 16.6016 29.75C16.6016 29.9246 16.6726 30.096 16.7961 30.2194C16.9196 30.3429 17.091 30.4141 17.2656 30.4141C17.4403 30.4141 17.6116 30.343 17.7351 30.2194C17.8586 30.096 17.9297 29.9246 17.9297 29.75C17.9297 29.5754 17.8586 29.404 17.7351 29.2805Z" fill="#EE436A"/>
<path d="M29.7496 2.39062H14.7461C14.3794 2.39062 14.082 2.68793 14.082 3.05469C14.082 3.42145 14.3794 3.71875 14.7461 3.71875H29.7496C30.1163 3.71875 30.4137 3.42145 30.4137 3.05469C30.4137 2.68793 30.1163 2.39062 29.7496 2.39062Z" fill="#EE436A"/>
<path d="M7.37568 2.5852C7.25223 2.46168 7.0809 2.39062 6.90625 2.39062C6.7316 2.39062 6.56027 2.46168 6.43676 2.5852C6.31318 2.70871 6.24219 2.88004 6.24219 3.05469C6.24219 3.22934 6.31318 3.40066 6.43676 3.52418C6.56034 3.6477 6.7316 3.71875 6.90625 3.71875C7.0809 3.71875 7.25223 3.6477 7.37568 3.52418C7.49926 3.40066 7.57031 3.22934 7.57031 3.05469C7.57031 2.88004 7.49926 2.70871 7.37568 2.5852Z" fill="#EE436A"/>
<path d="M4.71943 2.5852C4.59598 2.46168 4.42465 2.39062 4.25 2.39062C4.07535 2.39062 3.90402 2.46168 3.78051 2.5852C3.65693 2.70871 3.58594 2.88004 3.58594 3.05469C3.58594 3.22934 3.65693 3.40066 3.78051 3.52418C3.90409 3.6477 4.07535 3.71875 4.25 3.71875C4.42465 3.71875 4.59598 3.6477 4.71943 3.52418C4.84301 3.40066 4.91406 3.22934 4.91406 3.05469C4.91406 2.88004 4.84301 2.70871 4.71943 2.5852Z" fill="#EE436A"/>
<path d="M10.0319 2.5852C9.90848 2.46168 9.73715 2.39062 9.5625 2.39062C9.38785 2.39062 9.21652 2.46168 9.09301 2.5852C8.96949 2.70871 8.89844 2.88004 8.89844 3.05469C8.89844 3.22934 8.96943 3.40066 9.09301 3.52418C9.21659 3.6477 9.38785 3.71875 9.5625 3.71875C9.73715 3.71875 9.90848 3.6477 10.0319 3.52418C10.1555 3.40066 10.2266 3.22934 10.2266 3.05469C10.2266 2.88004 10.1555 2.70871 10.0319 2.5852Z" fill="#EE436A"/>
<path d="M20.8237 20.4628C20.7292 20.1722 20.4827 19.9644 20.1803 19.9205L18.4764 19.6734L17.714 18.1296C17.714 18.1295 17.714 18.1294 17.7139 18.1293C17.5786 17.8556 17.3049 17.6855 16.9995 17.6855C16.9994 17.6855 16.9993 17.6855 16.9992 17.6855C16.6937 17.6857 16.42 17.8559 16.2848 18.1299L15.5232 19.6741L13.8192 19.9221C13.5169 19.9662 13.2705 20.1741 13.1762 20.4647C13.0819 20.7553 13.1593 21.0682 13.3781 21.2815L14.6113 22.4829L14.3207 24.1803C14.2693 24.4813 14.3908 24.7799 14.6379 24.9593C14.7776 25.0607 14.9409 25.1122 15.1054 25.1122C15.232 25.1122 15.3595 25.0817 15.4773 25.0197L17.001 24.2181L18.5252 25.019C18.7956 25.1612 19.1171 25.1379 19.3643 24.9581C19.6114 24.7786 19.7328 24.48 19.6812 24.1787L19.3897 22.4817L20.6223 21.2797C20.841 21.0663 20.9182 20.7533 20.8237 20.4628ZM18.2625 21.726C18.0743 21.9094 17.9888 22.1734 18.0335 22.4314L18.19 23.3427L17.371 22.9124C17.1386 22.7905 16.8615 22.7908 16.6298 22.9129L15.8116 23.3434L15.9676 22.4321C16.0119 22.1735 15.9262 21.91 15.7383 21.7266L15.076 21.0814L15.9908 20.9482C16.2506 20.9105 16.4749 20.7473 16.5908 20.5121L16.9998 19.6829L17.4091 20.5117C17.5252 20.7469 17.7494 20.9099 18.0093 20.9477L18.9243 21.0804L18.2625 21.726Z" fill="#EE436A"/>
<path d="M11.4253 20.4628C11.3308 20.1722 11.0843 19.9644 10.7818 19.9205L9.07792 19.6734L8.31558 18.1296C8.31558 18.1295 8.31552 18.1294 8.31545 18.1293C8.18011 17.8556 7.90645 17.6855 7.60105 17.6855C7.60098 17.6855 7.60085 17.6855 7.60072 17.6855C7.29525 17.6857 7.02152 17.8559 6.88632 18.1299L6.12477 19.6741L4.42073 19.9221C4.11844 19.9662 3.87208 20.1741 3.77778 20.4647C3.68348 20.7553 3.76085 21.0682 3.97966 21.2815L5.21289 22.4829L4.92222 24.1803C4.87083 24.4813 4.99235 24.7799 5.23945 24.9593C5.37917 25.0607 5.54246 25.1122 5.70695 25.1122C5.83358 25.1122 5.96102 25.0817 6.07882 25.0197L7.60251 24.2181L9.12673 25.019C9.39714 25.1612 9.71868 25.1379 9.96584 24.9581C10.213 24.7785 10.3344 24.4799 10.2827 24.1786L9.99114 22.4817L11.2238 21.2796C11.4425 21.0663 11.5197 20.7533 11.4253 20.4628ZM8.86403 21.726C8.67623 21.9091 8.59057 22.1728 8.63499 22.4314L8.79151 23.3426L7.97253 22.9124C7.74011 22.7905 7.46299 22.7908 7.23137 22.9129L6.41311 23.3434L6.56916 22.4321C6.61346 22.1735 6.52779 21.91 6.33986 21.7266L5.67753 21.0814L6.59241 20.9482C6.85219 20.9105 7.07651 20.7473 7.19239 20.5121L7.60132 19.6829L8.01064 20.5117C8.12672 20.7469 8.35098 20.9099 8.61082 20.9477L9.52583 21.0804L8.86403 21.726Z" fill="#EE436A"/>
<path d="M30.2228 20.4648C30.1286 20.1742 29.8822 19.9663 29.5796 19.9222L27.8759 19.6742L27.1142 18.1299C26.9791 17.856 26.7054 17.6858 26.3999 17.6857C26.3998 17.6857 26.3997 17.6857 26.3996 17.6857C26.0942 17.6857 25.8204 17.8557 25.6852 18.1295C25.6851 18.1295 25.685 18.1296 25.685 18.1297L24.9227 19.6735L23.2186 19.9206C22.9163 19.9645 22.6698 20.1723 22.5753 20.4629C22.4808 20.7534 22.558 21.0664 22.7767 21.2798L24.0094 22.4819L23.7178 24.179C23.6662 24.4801 23.7875 24.7787 24.0346 24.9583C24.2818 25.138 24.6033 25.1612 24.8738 25.0192L26.398 24.2183L27.9219 25.02C28.0395 25.0819 28.1668 25.1124 28.2935 25.1124C28.458 25.1124 28.6214 25.0609 28.761 24.9595C29.0082 24.78 29.1297 24.4815 29.0782 24.1803L28.7876 22.4831L30.0209 21.2816C30.2398 21.0683 30.3171 20.7554 30.2228 20.4648ZM27.6606 21.7269C27.4729 21.91 27.3872 22.1736 27.4315 22.4319L27.5876 23.3433L26.7697 22.913C26.6535 22.8519 26.526 22.8213 26.3984 22.8213C26.2712 22.8213 26.1439 22.8517 26.0276 22.9126L25.2092 23.3427L25.3657 22.4314C25.4101 22.1728 25.3245 21.9092 25.1367 21.726L24.4748 21.0804L25.3901 20.9477C25.6496 20.91 25.8739 20.747 25.9898 20.5119L26.3993 19.6829L26.8081 20.5119C26.9241 20.7473 27.1484 20.9105 27.4082 20.9482L28.3231 21.0814L27.6606 21.7269Z" fill="#EE436A"/>
<path d="M29.75 7.83594H4.25C3.8833 7.83594 3.58594 8.13324 3.58594 8.5V15.6701C3.58594 16.0369 3.8833 16.3342 4.25 16.3342H29.75C30.1167 16.3342 30.4141 16.0369 30.4141 15.6701V8.5C30.4141 8.13324 30.1167 7.83594 29.75 7.83594ZM29.0859 15.0061H4.91406V12.0859H14.7465C15.1132 12.0859 15.4106 11.7886 15.4106 11.4219C15.4106 11.0551 15.1132 10.7578 14.7465 10.7578H4.91406V9.16406H29.0859V15.0061Z" fill="#EE436A"/>
<path d="M31.3794 30.9367C30.9875 30.9367 30.6186 31.037 30.297 31.2132C29.9712 30.3644 29.1481 29.76 28.1859 29.76C27.5631 29.76 26.9984 30.0131 26.5892 30.4218C26.1799 30.0131 25.6152 29.76 24.9924 29.76C24.6599 29.76 24.3443 29.8327 24.0598 29.9621V26.0444C24.0598 24.7978 23.0456 23.7836 21.7989 23.7836C20.5523 23.7836 19.5381 24.7977 19.5381 26.0444V33.3359C19.5381 33.7026 19.8355 34 20.2021 34C20.5688 34 20.8662 33.7026 20.8662 33.3359V26.0444C20.8662 25.5302 21.2846 25.1118 21.7989 25.1118C22.3132 25.1118 22.7316 25.5302 22.7316 26.0444V33.3359C22.7316 33.7026 23.029 34 23.3957 34C23.7624 34 24.0598 33.7026 24.0598 33.3359V32.0208C24.0598 31.5066 24.4782 31.0881 24.9924 31.0881C25.5067 31.0881 25.9251 31.5066 25.9251 32.0208V33.3359C25.9251 33.7026 26.2225 34 26.5892 34C26.9559 34 27.2532 33.7026 27.2532 33.3359V32.0208C27.2532 31.5066 27.6717 31.0881 28.1859 31.0881C28.7002 31.0881 29.1186 31.5066 29.1186 32.0208V33.3359C29.1186 33.7026 29.4159 34 29.7826 34C30.1493 34 30.4467 33.7026 30.4467 33.3359V33.1975C30.4467 32.6832 30.8651 32.2648 31.3794 32.2648C31.8937 32.2648 32.3121 32.6832 32.3121 33.1975C32.3121 33.5641 32.6095 33.8615 32.9762 33.8615C33.3429 33.8615 33.6403 33.5641 33.6403 33.1975C33.6403 31.9509 32.6261 30.9367 31.3794 30.9367Z" fill="#EE436A"/>
<path d="M18.1999 10.9524C18.0764 10.8289 17.9051 10.7578 17.7305 10.7578C17.5558 10.7578 17.3845 10.8289 17.261 10.9524C17.1375 11.0759 17.0664 11.2472 17.0664 11.4219C17.0664 11.5965 17.1374 11.7679 17.261 11.8914C17.3846 12.0149 17.5558 12.0859 17.7305 12.0859C17.9051 12.0859 18.0764 12.0149 18.1999 11.8914C18.3234 11.7679 18.3945 11.5965 18.3945 11.4219C18.3945 11.2472 18.3235 11.0759 18.1999 10.9524Z" fill="#EE436A"/>
</svg>
