<svg width="34" height="34" viewBox="0 0 34 34" fill="none" xmlns="http://www.w3.org/2000/svg">
<path d="M25.1327 12.1623L18.2992 6.17865C17.937 5.86519 17.4773 5.69105 16.9966 5.69105C16.516 5.69105 16.0562 5.86519 15.694 6.17865L13.2699 8.30322C13.1306 7.78775 13.054 7.24442 13.054 6.68019C13.054 5.31489 13.4859 4.03319 14.266 3.07888C15.0044 2.17333 15.9796 1.67179 16.9966 1.67179C19.1699 1.67179 20.9393 3.91477 20.9393 6.68019C20.9393 7.13993 21.3154 7.51608 21.7752 7.51608C22.2349 7.51608 22.611 7.13993 22.611 6.68019C22.611 2.99529 20.0894 0 16.9966 0C15.4641 0 14.0362 0.717476 12.9704 2.02008C11.9464 3.27392 11.3822 4.92481 11.3822 6.68019C11.3822 7.66933 11.5633 8.62364 11.9046 9.50133L8.86755 12.1623C8.10828 12.831 7.66943 13.7923 7.66943 14.8023V29.8066C7.66943 32.1192 9.5502 34 11.8628 34H22.1374C24.45 34 26.3308 32.1192 26.3308 29.8066V14.8023C26.3308 13.7923 25.8919 12.831 25.1327 12.1623ZM24.659 29.8066C24.659 31.1998 23.5305 32.3282 22.1374 32.3282H11.8559C10.4627 32.3282 9.33426 31.1998 9.33426 29.8066V14.8023C9.33426 14.2729 9.56413 13.7644 9.96118 13.4161L12.7127 11.0059C12.7963 11.1174 12.8798 11.2288 12.9634 11.3403C14.0292 12.6429 15.4572 13.3604 16.9897 13.3604C17.4494 13.3604 17.8255 12.9842 17.8255 12.5245C17.8255 12.0647 17.4494 11.6886 16.9897 11.6886C15.9657 11.6886 14.9974 11.1871 14.2591 10.2815C14.1615 10.1561 14.064 10.0307 13.9735 9.89838L16.7876 7.43249C16.8573 7.3698 16.9339 7.35587 16.9897 7.35587C17.0454 7.35587 17.122 7.3698 17.1917 7.43249L24.0251 13.4161C24.4221 13.7644 24.652 14.2729 24.652 14.8023V29.8066H24.659Z" fill="#EE436A"/>
<path d="M17.916 21.1412H16.077C15.4292 21.1412 14.8998 20.6118 14.8998 19.9639C14.8998 19.3161 15.4292 18.7867 16.077 18.7867H19.3161C19.7759 18.7867 20.152 18.4106 20.152 17.9508C20.152 17.4911 19.7759 17.1149 19.3161 17.1149H17.8324V16.0283C17.8324 15.5685 17.4563 15.1924 16.9965 15.1924C16.5368 15.1924 16.1606 15.5685 16.1606 16.0283V17.1149H16.077C14.5028 17.1149 13.228 18.3966 13.228 19.9639C13.228 21.5382 14.5097 22.813 16.077 22.813H17.916C18.5638 22.813 19.0932 23.3424 19.0932 23.9902C19.0932 24.638 18.5638 25.1674 17.916 25.1674H14.6142C14.1545 25.1674 13.7783 25.5435 13.7783 26.0033C13.7783 26.463 14.1545 26.8392 14.6142 26.8392H16.1606V27.9467C16.1606 28.4065 16.5368 28.7826 16.9965 28.7826C17.4563 28.7826 17.8324 28.4065 17.8324 27.9467V26.8392H17.9299C17.9369 26.8392 17.9439 26.8392 17.9508 26.8392C19.5042 26.8183 20.765 25.5505 20.765 23.9902C20.765 22.4159 19.4833 21.1412 17.916 21.1412Z" fill="#EE436A"/>
</svg>
