<svg width="34" height="34" viewBox="0 0 34 34" fill="none" xmlns="http://www.w3.org/2000/svg">
<path d="M3.4 12.4667C3.39806 10.5896 1.87708 9.06859 0 9.06665V10.2C1.25176 10.2 2.26667 11.2149 2.26667 12.4667V23.8C2.26667 24.1129 2.52039 24.3666 2.83333 24.3666H4.2987L5.71868 25.7866C4.80726 26.2814 4.34795 27.3314 4.60306 28.3366C4.85817 29.3419 5.76296 30.0455 6.8 30.0455C7.83704 30.0455 8.74183 29.3419 8.99694 28.3366C9.25205 27.3314 8.79274 26.2814 7.88132 25.7866L9.3013 24.3666H25.2654L26.6854 25.7866C25.7739 26.2814 25.3146 27.3314 25.5697 28.3366C25.8248 29.3419 26.7296 30.0455 27.7667 30.0455C28.8037 30.0455 29.7085 29.3419 29.9636 28.3366C30.2187 27.3314 29.7594 26.2814 28.848 25.7866L30.268 24.3666H34V23.2333H3.4V12.4667ZM6.8 28.9C6.17412 28.9 5.66667 28.3925 5.66667 27.7666C5.66667 27.1408 6.17412 26.6333 6.8 26.6333C7.42588 26.6333 7.93333 27.1408 7.93333 27.7666C7.93333 28.3925 7.42588 28.9 6.8 28.9ZM6.8 25.2653L5.9013 24.3666H7.6987L6.8 25.2653ZM27.7667 28.9C27.1408 28.9 26.6333 28.3925 26.6333 27.7666C26.6333 27.1408 27.1408 26.6333 27.7667 26.6333C28.3925 26.6333 28.9 27.1408 28.9 27.7666C28.9 28.3925 28.3925 28.9 27.7667 28.9ZM27.7667 25.2653L26.868 24.3666H28.6654L27.7667 25.2653Z" fill="#028A8B"/>
<path d="M33.4332 9.63334H22.6665V4.53334C22.6665 4.2204 22.4128 3.96667 22.0999 3.96667H5.09987C4.78693 3.96667 4.5332 4.2204 4.5332 4.53334V21.5333C4.5332 21.8463 4.78693 22.1 5.09987 22.1H33.4332C33.7461 22.1 33.9999 21.8463 33.9999 21.5333V10.2C33.9999 9.88707 33.7461 9.63334 33.4332 9.63334ZM13.8168 7.40984C13.6051 7.32213 13.3614 7.37055 13.1992 7.53269L11.8999 8.83204V5.10001H15.2999V9.63334H14.1665V7.93334C14.1665 7.70424 14.0285 7.49755 13.8168 7.40984ZM21.5332 20.9667H5.66654V5.10001H10.7665V10.2C10.7665 10.4291 10.9046 10.6358 11.1163 10.7235C11.3279 10.8112 11.5717 10.7625 11.7339 10.6007L13.0332 9.30131V10.2C13.0332 10.5129 13.2869 10.7667 13.5999 10.7667H15.8665C16.1795 10.7667 16.4332 10.5129 16.4332 10.2V5.10001H21.5332V20.9667ZM26.6332 10.7667H28.8999V14.1667H26.6332V10.7667ZM32.8665 20.9667H22.6665V10.7667H25.4999V14.7333C25.4999 15.0463 25.7536 15.3 26.0665 15.3H29.4665C29.7795 15.3 30.0332 15.0463 30.0332 14.7333V10.7667H32.8665V20.9667Z" fill="#028A8B"/>
<path d="M8.09941 15.466L6.39941 17.166L7.20072 17.9673L7.9334 17.2346V19.8333H9.06673V17.2346L9.79941 17.9673L10.6007 17.166L8.90072 15.466C8.67936 15.2449 8.32077 15.2449 8.09941 15.466Z" fill="#028A8B"/>
<path d="M12.6326 15.466L10.9326 17.166L11.7339 17.9673L12.4666 17.2346V19.8333H13.5999V17.2346L14.3326 17.9673L15.1339 17.166L13.4339 15.466C13.2126 15.2449 12.854 15.2449 12.6326 15.466Z" fill="#028A8B"/>
</svg>
