<svg width="34" height="34" viewBox="0 0 34 34" fill="none" xmlns="http://www.w3.org/2000/svg">
<g clip-path="url(#clip0)">
<path d="M28.9001 2.83333C28.9001 1.26864 27.6314 0 26.0667 0C24.5018 0 23.2334 1.26864 23.2334 2.83333C23.2334 4.39803 24.5018 5.66667 26.0667 5.66667C27.6306 5.66473 28.8981 4.39748 28.9001 2.83333ZM26.0667 4.53333C25.1279 4.53333 24.3667 3.77215 24.3667 2.83333C24.3667 1.89452 25.1279 1.13333 26.0667 1.13333C27.0056 1.13333 27.7667 1.89452 27.7667 2.83333C27.7667 3.77215 27.0056 4.53333 26.0667 4.53333Z" fill="#EE436A"/>
<path d="M32.3002 5.66665H22.1002V2.26665C22.1002 1.32783 21.339 0.56665 20.4002 0.56665C19.4614 0.56665 18.7002 1.32783 18.7002 2.26665V7.36665C18.7002 8.30547 19.4614 9.06665 20.4002 9.06665H22.1002V11.7118L20.1736 14.2901C19.9533 14.5847 19.8341 14.9425 19.8335 15.3102V21.5333C19.8335 21.8463 20.0873 22.1 20.4002 22.1H22.6669C22.9798 22.1 23.2335 21.8463 23.2335 21.5333V15.8893C23.2333 15.7471 23.2867 15.6099 23.3832 15.505L24.6151 14.1666H26.0669V21.5333C26.0669 21.8463 26.3206 22.1 26.6335 22.1H28.9002C29.2131 22.1 29.4669 21.8463 29.4669 21.5333V9.06665H30.6002V11.3333C30.6002 12.2721 31.3614 13.0333 32.3002 13.0333C33.239 13.0333 34.0002 12.2721 34.0002 11.3333V7.36665C34.0002 6.42783 33.239 5.66665 32.3002 5.66665ZM32.8669 11.3333C32.8669 11.6463 32.6131 11.9 32.3002 11.9C31.9873 11.9 31.7335 11.6463 31.7335 11.3333V8.49998C31.7335 8.18704 31.4798 7.93332 31.1669 7.93332H28.9002C28.5873 7.93332 28.3335 8.18704 28.3335 8.49998V20.9666H27.2002V13.6C27.2002 13.287 26.9465 13.0333 26.6335 13.0333H24.3669C24.2086 13.0336 24.0575 13.0997 23.9504 13.2165L22.5495 14.7377C22.2598 15.0512 22.0994 15.4627 22.1002 15.8893V20.9666H20.9669V15.3086C20.9669 15.186 21.0067 15.0665 21.08 14.9685L23.1201 12.24C23.1937 12.1418 23.2335 12.0226 23.2335 11.9V8.49998C23.2335 8.18704 22.9798 7.93332 22.6669 7.93332H20.4002C20.0873 7.93332 19.8335 7.67959 19.8335 7.36665V2.26665C19.8335 1.95371 20.0873 1.69998 20.4002 1.69998C20.7131 1.69998 20.9669 1.95371 20.9669 2.26665V6.23332C20.9669 6.54626 21.2206 6.79998 21.5335 6.79998H32.3002C32.6131 6.79998 32.8669 7.05371 32.8669 7.36665V11.3333Z" fill="#EE436A"/>
<path d="M13.0334 13.6001C13.0334 12.0354 11.7647 10.7667 10.2 10.7667C8.63506 10.7667 7.3667 12.0354 7.3667 13.6001C7.3667 15.1648 8.63506 16.4334 10.2 16.4334C11.7639 16.4315 13.0314 15.1642 13.0334 13.6001ZM10.2 15.3001C9.26121 15.3001 8.50003 14.5389 8.50003 13.6001C8.50003 12.6612 9.26121 11.9001 10.2 11.9001C11.1389 11.9001 11.9 12.6612 11.9 13.6001C11.9 14.5389 11.1389 15.3001 10.2 15.3001Z" fill="#EE436A"/>
<path d="M16.2853 11.39C15.7778 11.2624 15.2396 11.3753 14.8263 11.6963C14.4126 12.017 14.1694 12.51 14.1666 13.0333V16.4333H5.09994C3.53579 16.4352 2.26854 17.7025 2.2666 19.2666V22.0999C2.2666 23.0387 3.02778 23.7999 3.9666 23.7999H6.79994V25.483C6.79994 25.5353 6.80713 25.5874 6.82152 25.6377L7.88956 29.3924L5.74131 33.1499C5.64004 33.3253 5.64004 33.5417 5.74159 33.7171C5.84314 33.8926 6.03046 34.0002 6.23327 33.9999H8.49994C8.70276 34.0002 8.89036 33.8923 8.9919 33.7166L11.2586 29.7499C11.3341 29.6177 11.3535 29.4602 11.3117 29.3136L10.3845 26.0666H11.4913L12.4547 28.9566L11.9044 33.3624C11.8842 33.5237 11.934 33.6861 12.0416 33.8082C12.1492 33.9299 12.3039 33.9999 12.4666 33.9999H14.7333C15.0191 33.9999 15.2598 33.7871 15.2952 33.5035L15.8619 28.9702C15.8713 28.8969 15.8663 28.8222 15.8467 28.7508L14.1666 22.5908V19.8333H15.8666C16.8054 19.8333 17.5666 19.0721 17.5666 18.1333V13.0955C17.5799 12.3009 17.0522 11.5986 16.2853 11.39ZM16.4333 18.1333C16.4333 18.4462 16.1796 18.6999 15.8666 18.6999H13.5999C13.287 18.6999 13.0333 18.9537 13.0333 19.2666V22.6666C13.0333 22.7169 13.0399 22.767 13.0532 22.8157L14.7236 28.9406L14.2327 32.8666H13.1085L13.5952 28.9702C13.606 28.8864 13.5977 28.8009 13.5703 28.7209L12.437 25.3209C12.3601 25.0896 12.1437 24.9335 11.8999 24.9333H9.63328C9.45536 24.9333 9.28796 25.0165 9.18088 25.1585C9.0738 25.3004 9.03949 25.4841 9.08819 25.6551L10.1562 29.3952L8.17123 32.8666H7.20779L8.98941 29.7499C9.06495 29.6177 9.08432 29.4608 9.04281 29.3141L7.93327 25.4036V23.7999C8.87016 23.7952 9.62857 23.0368 9.63328 22.0999C9.63328 21.1611 8.87209 20.3999 7.93327 20.3999V19.2666C7.93327 18.9537 7.67955 18.6999 7.36661 18.6999H5.6666C5.04073 18.6999 4.53327 19.2074 4.53327 19.8333V20.9666C4.53327 21.2795 4.787 21.5333 5.09994 21.5333H7.93327C8.24621 21.5333 8.49994 21.787 8.49994 22.0999C8.50022 22.2529 8.43713 22.399 8.3259 22.5039C8.22242 22.6093 8.08075 22.668 7.93327 22.6666H3.9666C3.65366 22.6666 3.39994 22.4129 3.39994 22.0999V19.2666C3.39994 18.3278 4.16112 17.5666 5.09994 17.5666H14.7333C15.0462 17.5666 15.2999 17.3129 15.2999 16.9999V13.0333C15.2997 12.8805 15.3622 12.7347 15.4734 12.6299C15.6112 12.4868 15.8165 12.4315 16.0077 12.486C16.2703 12.5704 16.4444 12.8199 16.4333 13.0955V18.1333ZM6.79994 20.3999H5.6666V19.8333H6.79994V20.3999Z" fill="#EE436A"/>
<path d="M4.00679 8.71029C4.09284 8.92583 4.30119 9.06722 4.53333 9.06722C4.7652 9.06722 4.97383 8.92583 5.0596 8.71029L6.10301 6.10357L8.70973 5.06043C8.92528 4.97438 9.06667 4.76603 9.06667 4.53389C9.06667 4.30202 8.92528 4.09339 8.70973 4.00734L6.10301 2.96366L5.0596 0.356934C4.97383 0.14139 4.7652 0 4.53333 0C4.30119 0 4.09284 0.14139 4.00679 0.356934L2.96366 2.96366L0.356934 4.00679C0.14139 4.09284 0 4.30147 0 4.53333C0 4.7652 0.14139 4.97383 0.356934 5.05988L2.96366 6.10301L4.00679 8.71029ZM3.61029 3.92655C3.75444 3.86872 3.86872 3.75444 3.92627 3.61029L4.53333 2.09207L5.14012 3.61029C5.19767 3.75444 5.31222 3.86872 5.45638 3.92655L6.97459 4.53333L5.45638 5.14012C5.31222 5.19795 5.19767 5.31222 5.14012 5.45638L4.53333 6.97459L3.92627 5.45638C3.86872 5.31222 3.75444 5.19795 3.61029 5.14012L2.09207 4.53333L3.61029 3.92655Z" fill="#EE436A"/>
<path d="M29.1101 28.9401L26.5034 27.897L25.46 25.2903C25.3742 25.0747 25.1656 24.9333 24.9337 24.9333C24.7016 24.9333 24.4932 25.0747 24.4072 25.2903L23.364 27.897L20.7573 28.9401C20.5418 29.0262 20.4004 29.2348 20.4004 29.4667C20.4004 29.6986 20.5418 29.9072 20.7573 29.9932L23.364 31.0364L24.4072 33.6431C24.4932 33.8586 24.7016 34 24.9337 34C25.1656 34 25.3742 33.8586 25.46 33.6431L26.5034 31.0364L29.1101 29.9932C29.3257 29.9072 29.4671 29.6986 29.4671 29.4667C29.4671 29.2348 29.3257 29.0262 29.1101 28.9401ZM25.8562 30.0735C25.7121 30.1313 25.5975 30.2456 25.54 30.3897L24.9332 31.9079L24.3261 30.3897C24.2686 30.2456 24.1543 30.1313 24.0101 30.0735L22.4919 29.4667L24.0101 28.8599C24.1543 28.8021 24.2686 28.6878 24.3261 28.5436L24.9332 27.0254L25.54 28.5436C25.5975 28.6878 25.7121 28.8021 25.8562 28.8599L27.3744 29.4667L25.8562 30.0735Z" fill="#EE436A"/>
<path d="M14.1666 8.40254C14.0164 8.40254 13.8722 8.34278 13.766 8.23653L12.1634 6.63392C11.9423 6.41257 11.9423 6.05398 12.1634 5.83262L13.766 4.23002C13.9873 4.00894 14.3459 4.00894 14.5673 4.23002L16.1699 5.83262C16.391 6.05398 16.391 6.41257 16.1699 6.63392L14.5673 8.23653C14.461 8.34278 14.3169 8.40254 14.1666 8.40254ZM13.3653 6.23327L14.1666 7.03457L14.9679 6.23327L14.1666 5.43197L13.3653 6.23327Z" fill="#EE436A"/>
<path d="M31.7335 27.6693C31.5833 27.6693 31.4391 27.6095 31.3329 27.5033L29.7303 25.9006C29.5092 25.6793 29.5092 25.3207 29.7303 25.0993L31.3329 23.4967C31.5542 23.2757 31.9128 23.2757 32.1342 23.4967L33.7368 25.0993C33.9578 25.3207 33.9578 25.6793 33.7368 25.9006L32.1342 27.5033C32.0279 27.6095 31.8838 27.6693 31.7335 27.6693ZM30.9322 25.5L31.7335 26.3013L32.5348 25.5L31.7335 24.6987L30.9322 25.5Z" fill="#EE436A"/>
</g>
<defs>
<clipPath id="clip0">
<rect width="34" height="34" fill="white"/>
</clipPath>
</defs>
</svg>
