<svg width="34" height="35" viewBox="0 0 34 35" fill="none" xmlns="http://www.w3.org/2000/svg">
<path d="M28.3333 6.17983V2.91667C28.3314 1.30667 27.064 0.00204167 25.5 0H2.83333C1.26933 0.00204167 0.00198333 1.30667 0 2.91667V15.75C0.00439168 17.2397 1.10132 18.4855 2.54093 18.6366L4.67103 24.3286C5.23373 25.8316 6.87338 26.5803 8.33354 26.0018L21.6353 20.727C20.7162 23.1984 20.9777 25.9709 22.3411 28.2142L22.6667 28.7502V34.4167C22.6667 34.739 22.9202 35 23.2333 35H33.4333C33.7464 35 34 34.739 34 34.4167V15.1616C33.9946 13.1442 33.2145 11.2114 31.829 9.78469L28.3333 6.17983ZM28.3333 9.66846L30.0532 14.2642C30.3902 15.1664 29.9534 16.1786 29.0772 16.5258L28.0942 16.9167C28.2512 16.5489 28.3325 16.1513 28.3333 15.75V9.66846ZM1.13333 15.75V2.91667C1.13333 1.95037 1.89465 1.16667 2.83333 1.16667H25.5C26.4387 1.16667 27.2 1.95037 27.2 2.91667V6.62433H27.195L27.2 6.6376V15.75C27.1956 15.8518 27.1827 15.9527 27.1615 16.0522L21.9708 10.7083C20.804 9.53487 18.9439 9.52583 17.7667 10.687C16.5892 11.8488 16.5185 13.7621 17.6075 15.0119L19.8203 17.5H2.83333C1.89465 17.5 1.13333 16.7163 1.13333 15.75ZM8.3929 18.6667L4.36333 20.2637L3.7672 18.6667H8.3929ZM7.92597 24.9129C7.0499 25.2605 6.06602 24.8109 5.72843 23.9091L4.77247 21.35L11.5368 18.6667V18.6632H20.859L21.5955 19.4897L7.92597 24.9129ZM32.8667 33.8333H23.8V29.1667H32.8667V33.8333ZM32.8667 28H23.5478L23.302 27.5957C21.9204 25.3228 21.8654 22.4519 23.1585 20.125C23.2809 19.9048 23.2509 19.6283 23.0843 19.4413L18.4406 14.2263C17.7481 13.4461 17.7871 12.2399 18.5284 11.5092C19.2701 10.7782 20.4424 10.7902 21.1694 11.5357L30.1994 20.8291L31.0006 20.0042L28.904 17.8459L29.4854 17.6126C30.9443 17.0332 31.6713 15.3468 31.11 13.8441L29.192 8.71719L31.0277 10.6108C32.2007 11.818 32.8621 13.454 32.8667 15.1616V28Z" fill="#028A8B"/>
<path d="M6.45994 8.16671C7.27367 8.16671 7.93327 7.48771 7.93327 6.65004V3.85004C7.93327 3.01237 7.27367 2.33337 6.45994 2.33337H3.73994C2.9262 2.33337 2.2666 3.01237 2.2666 3.85004V6.65004C2.2666 7.48771 2.9262 8.16671 3.73994 8.16671H6.45994ZM3.39994 6.65004V5.83337H4.53327V4.66671H3.39994V3.85004C3.39994 3.65681 3.55223 3.50004 3.73994 3.50004H6.45994C6.64764 3.50004 6.79994 3.65681 6.79994 3.85004V4.66671H5.6666V5.83337H6.79994V6.65004C6.79994 6.84327 6.64764 7.00004 6.45994 7.00004H3.73994C3.55223 7.00004 3.39994 6.84327 3.39994 6.65004Z" fill="#028A8B"/>
<path d="M2.8335 9.91663H5.10016V11.0833H2.8335V9.91663Z" fill="#028A8B"/>
<path d="M2.8335 13.4166H5.10016V14.5833H2.8335V13.4166Z" fill="#028A8B"/>
<path d="M13.0332 13.4166H15.2999V14.5833H13.0332V13.4166Z" fill="#028A8B"/>
<path d="M6.2334 9.91663H8.50006V11.0833H6.2334V9.91663Z" fill="#028A8B"/>
<path d="M9.6333 9.91663H11.9V11.0833H9.6333V9.91663Z" fill="#028A8B"/>
<path d="M13.0332 9.91663H15.2999V11.0833H13.0332V9.91663Z" fill="#028A8B"/>
<path d="M23.7998 2.91663H24.9331V4.66662H23.7998V2.91663Z" fill="#028A8B"/>
<path d="M21.5332 2.91663H22.6665V4.66662H21.5332V2.91663Z" fill="#028A8B"/>
<path d="M19.2666 2.91663H20.3999V4.66662H19.2666V2.91663Z" fill="#028A8B"/>
<path d="M17 2.91663H18.1333V4.66662H17V2.91663Z" fill="#028A8B"/>
<path d="M24.9336 30.3334H26.0669V31.5H24.9336V30.3334Z" fill="#028A8B"/>
</svg>
