<svg width="185" height="23" viewBox="0 0 185 23" fill="none" xmlns="http://www.w3.org/2000/svg">
<path d="M15.7725 21.2275C15.7725 21.7256 15.5967 22.1406 15.2451 22.4727C14.8936 22.8242 14.4785 23 14 23H13.9561C13.4775 23 13.0625 22.8242 12.7109 22.4727C12.3594 22.1406 12.1836 21.7256 12.1836 21.2275V14.6943H4.2002V21.2275C4.2002 21.7256 4.02441 22.1406 3.67285 22.4727C3.32129 22.8242 2.90625 23 2.42773 23H2.38379C1.90527 23 1.49023 22.8242 1.13867 22.4727C0.787109 22.1406 0.611328 21.7256 0.611328 21.2275V7.69238C0.611328 5.60254 1.35352 3.81543 2.83789 2.33105C4.32227 0.856445 6.10449 0.119141 8.18457 0.119141C10.2744 0.119141 12.0615 0.856445 13.5459 2.33105C15.0303 3.81543 15.7725 5.60254 15.7725 7.69238V21.2275ZM12.1836 11.1201V7.69238C12.1836 6.58887 11.7979 5.64648 11.0264 4.86523C10.2451 4.08398 9.29785 3.69336 8.18457 3.69336C7.08105 3.69336 6.13867 4.08398 5.35742 4.86523C4.58594 5.64648 4.2002 6.58887 4.2002 7.69238V11.1201H12.1836ZM32.0107 0.119141C35.165 0.119141 37.8652 1.2373 40.1113 3.47363C42.3477 5.70996 43.4658 8.40527 43.4658 11.5596C43.4658 14.7139 42.3477 17.4092 40.1113 19.6455C37.8652 21.8818 35.165 23 32.0107 23C28.8564 23 26.1611 21.8818 23.9248 19.6455C21.6885 17.4092 20.5703 14.7139 20.5703 11.5596C20.5703 8.40527 21.6885 5.70996 23.9248 3.47363C26.1611 1.2373 28.8564 0.119141 32.0107 0.119141ZM32.0107 3.69336C29.8428 3.69336 27.9922 4.45996 26.459 5.99316C24.9258 7.52637 24.1592 9.38184 24.1592 11.5596C24.1592 13.7373 24.9258 15.5928 26.459 17.126C27.9922 18.6494 29.8428 19.4111 32.0107 19.4111C34.1885 19.4111 36.0439 18.6494 37.5771 17.126C39.1104 15.5928 39.877 13.7373 39.877 11.5596C39.877 9.38184 39.1104 7.52637 37.5771 5.99316C36.0439 4.45996 34.1885 3.69336 32.0107 3.69336ZM55.8809 11.1934C56.916 11.1934 57.7998 10.832 58.5322 10.1094C59.2646 9.37695 59.6309 8.49316 59.6309 7.45801C59.6309 6.41309 59.2646 5.52441 58.5322 4.79199C57.7998 4.06934 56.916 3.70801 55.8809 3.70801H54.1963C53.4639 3.70801 52.8926 3.9082 52.4824 4.30859C52.1602 4.63086 51.9551 5.01172 51.8672 5.45117C51.8477 5.55859 51.8379 5.72949 51.8379 5.96387V11.1934H55.8809ZM59.6309 18.5176C59.6309 17.4824 59.2646 16.5986 58.5322 15.8662C57.8682 15.1924 57.0771 14.8311 56.1592 14.7822H51.8379V21.2275C51.8379 21.7158 51.667 22.1309 51.3252 22.4727C50.9736 22.8242 50.5537 23 50.0654 23H50.0361C49.5381 23 49.123 22.8242 48.791 22.4727C48.4395 22.1406 48.2637 21.7256 48.2637 21.2275V5.83203C48.2637 4.25977 48.8203 2.91699 49.9336 1.80371C51.0566 0.680664 52.4043 0.119141 53.9766 0.119141H55.8809C57.9023 0.119141 59.626 0.836914 61.0518 2.27246C62.4873 3.70801 63.2051 5.43652 63.2051 7.45801C63.2051 9.46973 62.4873 11.1934 61.0518 12.6289L60.7148 12.9805L61.0664 13.3467C62.4922 14.7725 63.2051 16.4961 63.2051 18.5176V21.2275C63.2051 21.7256 63.0293 22.1406 62.6777 22.4727C62.3262 22.8242 61.9111 23 61.4326 23H61.4033C60.9248 23 60.5098 22.8242 60.1582 22.4727C59.8066 22.1406 59.6309 21.7256 59.6309 21.2275V18.5176ZM82.8564 21.2275C82.8564 21.7256 82.6807 22.1406 82.3291 22.4727C81.9775 22.8242 81.5625 23 81.084 23H81.04C80.5615 23 80.1465 22.8242 79.7949 22.4727C79.4434 22.1406 79.2676 21.7256 79.2676 21.2275V14.6943H71.2842V21.2275C71.2842 21.7256 71.1084 22.1406 70.7568 22.4727C70.4053 22.8242 69.9902 23 69.5117 23H69.4678C68.9893 23 68.5742 22.8242 68.2227 22.4727C67.8711 22.1406 67.6953 21.7256 67.6953 21.2275V7.69238C67.6953 5.60254 68.4375 3.81543 69.9219 2.33105C71.4062 0.856445 73.1885 0.119141 75.2686 0.119141C77.3584 0.119141 79.1455 0.856445 80.6299 2.33105C82.1143 3.81543 82.8564 5.60254 82.8564 7.69238V21.2275ZM79.2676 11.1201V7.69238C79.2676 6.58887 78.8818 5.64648 78.1104 4.86523C77.3291 4.08398 76.3818 3.69336 75.2686 3.69336C74.165 3.69336 73.2227 4.08398 72.4414 4.86523C71.6699 5.64648 71.2842 6.58887 71.2842 7.69238V11.1201H79.2676Z" fill="#00B6B8"/>
<path d="M99.0215 0.119141C99.9883 0.119141 100.936 0.236328 101.863 0.470703C102.762 0.705078 103.211 1.27637 103.211 2.18457V2.22852C103.211 2.80469 102.977 3.27344 102.508 3.63477C102.195 3.87891 101.854 4.00098 101.482 4.00098C101.326 4.00098 101.165 3.98145 100.999 3.94238C100.345 3.77637 99.6855 3.69336 99.0215 3.69336C96.8535 3.69336 95.0029 4.45996 93.4697 5.99316C91.9365 7.52637 91.1699 9.38184 91.1699 11.5596C91.1699 13.7373 91.9365 15.5928 93.4697 17.126C95.0029 18.6494 96.8535 19.4111 99.0215 19.4111C99.6855 19.4111 100.345 19.333 100.999 19.1768C101.165 19.1377 101.326 19.1182 101.482 19.1182C101.854 19.1182 102.195 19.2402 102.508 19.4844C102.977 19.8359 103.211 20.3047 103.211 20.8906V20.9199C103.211 21.8379 102.762 22.4141 101.863 22.6484C100.936 22.8828 99.9883 23 99.0215 23C95.8672 23 93.1719 21.8818 90.9355 19.6455C88.6992 17.4092 87.5811 14.7139 87.5811 11.5596C87.5811 8.40527 88.6992 5.70996 90.9355 3.47363C93.1719 1.2373 95.8672 0.119141 99.0215 0.119141ZM109.957 0.119141C110.436 0.119141 110.851 0.290039 111.202 0.631836C111.554 0.983398 111.729 1.40332 111.729 1.8916V21.2275C111.729 21.7256 111.554 22.1406 111.202 22.4727C110.851 22.8242 110.436 23 109.957 23H109.913C109.435 23 109.02 22.8242 108.668 22.4727C108.316 22.1406 108.141 21.7256 108.141 21.2275V1.8916C108.141 1.40332 108.316 0.983398 108.668 0.631836C109.02 0.290039 109.435 0.119141 109.913 0.119141H109.957ZM125.023 11.1934C126.059 11.1934 126.942 10.832 127.675 10.1094C128.407 9.37695 128.773 8.49316 128.773 7.45801C128.773 6.41309 128.407 5.52441 127.675 4.79199C126.942 4.06934 126.059 3.70801 125.023 3.70801H123.339C122.606 3.70801 122.035 3.9082 121.625 4.30859C121.303 4.63086 121.098 5.01172 121.01 5.45117C120.99 5.55859 120.98 5.72949 120.98 5.96387V11.1934H125.023ZM128.773 18.5176C128.773 17.4824 128.407 16.5986 127.675 15.8662C127.011 15.1924 126.22 14.8311 125.302 14.7822H120.98V21.2275C120.98 21.7158 120.81 22.1309 120.468 22.4727C120.116 22.8242 119.696 23 119.208 23H119.179C118.681 23 118.266 22.8242 117.934 22.4727C117.582 22.1406 117.406 21.7256 117.406 21.2275V5.83203C117.406 4.25977 117.963 2.91699 119.076 1.80371C120.199 0.680664 121.547 0.119141 123.119 0.119141H125.023C127.045 0.119141 128.769 0.836914 130.194 2.27246C131.63 3.70801 132.348 5.43652 132.348 7.45801C132.348 9.46973 131.63 11.1934 130.194 12.6289L129.857 12.9805L130.209 13.3467C131.635 14.7725 132.348 16.4961 132.348 18.5176V21.2275C132.348 21.7256 132.172 22.1406 131.82 22.4727C131.469 22.8242 131.054 23 130.575 23H130.546C130.067 23 129.652 22.8242 129.301 22.4727C128.949 22.1406 128.773 21.7256 128.773 21.2275V18.5176ZM147.766 0.119141C148.732 0.119141 149.68 0.236328 150.607 0.470703C151.506 0.705078 151.955 1.27637 151.955 2.18457V2.22852C151.955 2.80469 151.721 3.27344 151.252 3.63477C150.939 3.87891 150.598 4.00098 150.227 4.00098C150.07 4.00098 149.909 3.98145 149.743 3.94238C149.089 3.77637 148.43 3.69336 147.766 3.69336C145.598 3.69336 143.747 4.45996 142.214 5.99316C140.681 7.52637 139.914 9.38184 139.914 11.5596C139.914 13.7373 140.681 15.5928 142.214 17.126C143.747 18.6494 145.598 19.4111 147.766 19.4111C148.43 19.4111 149.089 19.333 149.743 19.1768C149.909 19.1377 150.07 19.1182 150.227 19.1182C150.598 19.1182 150.939 19.2402 151.252 19.4844C151.721 19.8359 151.955 20.3047 151.955 20.8906V20.9199C151.955 21.8379 151.506 22.4141 150.607 22.6484C149.68 22.8828 148.732 23 147.766 23C144.611 23 141.916 21.8818 139.68 19.6455C137.443 17.4092 136.325 14.7139 136.325 11.5596C136.325 8.40527 137.443 5.70996 139.68 3.47363C141.916 1.2373 144.611 0.119141 147.766 0.119141ZM160.181 17.6533C160.181 18.1416 160.352 18.5566 160.693 18.8984C161.035 19.2402 161.45 19.4111 161.938 19.4111H166.201C166.689 19.4111 167.109 19.5869 167.461 19.9385C167.812 20.29 167.988 20.71 167.988 21.1982V21.2275C167.988 21.7256 167.812 22.1406 167.461 22.4727C167.109 22.8242 166.689 23 166.201 23H161.938C160.464 23 159.204 22.4775 158.159 21.4326C157.114 20.3877 156.592 19.1279 156.592 17.6533V1.8916C156.592 1.40332 156.768 0.983398 157.119 0.631836C157.471 0.290039 157.886 0.119141 158.364 0.119141H158.408C158.887 0.119141 159.302 0.290039 159.653 0.631836C160.005 0.983398 160.181 1.40332 160.181 1.8916V17.6533ZM175.335 9.77246H182.322C182.801 9.77246 183.216 9.94336 183.567 10.2852C183.919 10.6367 184.095 11.0566 184.095 11.5449V11.5742C184.095 12.0625 183.919 12.4824 183.567 12.834C183.216 13.1758 182.801 13.3467 182.322 13.3467H175.335V17.6533C175.335 18.1416 175.506 18.5566 175.848 18.8984C176.189 19.2402 176.604 19.4111 177.093 19.4111H182.322C182.801 19.4111 183.216 19.5869 183.567 19.9385C183.919 20.29 184.095 20.71 184.095 21.1982V21.2275C184.095 21.7256 183.919 22.1406 183.567 22.4727C183.216 22.8242 182.801 23 182.322 23H177.093C175.618 23 174.358 22.4775 173.313 21.4326C172.269 20.3877 171.746 19.1279 171.746 17.6533V5.46582C171.746 3.99121 172.269 2.73145 173.313 1.68652C174.358 0.641602 175.618 0.119141 177.093 0.119141H182.322C182.801 0.119141 183.216 0.294922 183.567 0.646484C183.919 0.978516 184.095 1.39355 184.095 1.8916V1.9209C184.095 2.40918 183.919 2.8291 183.567 3.18066C183.216 3.53223 182.801 3.70801 182.322 3.70801H177.093C176.604 3.70801 176.189 3.87891 175.848 4.2207C175.506 4.5625 175.335 4.97754 175.335 5.46582V9.77246Z" fill="#EE436A"/>
</svg>
