<svg width="34" height="35" viewBox="0 0 34 35" fill="none" xmlns="http://www.w3.org/2000/svg">
<path d="M0.456299 0.712646H32.9226V18.7182L31.3156 21.2978L32.9226 23.5936V34.0667H0.456299V17.093L1.46067 15.9064L0.456299 14.7714V0.712646Z" fill="#016FD0"/>
<path d="M6.75879 23.9538V18.7173H12.1558L12.7348 19.4928L13.333 18.7173H32.9227V23.5927C32.9227 23.5927 32.4104 23.9486 31.8179 23.9538H20.9706L20.3178 23.1284V23.9538H18.1785V22.5447C18.1785 22.5447 17.8863 22.7414 17.2545 22.7414H16.5263V23.9538H13.2872L12.709 23.1617L12.1219 23.9538H6.75879Z" fill="white"/>
<path d="M0.456299 14.7711L1.67334 11.8562H3.77808L4.46876 13.489V11.8562H7.08515L7.49632 13.0364L7.89493 11.8562H19.6398V12.4495C19.6398 12.4495 20.2572 11.8562 21.2719 11.8562L25.0827 11.8699L25.7614 13.4813V11.8562H27.951L28.5536 12.7818V11.8562H30.7632V17.0927H28.5536L27.9761 16.1641V17.0927H24.7592L24.4357 16.2673H23.5709L23.2526 17.0927H21.071C20.1979 17.0927 19.6398 16.5116 19.6398 16.5116V17.0927H16.3505L15.6976 16.2673V17.0927H3.46628L3.14299 16.2673H2.28094L1.95994 17.0927H0.456299V14.7711Z" fill="white"/>
<path d="M2.10393 12.5022L0.462402 16.4232H1.53112L1.834 15.638H3.5948L3.89611 16.4232H4.98837L3.34841 12.5022H2.10393ZM2.71126 13.4147L3.24798 14.7867H2.17298L2.71126 13.4147Z" fill="#016FD0"/>
<path d="M5.10083 16.4232V12.5022L6.61954 12.508L7.50287 15.036L8.36505 12.5022H9.87161V16.4232H8.91746V13.534L7.90603 16.4232H7.06923L6.05499 13.534V16.4232H5.10083Z" fill="#016FD0"/>
<path d="M10.5256 16.4232V12.5022H13.6392V13.3793H11.4898V14.0499H13.589V14.8754H11.4898V15.5719H13.6392V16.4232H10.5256Z" fill="#016FD0"/>
<path d="M14.1912 12.5022V16.4232H15.1453V15.0302H15.5471L16.6911 16.4232H17.8571L16.6017 14.9786C17.1169 14.9339 17.6484 14.4796 17.6484 13.7743C17.6484 12.9491 17.018 12.5022 16.3145 12.5022H14.1912ZM15.1453 13.3793H16.236C16.4976 13.3793 16.688 13.5895 16.688 13.792C16.688 14.0525 16.4414 14.2047 16.2501 14.2047H15.1453V13.3793Z" fill="#016FD0"/>
<path d="M19.0123 16.4232H18.0381V12.5022H19.0123V16.4232Z" fill="#016FD0"/>
<path d="M21.3221 16.4232H21.1118C20.0943 16.4232 19.4766 15.5996 19.4766 14.4788C19.4766 13.3303 20.0874 12.5022 21.3723 12.5022H22.4269V13.4308H21.3337C20.8121 13.4308 20.4433 13.849 20.4433 14.4885C20.4433 15.2478 20.8651 15.5667 21.4727 15.5667H21.7238L21.3221 16.4232Z" fill="#016FD0"/>
<path d="M23.3984 12.5022L21.7568 16.4232H22.8256L23.1284 15.638H24.8892L25.1905 16.4232H26.2828L24.6428 12.5022H23.3984ZM24.0057 13.4147L24.5424 14.7867H23.4674L24.0057 13.4147Z" fill="#016FD0"/>
<path d="M26.394 16.4232V12.5022H27.6072L29.1561 14.9657V12.5022H30.1103V16.4232H28.9364L27.3482 13.8952V16.4232H26.394Z" fill="#016FD0"/>
<path d="M7.41187 23.2832V19.3623H10.5254V20.2394H8.37605V20.91H10.4752V21.7355H8.37605V22.432H10.5254V23.2832H7.41187Z" fill="#016FD0"/>
<path d="M22.6682 23.2832V19.3623H25.7818V20.2394H23.6324V20.91H25.7215V21.7355H23.6324V22.432H25.7818V23.2832H22.6682Z" fill="#016FD0"/>
<path d="M10.646 23.2832L12.1619 21.347L10.6099 19.3623H11.812L12.7363 20.5892L13.6638 19.3623H14.8188L13.2871 21.3228L14.8059 23.2832H13.604L12.7065 22.0757L11.8308 23.2832H10.646Z" fill="#016FD0"/>
<path d="M14.9189 19.3633V23.2842H15.8982V22.046H16.9026C17.7524 22.046 18.3966 21.5829 18.3966 20.6821C18.3966 19.9359 17.8914 19.3633 17.0266 19.3633H14.9189ZM15.8982 20.25H16.9559C17.2305 20.25 17.4267 20.4229 17.4267 20.7014C17.4267 20.9631 17.2315 21.1529 16.9528 21.1529H15.8982V20.25Z" fill="#016FD0"/>
<path d="M18.811 19.3623V23.2832H19.7652V21.8903H20.1669L21.311 23.2832H22.477L21.2215 21.8387C21.7368 21.794 22.2683 21.3397 22.2683 20.6343C22.2683 19.8093 21.6379 19.3623 20.9344 19.3623H18.811ZM19.7652 20.2394H20.8559C21.1175 20.2394 21.3079 20.4496 21.3079 20.6521C21.3079 20.9126 21.0613 21.0648 20.87 21.0648H19.7652V20.2394Z" fill="#016FD0"/>
<path d="M26.2242 23.2832V22.432H28.1337C28.4163 22.432 28.5386 22.2751 28.5386 22.1031C28.5386 21.9383 28.4167 21.7716 28.1337 21.7716H27.2708C26.5208 21.7716 26.103 21.3021 26.103 20.5973C26.103 19.9686 26.4856 19.3623 27.6002 19.3623H29.4583L29.0565 20.2445H27.4495C27.1423 20.2445 27.0478 20.4101 27.0478 20.5683C27.0478 20.7308 27.1646 20.91 27.3993 20.91H28.3032C29.1394 20.91 29.5022 21.3973 29.5022 22.0354C29.5022 22.7214 29.0979 23.2832 28.2577 23.2832H26.2242Z" fill="#016FD0"/>
<path d="M29.7254 23.2832V22.432H31.635C31.9175 22.432 32.0398 22.2751 32.0398 22.1031C32.0398 21.9383 31.9179 21.7716 31.635 21.7716H30.7721C30.022 21.7716 29.6042 21.3021 29.6042 20.5973C29.6042 19.9686 29.9868 19.3623 31.1014 19.3623H32.9595L32.5577 20.2445H30.9507C30.6435 20.2445 30.549 20.4101 30.549 20.5683C30.549 20.7308 30.6658 20.91 30.9005 20.91H31.8045C32.6406 20.91 33.0034 21.3973 33.0034 22.0354C33.0034 22.7214 32.5991 23.2832 31.7589 23.2832H29.7254Z" fill="#016FD0"/>
</svg>
