<svg width="63" height="61" viewBox="0 0 63 61" fill="none" xmlns="http://www.w3.org/2000/svg">
<ellipse cx="31.5" cy="30.5" rx="31.5" ry="30.5" fill="#D8D8D8"/>
<mask id="path-2-inside-1" fill="white">
<path d="M33.6105 41.0429C33.2928 40.92 32.9317 41.0689 32.8043 41.3755C32.6978 41.6316 32.4279 41.8037 32.1326 41.8037H29.8674C29.5722 41.8037 29.3022 41.6316 29.1957 41.3755C29.0683 41.0689 28.7074 40.9203 28.3895 41.0429C28.0717 41.1658 27.9173 41.5139 28.0447 41.8205C28.3425 42.5369 29.0579 42.9998 29.8674 42.9998H32.1326C32.9421 42.9998 33.6575 42.5369 33.9553 41.8205C34.0828 41.5139 33.9284 41.1658 33.6105 41.0429Z"/>
</mask>
<path d="M33.6105 41.0429C33.2928 40.92 32.9317 41.0689 32.8043 41.3755C32.6978 41.6316 32.4279 41.8037 32.1326 41.8037H29.8674C29.5722 41.8037 29.3022 41.6316 29.1957 41.3755C29.0683 41.0689 28.7074 40.9203 28.3895 41.0429C28.0717 41.1658 27.9173 41.5139 28.0447 41.8205C28.3425 42.5369 29.0579 42.9998 29.8674 42.9998H32.1326C32.9421 42.9998 33.6575 42.5369 33.9553 41.8205C34.0828 41.5139 33.9284 41.1658 33.6105 41.0429Z" fill="white"/>
<path d="M33.6105 41.0429L34.6929 38.2449L34.6928 38.2449L33.6105 41.0429ZM32.8043 41.3755L35.5745 42.5269L35.5746 42.5268L32.8043 41.3755ZM29.1957 41.3755L26.4254 42.5268L26.4255 42.5269L29.1957 41.3755ZM28.3895 41.0429L27.3101 38.2438L27.3071 38.2449L28.3895 41.0429ZM28.0447 41.8205L25.2745 42.9719L25.2745 42.972L28.0447 41.8205ZM33.9553 41.8205L31.1853 40.6685L31.185 40.6691L33.9553 41.8205ZM34.6928 38.2449C32.9234 37.5605 30.8132 38.3492 30.034 40.2242L35.5746 42.5268C35.0502 43.7885 33.6622 44.2794 32.5283 43.8408L34.6928 38.2449ZM30.0341 40.224C30.4307 39.2697 31.3177 38.8037 32.1326 38.8037V44.8037C33.538 44.8037 34.9649 43.9935 35.5745 42.5269L30.0341 40.224ZM32.1326 38.8037H29.8674V44.8037H32.1326V38.8037ZM29.8674 38.8037C30.6823 38.8037 31.5693 39.2697 31.966 40.224L26.4255 42.5269C27.0351 43.9935 28.462 44.8037 29.8674 44.8037V38.8037ZM31.966 40.2242C31.1859 38.347 29.0756 37.5629 27.3101 38.2438L29.4689 43.8419C28.3392 44.2776 26.9507 43.7908 26.4254 42.5268L31.966 40.2242ZM27.3071 38.2449C25.4895 38.948 24.4704 41.0375 25.2745 42.9719L30.8149 40.669C31.3641 41.9904 30.6538 43.3836 29.4719 43.8408L27.3071 38.2449ZM25.2745 42.972C26.0634 44.8698 27.9147 45.9998 29.8674 45.9998V39.9998C30.2011 39.9998 30.6216 40.204 30.8149 40.6689L25.2745 42.972ZM29.8674 45.9998H32.1326V39.9998H29.8674V45.9998ZM32.1326 45.9998C34.0853 45.9998 35.9367 44.8698 36.7256 42.9718L31.185 40.6691C31.3783 40.2039 31.799 39.9998 32.1326 39.9998V45.9998ZM36.7253 42.9724C37.5299 41.0377 36.5104 38.948 34.6929 38.2449L32.5282 43.8408C31.3463 43.3836 30.6356 41.9902 31.1853 40.6685L36.7253 42.9724Z" fill="#EE436A" mask="url(#path-2-inside-1)"/>
<mask id="path-4-inside-2" fill="white">
<path d="M39.9493 38.7246C39.7969 38.0134 39.3129 37.3976 38.6211 37.034C38.747 36.941 38.865 36.8381 38.9727 36.7248C39.5039 36.1659 39.7392 35.4272 39.618 34.6982C39.4212 33.5136 38.8643 32.4068 38.0077 31.4974C37.3663 30.8165 36.578 30.2678 35.6957 29.8822C36.7754 28.8394 37.4378 27.4382 37.4378 25.8994C37.4377 23.2364 35.455 20.9848 32.7559 20.2911C33.1235 19.8937 33.3241 19.3972 33.3241 18.8725C33.3242 17.8399 32.3963 16.9999 31.2558 16.9999C31.2558 16.9999 31.2557 16.9999 31.2557 16.9999C30.7953 16.9999 30.3641 17.1354 30.0416 17.3815C29.6852 17.6534 29.4889 18.0356 29.4889 18.4576C29.4889 18.738 29.74 18.9654 30.0498 18.9654C30.3596 18.9654 30.6108 18.7381 30.6108 18.4576C30.6108 18.3367 30.6625 18.236 30.7646 18.1581C30.8851 18.0662 31.0595 18.0156 31.2557 18.0156H31.2558C31.7777 18.0156 32.2023 18.3999 32.2023 18.8724C32.2023 19.1925 32.0647 19.4934 31.8147 19.7197C31.5647 19.9459 31.2325 20.0706 30.8791 20.0706C30.8791 20.0706 30.8791 20.0706 30.879 20.0706C30.8653 20.0706 30.8518 20.0715 30.8383 20.0724C27.363 20.1504 24.5623 22.7343 24.5622 25.8993C24.5622 27.4381 25.2246 28.8393 26.3043 29.8822C25.4221 30.2678 24.6337 30.8164 23.9924 31.4974C23.1357 32.4068 22.5789 33.5136 22.382 34.6981C22.2608 35.4272 22.496 36.1659 23.0273 36.7247C23.135 36.838 23.253 36.941 23.3789 37.0339C22.687 37.3976 22.203 38.0133 22.0507 38.7245C21.898 39.4376 22.094 40.1747 22.5883 40.7467L23.7896 42.1364C24.2749 42.698 25.0121 42.9999 25.7599 42.9999C26.1844 42.9999 26.6124 42.9026 26.9996 42.7002C28.0688 42.1413 28.527 40.938 28.0654 39.9014L27.3367 38.2646C27.288 38.1553 27.2304 38.0504 27.1662 37.9496H31.2805C31.5903 37.9496 31.8414 37.7222 31.8414 37.4418C31.8414 37.1613 31.5903 36.9339 31.2805 36.9339H26.0999V35.8633C26.0999 35.7254 26.2237 35.6132 26.376 35.6132H35.624C35.7763 35.6132 35.9002 35.7254 35.9002 35.8633V37.0041C35.3436 37.2804 34.9042 37.7234 34.6633 38.2646L33.9346 39.9013C33.473 40.938 33.9311 42.1413 35.0003 42.7002C35.3876 42.9026 35.8154 42.9999 36.24 42.9999C36.9877 42.9999 37.7251 42.6979 38.2104 42.1364L39.4116 40.7467C39.9061 40.1747 40.102 39.4376 39.9493 38.7246ZM25.684 25.8994C25.6841 23.2455 28.0689 21.0864 31 21.0863C33.9311 21.0864 36.3159 23.2455 36.316 25.8994C36.316 28.5532 33.9312 30.7123 31 30.7124C28.0688 30.7123 25.684 28.5532 25.684 25.8994ZM26.2963 38.6444L27.025 40.2812C27.2788 40.8514 27.0268 41.5132 26.4387 41.8206C25.8507 42.128 25.0916 41.9948 24.6731 41.5106L23.4719 40.1208C23.1778 39.7805 23.0612 39.3422 23.1521 38.918C23.2429 38.4938 23.5321 38.1266 23.9454 37.9106C24.3586 37.6945 24.8545 37.6515 25.3056 37.7922C25.7568 37.9331 26.1179 38.2437 26.2963 38.6444ZM35.6277 33.5818C35.3179 33.5818 35.0668 33.8092 35.0668 34.0897V34.5975H26.9369V34.0897C26.9369 33.8092 26.6858 33.5818 26.376 33.5818C26.0661 33.5818 25.815 33.8092 25.815 34.0897V34.7042C25.3227 34.9003 24.9779 35.3459 24.9779 35.8633V36.5805C24.5531 36.542 24.159 36.3581 23.8775 36.0621C23.5596 35.7277 23.4189 35.2856 23.4914 34.8493C23.8125 32.9167 25.2357 31.3199 27.2337 30.6235C28.2935 31.318 29.5947 31.7281 31 31.7281C32.4053 31.7281 33.7065 31.318 34.7663 30.6235C36.7643 31.3199 38.1875 32.9167 38.5086 34.8493C38.5811 35.2856 38.4403 35.7277 38.1224 36.0621C37.841 36.3581 37.4468 36.542 37.022 36.5805V35.8633C37.022 35.3473 36.679 34.9026 36.1887 34.7058V34.0897C36.1887 33.8092 35.9376 33.5818 35.6277 33.5818ZM38.5281 40.1207L37.3269 41.5105C36.9084 41.9947 36.1494 42.1279 35.5613 41.8206C34.9732 41.5131 34.7212 40.8513 34.9751 40.2811L35.7038 38.6443C35.8822 38.2436 36.2433 37.933 36.6945 37.7921C36.8692 37.7376 37.0506 37.7107 37.2314 37.7107C37.5173 37.7107 37.8015 37.7782 38.0547 37.9105C38.468 38.1266 38.7571 38.4938 38.848 38.9179C38.9388 39.3421 38.8222 39.7805 38.5281 40.1207Z"/>
</mask>
<path d="M39.9493 38.7246C39.7969 38.0134 39.3129 37.3976 38.6211 37.034C38.747 36.941 38.865 36.8381 38.9727 36.7248C39.5039 36.1659 39.7392 35.4272 39.618 34.6982C39.4212 33.5136 38.8643 32.4068 38.0077 31.4974C37.3663 30.8165 36.578 30.2678 35.6957 29.8822C36.7754 28.8394 37.4378 27.4382 37.4378 25.8994C37.4377 23.2364 35.455 20.9848 32.7559 20.2911C33.1235 19.8937 33.3241 19.3972 33.3241 18.8725C33.3242 17.8399 32.3963 16.9999 31.2558 16.9999C31.2558 16.9999 31.2557 16.9999 31.2557 16.9999C30.7953 16.9999 30.3641 17.1354 30.0416 17.3815C29.6852 17.6534 29.4889 18.0356 29.4889 18.4576C29.4889 18.738 29.74 18.9654 30.0498 18.9654C30.3596 18.9654 30.6108 18.7381 30.6108 18.4576C30.6108 18.3367 30.6625 18.236 30.7646 18.1581C30.8851 18.0662 31.0595 18.0156 31.2557 18.0156H31.2558C31.7777 18.0156 32.2023 18.3999 32.2023 18.8724C32.2023 19.1925 32.0647 19.4934 31.8147 19.7197C31.5647 19.9459 31.2325 20.0706 30.8791 20.0706C30.8791 20.0706 30.8791 20.0706 30.879 20.0706C30.8653 20.0706 30.8518 20.0715 30.8383 20.0724C27.363 20.1504 24.5623 22.7343 24.5622 25.8993C24.5622 27.4381 25.2246 28.8393 26.3043 29.8822C25.4221 30.2678 24.6337 30.8164 23.9924 31.4974C23.1357 32.4068 22.5789 33.5136 22.382 34.6981C22.2608 35.4272 22.496 36.1659 23.0273 36.7247C23.135 36.838 23.253 36.941 23.3789 37.0339C22.687 37.3976 22.203 38.0133 22.0507 38.7245C21.898 39.4376 22.094 40.1747 22.5883 40.7467L23.7896 42.1364C24.2749 42.698 25.0121 42.9999 25.7599 42.9999C26.1844 42.9999 26.6124 42.9026 26.9996 42.7002C28.0688 42.1413 28.527 40.938 28.0654 39.9014L27.3367 38.2646C27.288 38.1553 27.2304 38.0504 27.1662 37.9496H31.2805C31.5903 37.9496 31.8414 37.7222 31.8414 37.4418C31.8414 37.1613 31.5903 36.9339 31.2805 36.9339H26.0999V35.8633C26.0999 35.7254 26.2237 35.6132 26.376 35.6132H35.624C35.7763 35.6132 35.9002 35.7254 35.9002 35.8633V37.0041C35.3436 37.2804 34.9042 37.7234 34.6633 38.2646L33.9346 39.9013C33.473 40.938 33.9311 42.1413 35.0003 42.7002C35.3876 42.9026 35.8154 42.9999 36.24 42.9999C36.9877 42.9999 37.7251 42.6979 38.2104 42.1364L39.4116 40.7467C39.9061 40.1747 40.102 39.4376 39.9493 38.7246ZM25.684 25.8994C25.6841 23.2455 28.0689 21.0864 31 21.0863C33.9311 21.0864 36.3159 23.2455 36.316 25.8994C36.316 28.5532 33.9312 30.7123 31 30.7124C28.0688 30.7123 25.684 28.5532 25.684 25.8994ZM26.2963 38.6444L27.025 40.2812C27.2788 40.8514 27.0268 41.5132 26.4387 41.8206C25.8507 42.128 25.0916 41.9948 24.6731 41.5106L23.4719 40.1208C23.1778 39.7805 23.0612 39.3422 23.1521 38.918C23.2429 38.4938 23.5321 38.1266 23.9454 37.9106C24.3586 37.6945 24.8545 37.6515 25.3056 37.7922C25.7568 37.9331 26.1179 38.2437 26.2963 38.6444ZM35.6277 33.5818C35.3179 33.5818 35.0668 33.8092 35.0668 34.0897V34.5975H26.9369V34.0897C26.9369 33.8092 26.6858 33.5818 26.376 33.5818C26.0661 33.5818 25.815 33.8092 25.815 34.0897V34.7042C25.3227 34.9003 24.9779 35.3459 24.9779 35.8633V36.5805C24.5531 36.542 24.159 36.3581 23.8775 36.0621C23.5596 35.7277 23.4189 35.2856 23.4914 34.8493C23.8125 32.9167 25.2357 31.3199 27.2337 30.6235C28.2935 31.318 29.5947 31.7281 31 31.7281C32.4053 31.7281 33.7065 31.318 34.7663 30.6235C36.7643 31.3199 38.1875 32.9167 38.5086 34.8493C38.5811 35.2856 38.4403 35.7277 38.1224 36.0621C37.841 36.3581 37.4468 36.542 37.022 36.5805V35.8633C37.022 35.3473 36.679 34.9026 36.1887 34.7058V34.0897C36.1887 33.8092 35.9376 33.5818 35.6277 33.5818ZM38.5281 40.1207L37.3269 41.5105C36.9084 41.9947 36.1494 42.1279 35.5613 41.8206C34.9732 41.5131 34.7212 40.8513 34.9751 40.2811L35.7038 38.6443C35.8822 38.2436 36.2433 37.933 36.6945 37.7921C36.8692 37.7376 37.0506 37.7107 37.2314 37.7107C37.5173 37.7107 37.8015 37.7782 38.0547 37.9105C38.468 38.1266 38.7571 38.4938 38.848 38.9179C38.9388 39.3421 38.8222 39.7805 38.5281 40.1207Z" fill="white"/>
<path d="M39.9493 38.7246L37.0158 39.353V39.353L39.9493 38.7246ZM38.6211 37.034L36.8374 34.6219L32.9929 37.4648L37.2253 39.6895L38.6211 37.034ZM38.9727 36.7248L36.7985 34.6577L36.7983 34.6579L38.9727 36.7248ZM39.618 34.6982L36.6586 35.19L36.6586 35.1903L39.618 34.6982ZM38.0077 31.4974L40.1915 29.4405L40.1914 29.4404L38.0077 31.4974ZM35.6957 29.8822L33.6115 27.7244L30.3888 30.837L34.4944 32.6312L35.6957 29.8822ZM37.4378 25.8994H40.4378V25.8993L37.4378 25.8994ZM32.7559 20.2911L30.5537 18.2538L27.1391 21.945L32.0091 23.1966L32.7559 20.2911ZM33.3241 18.8725L30.3241 18.8724V18.8725H33.3241ZM30.0416 17.3815L31.8613 19.7666L31.8614 19.7665L30.0416 17.3815ZM29.4889 18.4576L26.4889 18.4572V18.4576H29.4889ZM30.7646 18.1581L28.9449 15.773L28.9446 15.7732L30.7646 18.1581ZM31.8147 19.7197L33.828 21.9438L33.8282 21.9436L31.8147 19.7197ZM30.8383 20.0724L30.9057 23.0717L30.9737 23.0702L31.0416 23.0655L30.8383 20.0724ZM24.5622 25.8993L21.5622 25.8993V25.8993H24.5622ZM26.3043 29.8822L27.5057 32.6311L31.6111 30.8369L28.3885 27.7243L26.3043 29.8822ZM23.9924 31.4974L26.1762 33.5543L26.1762 33.5543L23.9924 31.4974ZM22.382 34.6981L19.4226 34.2062L19.4226 34.2063L22.382 34.6981ZM23.0273 36.7247L25.2017 34.6578L25.2015 34.6576L23.0273 36.7247ZM23.3789 37.0339L24.7747 39.6894L29.0083 37.4641L25.162 34.6214L23.3789 37.0339ZM22.0507 38.7245L24.9842 39.3529L24.9842 39.3527L22.0507 38.7245ZM22.5883 40.7467L20.3185 42.7083L20.3186 42.7084L22.5883 40.7467ZM23.7896 42.1364L26.0593 40.1747L26.0592 40.1747L23.7896 42.1364ZM26.9996 42.7002L25.6098 40.0415L25.6098 40.0415L26.9996 42.7002ZM28.0654 39.9014L25.3247 41.1216L25.3248 41.1217L28.0654 39.9014ZM27.3367 38.2646L30.0773 37.0444L30.0772 37.0443L27.3367 38.2646ZM27.1662 37.9496V34.9496H21.6963L24.6364 39.5622L27.1662 37.9496ZM26.0999 36.9339H23.0999V39.9339H26.0999V36.9339ZM35.9002 37.0041L37.2339 39.6914L38.9002 38.8644V37.0041H35.9002ZM34.6633 38.2646L31.9227 37.0443L31.9226 37.0444L34.6633 38.2646ZM33.9346 39.9013L36.6752 41.1216L36.6752 41.1215L33.9346 39.9013ZM35.0003 42.7002L33.6106 45.3589L33.6107 45.3589L35.0003 42.7002ZM38.2104 42.1364L40.48 44.0983L40.4801 44.0982L38.2104 42.1364ZM39.4116 40.7467L37.142 38.7848L37.1419 38.7849L39.4116 40.7467ZM25.684 25.8994L22.684 25.8993V25.8994H25.684ZM31 21.0863L31 18.0863H30.9999L31 21.0863ZM36.316 25.8994H39.316V25.8993L36.316 25.8994ZM31 30.7124L30.9999 33.7124H31L31 30.7124ZM26.2963 38.6444L29.037 37.4242L29.0368 37.4239L26.2963 38.6444ZM27.025 40.2812L29.7657 39.0611L29.7657 39.061L27.025 40.2812ZM26.4387 41.8206L25.0488 39.162L25.0487 39.162L26.4387 41.8206ZM24.6731 41.5106L26.9429 39.5489L26.9428 39.5488L24.6731 41.5106ZM23.4719 40.1208L25.7415 38.159L25.7414 38.1589L23.4719 40.1208ZM23.9454 37.9106L25.3352 40.5692L25.3353 40.5692L23.9454 37.9106ZM25.3056 37.7922L26.1995 34.9285L26.199 34.9283L25.3056 37.7922ZM35.0668 34.5975V37.5975H38.0668V34.5975H35.0668ZM26.9369 34.5975H23.9369V37.5975H26.9369V34.5975ZM25.815 34.7042L26.9251 37.4913L28.815 36.7386V34.7042H25.815ZM24.9779 36.5805L24.7075 39.5683L27.9779 39.8642V36.5805H24.9779ZM23.8775 36.0621L21.7031 38.1289L21.7034 38.1292L23.8775 36.0621ZM23.4914 34.8493L20.532 34.3575L20.5319 34.3577L23.4914 34.8493ZM27.2337 30.6235L28.8781 28.1143L27.6419 27.3042L26.2464 27.7907L27.2337 30.6235ZM34.7663 30.6235L35.7536 27.7907L34.3581 27.3042L33.1219 28.1143L34.7663 30.6235ZM38.5086 34.8493L41.4681 34.3577L41.468 34.3575L38.5086 34.8493ZM38.1224 36.0621L35.9482 33.995L35.9481 33.9951L38.1224 36.0621ZM37.022 36.5805H34.022V39.8642L37.2924 39.5683L37.022 36.5805ZM36.1887 34.7058H33.1887V36.7341L35.071 37.4898L36.1887 34.7058ZM38.5281 40.1207L36.2586 38.1588L36.2584 38.159L38.5281 40.1207ZM37.3269 41.5105L39.5965 43.4724L39.5967 43.4722L37.3269 41.5105ZM35.5613 41.8206L34.1716 44.4792L34.1717 44.4793L35.5613 41.8206ZM34.9751 40.2811L32.2344 39.0609L32.2344 39.0609L34.9751 40.2811ZM35.7038 38.6443L32.9632 37.4239L32.9632 37.4241L35.7038 38.6443ZM36.6945 37.7921L35.8013 34.9282L35.8006 34.9284L36.6945 37.7921ZM38.0547 37.9105L39.4445 35.2519L39.4444 35.2518L38.0547 37.9105ZM38.848 38.9179L41.7816 38.2902L41.7814 38.2891L38.848 38.9179ZM42.8827 38.0962C42.5285 36.4424 41.4289 35.1206 40.017 34.3785L37.2253 39.6895C37.197 39.6746 37.0654 39.5843 37.0158 39.353L42.8827 38.0962ZM40.4049 39.4461C40.6595 39.2578 40.9102 39.0408 41.1471 38.7916L36.7983 34.6579C36.8197 34.6353 36.8344 34.6241 36.8374 34.6219L40.4049 39.4461ZM41.1469 38.7918C42.2941 37.5852 42.8607 35.9104 42.5774 34.2061L36.6586 35.1903C36.64 35.0785 36.6496 34.965 36.6815 34.865C36.7129 34.7661 36.7603 34.6978 36.7985 34.6577L41.1469 38.7918ZM42.5774 34.2064C42.2789 32.4101 41.4387 30.7646 40.1915 29.4405L35.8239 33.5543C36.2899 34.0491 36.5634 34.6172 36.6586 35.19L42.5774 34.2064ZM40.1914 29.4404C39.2607 28.4523 38.1339 27.6738 36.897 27.1333L34.4944 32.6312C35.0221 32.8618 35.4719 33.1807 35.8239 33.5544L40.1914 29.4404ZM37.7798 32.0401C39.3854 30.4894 40.4378 28.331 40.4378 25.8994H34.4378C34.4378 26.5453 34.1655 27.1894 33.6115 27.7244L37.7798 32.0401ZM40.4378 25.8993C40.4377 21.6524 37.3078 18.3635 33.5027 17.3855L32.0091 23.1966C33.6021 23.6061 34.4378 24.8204 34.4378 25.8994L40.4378 25.8993ZM34.9581 22.3283C35.8135 21.4036 36.3241 20.1887 36.3241 18.8725H30.3241C30.3241 18.6057 30.4336 18.3837 30.5537 18.2538L34.9581 22.3283ZM36.3241 18.8727C36.3243 15.9095 33.7655 13.9999 31.2558 13.9999V19.9999C31.0887 19.9999 30.8864 19.9379 30.7042 19.7729C30.5175 19.6039 30.3241 19.2898 30.3241 18.8724L36.3241 18.8727ZM31.2558 13.9999C31.2558 13.9999 31.2558 13.9999 31.2558 13.9999H31.2558H31.2558H31.2558H31.2558C31.2558 13.9999 31.2558 13.9999 31.2558 13.9999C31.2558 13.9999 31.2558 13.9999 31.2558 13.9999C31.2558 13.9999 31.2558 13.9999 31.2558 13.9999C31.2558 13.9999 31.2558 13.9999 31.2558 13.9999C31.2558 13.9999 31.2558 13.9999 31.2558 13.9999C31.2558 13.9999 31.2558 13.9999 31.2558 13.9999C31.2558 13.9999 31.2558 13.9999 31.2558 13.9999H31.2558H31.2558H31.2558C31.2558 13.9999 31.2558 13.9999 31.2558 13.9999C31.2558 13.9999 31.2558 13.9999 31.2558 13.9999C31.2558 13.9999 31.2558 13.9999 31.2558 13.9999C31.2558 13.9999 31.2558 13.9999 31.2558 13.9999C31.2558 13.9999 31.2558 13.9999 31.2558 13.9999C31.2558 13.9999 31.2558 13.9999 31.2558 13.9999C31.2558 13.9999 31.2558 13.9999 31.2558 13.9999C31.2558 13.9999 31.2558 13.9999 31.2558 13.9999H31.2558H31.2558H31.2558C31.2558 13.9999 31.2558 13.9999 31.2558 13.9999C31.2558 13.9999 31.2558 13.9999 31.2558 13.9999C31.2558 13.9999 31.2558 13.9999 31.2558 13.9999C31.2558 13.9999 31.2558 13.9999 31.2558 13.9999C31.2558 13.9999 31.2558 13.9999 31.2558 13.9999C31.2558 13.9999 31.2558 13.9999 31.2558 13.9999C31.2558 13.9999 31.2558 13.9999 31.2558 13.9999H31.2558H31.2558H31.2558H31.2558C31.2558 13.9999 31.2558 13.9999 31.2558 13.9999C31.2558 13.9999 31.2558 13.9999 31.2558 13.9999C31.2558 13.9999 31.2558 13.9999 31.2558 13.9999C31.2558 13.9999 31.2558 13.9999 31.2558 13.9999C31.2558 13.9999 31.2558 13.9999 31.2558 13.9999C31.2558 13.9999 31.2558 13.9999 31.2558 13.9999C31.2558 13.9999 31.2558 13.9999 31.2558 13.9999C31.2558 13.9999 31.2558 13.9999 31.2558 13.9999H31.2558H31.2558H31.2558C31.2558 13.9999 31.2558 13.9999 31.2558 13.9999C31.2558 13.9999 31.2558 13.9999 31.2558 13.9999C31.2558 13.9999 31.2558 13.9999 31.2558 13.9999C31.2558 13.9999 31.2558 13.9999 31.2558 13.9999C31.2558 13.9999 31.2558 13.9999 31.2558 13.9999C31.2558 13.9999 31.2558 13.9999 31.2558 13.9999C31.2558 13.9999 31.2558 13.9999 31.2558 13.9999C31.2558 13.9999 31.2558 13.9999 31.2558 13.9999H31.2558H31.2558H31.2558H31.2558C31.2558 13.9999 31.2558 13.9999 31.2558 13.9999C31.2558 13.9999 31.2558 13.9999 31.2558 13.9999C31.2558 13.9999 31.2558 13.9999 31.2558 13.9999C31.2558 13.9999 31.2558 13.9999 31.2558 13.9999C31.2558 13.9999 31.2558 13.9999 31.2558 13.9999C31.2558 13.9999 31.2558 13.9999 31.2558 13.9999C31.2558 13.9999 31.2558 13.9999 31.2558 13.9999C31.2558 13.9999 31.2558 13.9999 31.2558 13.9999H31.2558H31.2558H31.2558H31.2558C31.2558 13.9999 31.2558 13.9999 31.2558 13.9999C31.2558 13.9999 31.2558 13.9999 31.2558 13.9999C31.2558 13.9999 31.2558 13.9999 31.2558 13.9999C31.2558 13.9999 31.2558 13.9999 31.2558 13.9999C31.2558 13.9999 31.2558 13.9999 31.2558 13.9999C31.2558 13.9999 31.2558 13.9999 31.2558 13.9999C31.2558 13.9999 31.2558 13.9999 31.2558 13.9999H31.2558H31.2558H31.2558H31.2558C31.2558 13.9999 31.2558 13.9999 31.2558 13.9999C31.2558 13.9999 31.2558 13.9999 31.2558 13.9999C31.2558 13.9999 31.2558 13.9999 31.2558 13.9999C31.2558 13.9999 31.2558 13.9999 31.2558 13.9999C31.2558 13.9999 31.2558 13.9999 31.2558 13.9999C31.2558 13.9999 31.2558 13.9999 31.2558 13.9999C31.2558 13.9999 31.2558 13.9999 31.2558 13.9999C31.2558 13.9999 31.2558 13.9999 31.2558 13.9999H31.2558H31.2558H31.2558H31.2558C31.2558 13.9999 31.2558 13.9999 31.2558 13.9999C31.2557 13.9999 31.2557 13.9999 31.2557 13.9999C31.2557 13.9999 31.2557 13.9999 31.2557 13.9999C31.2557 13.9999 31.2557 13.9999 31.2557 13.9999C31.2557 13.9999 31.2557 13.9999 31.2557 13.9999C31.2557 13.9999 31.2557 13.9999 31.2557 13.9999C31.2557 13.9999 31.2557 13.9999 31.2557 13.9999C31.2557 13.9999 31.2557 13.9999 31.2557 13.9999H31.2557H31.2557H31.2557H31.2557C31.2557 13.9999 31.2557 13.9999 31.2557 13.9999C31.2557 13.9999 31.2557 13.9999 31.2557 13.9999C31.2557 13.9999 31.2557 13.9999 31.2557 13.9999C31.2557 13.9999 31.2557 13.9999 31.2557 13.9999C31.2557 13.9999 31.2557 13.9999 31.2557 13.9999C31.2557 13.9999 31.2557 13.9999 31.2557 13.9999C31.2557 13.9999 31.2557 13.9999 31.2557 13.9999C31.2557 13.9999 31.2557 13.9999 31.2557 13.9999H31.2557H31.2557H31.2557H31.2557C31.2557 13.9999 31.2557 13.9999 31.2557 13.9999C31.2557 13.9999 31.2557 13.9999 31.2557 13.9999C31.2557 13.9999 31.2557 13.9999 31.2557 13.9999C31.2557 13.9999 31.2557 13.9999 31.2557 13.9999C31.2557 13.9999 31.2557 13.9999 31.2557 13.9999C31.2557 13.9999 31.2557 13.9999 31.2557 13.9999C31.2557 13.9999 31.2557 13.9999 31.2557 13.9999H31.2557H31.2557H31.2557H31.2557C31.2557 13.9999 31.2557 13.9999 31.2557 13.9999C31.2557 13.9999 31.2557 13.9999 31.2557 13.9999C31.2557 13.9999 31.2557 13.9999 31.2557 13.9999C31.2557 13.9999 31.2557 13.9999 31.2557 13.9999C31.2557 13.9999 31.2557 13.9999 31.2557 13.9999C31.2557 13.9999 31.2557 13.9999 31.2557 13.9999C31.2557 13.9999 31.2557 13.9999 31.2557 13.9999H31.2557H31.2557H31.2557H31.2557C31.2557 13.9999 31.2557 13.9999 31.2557 13.9999C31.2557 13.9999 31.2557 13.9999 31.2557 13.9999C31.2557 13.9999 31.2557 13.9999 31.2557 13.9999C31.2557 13.9999 31.2557 13.9999 31.2557 13.9999C31.2557 13.9999 31.2557 13.9999 31.2557 13.9999C31.2557 13.9999 31.2557 13.9999 31.2557 13.9999C31.2557 13.9999 31.2557 13.9999 31.2557 13.9999C31.2557 13.9999 31.2557 13.9999 31.2557 13.9999H31.2557H31.2557H31.2557C31.2557 13.9999 31.2557 13.9999 31.2557 13.9999C31.2557 13.9999 31.2557 13.9999 31.2557 13.9999C31.2557 13.9999 31.2557 13.9999 31.2557 13.9999C31.2557 13.9999 31.2557 13.9999 31.2557 13.9999C31.2557 13.9999 31.2557 13.9999 31.2557 13.9999C31.2557 13.9999 31.2557 13.9999 31.2557 13.9999C31.2557 13.9999 31.2557 13.9999 31.2557 13.9999H31.2557H31.2557H31.2557H31.2557C31.2557 13.9999 31.2557 13.9999 31.2557 13.9999C31.2557 13.9999 31.2557 13.9999 31.2557 13.9999C31.2557 13.9999 31.2557 13.9999 31.2557 13.9999C31.2557 13.9999 31.2557 13.9999 31.2557 13.9999C31.2557 13.9999 31.2557 13.9999 31.2557 13.9999C31.2557 13.9999 31.2557 13.9999 31.2557 13.9999C31.2557 13.9999 31.2557 13.9999 31.2557 13.9999H31.2557H31.2557H31.2557C31.2557 13.9999 31.2557 13.9999 31.2557 13.9999C31.2557 13.9999 31.2557 13.9999 31.2557 13.9999C31.2557 13.9999 31.2557 13.9999 31.2557 13.9999V19.9999C31.2557 19.9999 31.2557 19.9999 31.2557 19.9999C31.2557 19.9999 31.2557 19.9999 31.2557 19.9999C31.2557 19.9999 31.2557 19.9999 31.2557 19.9999H31.2557H31.2557H31.2557C31.2557 19.9999 31.2557 19.9999 31.2557 19.9999C31.2557 19.9999 31.2557 19.9999 31.2557 19.9999C31.2557 19.9999 31.2557 19.9999 31.2557 19.9999C31.2557 19.9999 31.2557 19.9999 31.2557 19.9999C31.2557 19.9999 31.2557 19.9999 31.2557 19.9999C31.2557 19.9999 31.2557 19.9999 31.2557 19.9999C31.2557 19.9999 31.2557 19.9999 31.2557 19.9999H31.2557H31.2557H31.2557H31.2557C31.2557 19.9999 31.2557 19.9999 31.2557 19.9999C31.2557 19.9999 31.2557 19.9999 31.2557 19.9999C31.2557 19.9999 31.2557 19.9999 31.2557 19.9999C31.2557 19.9999 31.2557 19.9999 31.2557 19.9999C31.2557 19.9999 31.2557 19.9999 31.2557 19.9999C31.2557 19.9999 31.2557 19.9999 31.2557 19.9999C31.2557 19.9999 31.2557 19.9999 31.2557 19.9999H31.2557H31.2557H31.2557C31.2557 19.9999 31.2557 19.9999 31.2557 19.9999C31.2557 19.9999 31.2557 19.9999 31.2557 19.9999C31.2557 19.9999 31.2557 19.9999 31.2557 19.9999C31.2557 19.9999 31.2557 19.9999 31.2557 19.9999C31.2557 19.9999 31.2557 19.9999 31.2557 19.9999C31.2557 19.9999 31.2557 19.9999 31.2557 19.9999C31.2557 19.9999 31.2557 19.9999 31.2557 19.9999C31.2557 19.9999 31.2557 19.9999 31.2557 19.9999H31.2557H31.2557H31.2557H31.2557C31.2557 19.9999 31.2557 19.9999 31.2557 19.9999C31.2557 19.9999 31.2557 19.9999 31.2557 19.9999C31.2557 19.9999 31.2557 19.9999 31.2557 19.9999C31.2557 19.9999 31.2557 19.9999 31.2557 19.9999C31.2557 19.9999 31.2557 19.9999 31.2557 19.9999C31.2557 19.9999 31.2557 19.9999 31.2557 19.9999C31.2557 19.9999 31.2557 19.9999 31.2557 19.9999H31.2557H31.2557H31.2557H31.2557C31.2557 19.9999 31.2557 19.9999 31.2557 19.9999C31.2557 19.9999 31.2557 19.9999 31.2557 19.9999C31.2557 19.9999 31.2557 19.9999 31.2557 19.9999C31.2557 19.9999 31.2557 19.9999 31.2557 19.9999C31.2557 19.9999 31.2557 19.9999 31.2557 19.9999C31.2557 19.9999 31.2557 19.9999 31.2557 19.9999C31.2557 19.9999 31.2557 19.9999 31.2557 19.9999H31.2557H31.2557H31.2557H31.2557C31.2557 19.9999 31.2557 19.9999 31.2557 19.9999C31.2557 19.9999 31.2557 19.9999 31.2557 19.9999C31.2557 19.9999 31.2557 19.9999 31.2557 19.9999C31.2557 19.9999 31.2557 19.9999 31.2557 19.9999C31.2557 19.9999 31.2557 19.9999 31.2557 19.9999C31.2557 19.9999 31.2557 19.9999 31.2557 19.9999C31.2557 19.9999 31.2557 19.9999 31.2557 19.9999C31.2557 19.9999 31.2557 19.9999 31.2557 19.9999H31.2557H31.2557H31.2557H31.2557C31.2557 19.9999 31.2557 19.9999 31.2557 19.9999C31.2557 19.9999 31.2557 19.9999 31.2557 19.9999C31.2557 19.9999 31.2557 19.9999 31.2557 19.9999C31.2557 19.9999 31.2557 19.9999 31.2557 19.9999C31.2557 19.9999 31.2557 19.9999 31.2557 19.9999C31.2557 19.9999 31.2557 19.9999 31.2557 19.9999C31.2557 19.9999 31.2557 19.9999 31.2558 19.9999C31.2558 19.9999 31.2558 19.9999 31.2558 19.9999H31.2558H31.2558H31.2558H31.2558C31.2558 19.9999 31.2558 19.9999 31.2558 19.9999C31.2558 19.9999 31.2558 19.9999 31.2558 19.9999C31.2558 19.9999 31.2558 19.9999 31.2558 19.9999C31.2558 19.9999 31.2558 19.9999 31.2558 19.9999C31.2558 19.9999 31.2558 19.9999 31.2558 19.9999C31.2558 19.9999 31.2558 19.9999 31.2558 19.9999C31.2558 19.9999 31.2558 19.9999 31.2558 19.9999C31.2558 19.9999 31.2558 19.9999 31.2558 19.9999H31.2558H31.2558H31.2558H31.2558C31.2558 19.9999 31.2558 19.9999 31.2558 19.9999C31.2558 19.9999 31.2558 19.9999 31.2558 19.9999C31.2558 19.9999 31.2558 19.9999 31.2558 19.9999C31.2558 19.9999 31.2558 19.9999 31.2558 19.9999C31.2558 19.9999 31.2558 19.9999 31.2558 19.9999C31.2558 19.9999 31.2558 19.9999 31.2558 19.9999C31.2558 19.9999 31.2558 19.9999 31.2558 19.9999H31.2558H31.2558H31.2558H31.2558C31.2558 19.9999 31.2558 19.9999 31.2558 19.9999C31.2558 19.9999 31.2558 19.9999 31.2558 19.9999C31.2558 19.9999 31.2558 19.9999 31.2558 19.9999C31.2558 19.9999 31.2558 19.9999 31.2558 19.9999C31.2558 19.9999 31.2558 19.9999 31.2558 19.9999C31.2558 19.9999 31.2558 19.9999 31.2558 19.9999C31.2558 19.9999 31.2558 19.9999 31.2558 19.9999C31.2558 19.9999 31.2558 19.9999 31.2558 19.9999H31.2558H31.2558H31.2558H31.2558C31.2558 19.9999 31.2558 19.9999 31.2558 19.9999C31.2558 19.9999 31.2558 19.9999 31.2558 19.9999C31.2558 19.9999 31.2558 19.9999 31.2558 19.9999C31.2558 19.9999 31.2558 19.9999 31.2558 19.9999C31.2558 19.9999 31.2558 19.9999 31.2558 19.9999C31.2558 19.9999 31.2558 19.9999 31.2558 19.9999C31.2558 19.9999 31.2558 19.9999 31.2558 19.9999C31.2558 19.9999 31.2558 19.9999 31.2558 19.9999H31.2558H31.2558H31.2558C31.2558 19.9999 31.2558 19.9999 31.2558 19.9999C31.2558 19.9999 31.2558 19.9999 31.2558 19.9999C31.2558 19.9999 31.2558 19.9999 31.2558 19.9999C31.2558 19.9999 31.2558 19.9999 31.2558 19.9999C31.2558 19.9999 31.2558 19.9999 31.2558 19.9999C31.2558 19.9999 31.2558 19.9999 31.2558 19.9999C31.2558 19.9999 31.2558 19.9999 31.2558 19.9999C31.2558 19.9999 31.2558 19.9999 31.2558 19.9999H31.2558H31.2558H31.2558H31.2558C31.2558 19.9999 31.2558 19.9999 31.2558 19.9999C31.2558 19.9999 31.2558 19.9999 31.2558 19.9999C31.2558 19.9999 31.2558 19.9999 31.2558 19.9999C31.2558 19.9999 31.2558 19.9999 31.2558 19.9999C31.2558 19.9999 31.2558 19.9999 31.2558 19.9999C31.2558 19.9999 31.2558 19.9999 31.2558 19.9999C31.2558 19.9999 31.2558 19.9999 31.2558 19.9999H31.2558H31.2558H31.2558C31.2558 19.9999 31.2558 19.9999 31.2558 19.9999C31.2558 19.9999 31.2558 19.9999 31.2558 19.9999C31.2558 19.9999 31.2558 19.9999 31.2558 19.9999C31.2558 19.9999 31.2558 19.9999 31.2558 19.9999C31.2558 19.9999 31.2558 19.9999 31.2558 19.9999C31.2558 19.9999 31.2558 19.9999 31.2558 19.9999C31.2558 19.9999 31.2558 19.9999 31.2558 19.9999C31.2558 19.9999 31.2558 19.9999 31.2558 19.9999H31.2558H31.2558H31.2558C31.2558 19.9999 31.2558 19.9999 31.2558 19.9999C31.2558 19.9999 31.2558 19.9999 31.2558 19.9999C31.2558 19.9999 31.2558 19.9999 31.2558 19.9999C31.2558 19.9999 31.2558 19.9999 31.2558 19.9999C31.2558 19.9999 31.2558 19.9999 31.2558 19.9999C31.2558 19.9999 31.2558 19.9999 31.2558 19.9999C31.2558 19.9999 31.2558 19.9999 31.2558 19.9999H31.2558H31.2558H31.2558H31.2558C31.2558 19.9999 31.2558 19.9999 31.2558 19.9999V13.9999ZM31.2557 13.9999C30.2306 13.9999 29.1364 14.2986 28.2218 14.9965L31.8614 19.7665C31.5918 19.9723 31.36 19.9999 31.2557 19.9999V13.9999ZM28.222 14.9963C27.1755 15.7947 26.4891 17.0342 26.4889 18.4572L32.4889 18.458C32.4888 18.7208 32.4256 18.9898 32.3002 19.2339C32.1762 19.4754 32.0134 19.6506 31.8613 19.7666L28.222 14.9963ZM26.4889 18.4576C26.4889 20.6683 28.3705 21.9654 30.0498 21.9654V15.9654C31.1096 15.9654 32.4889 16.8078 32.4889 18.4576H26.4889ZM30.0498 21.9654C31.7287 21.9654 33.6108 20.6687 33.6108 18.4576H27.6108C27.6108 16.8074 28.9904 15.9654 30.0498 15.9654V21.9654ZM33.6108 18.4576C33.6108 18.8392 33.5254 19.2586 33.318 19.6624C33.1133 20.0608 32.8392 20.3487 32.5845 20.543L28.9446 15.7732C28.1529 16.3774 27.6108 17.3353 27.6108 18.4576H33.6108ZM32.5842 20.5432C32.0458 20.954 31.5223 21.0156 31.2557 21.0156V15.0156C30.5966 15.0156 29.7243 15.1784 28.9449 15.773L32.5842 20.5432ZM31.2557 21.0156H31.2558V15.0156H31.2557V21.0156ZM31.2558 21.0156C30.4088 21.0156 29.2023 20.3308 29.2023 18.8724H35.2023C35.2023 16.4691 33.1466 15.0156 31.2558 15.0156V21.0156ZM29.2023 18.8724C29.2023 18.2951 29.461 17.8037 29.8012 17.4958L33.8282 21.9436C34.6683 21.183 35.2023 20.0899 35.2023 18.8724H29.2023ZM29.8014 17.4955C30.1314 17.1968 30.5275 17.0706 30.8791 17.0706V23.0706C31.9375 23.0706 32.9981 22.695 33.828 21.9438L29.8014 17.4955ZM30.8791 17.0706C30.8791 17.0706 30.8791 17.0706 30.8791 17.0706C30.8791 17.0706 30.8791 17.0706 30.8791 17.0706C30.8791 17.0706 30.8791 17.0706 30.8791 17.0706C30.8791 17.0706 30.8791 17.0706 30.8791 17.0706C30.8791 17.0706 30.8791 17.0706 30.8791 17.0706C30.8791 17.0706 30.8791 17.0706 30.8791 17.0706H30.8791H30.8791C30.8791 17.0706 30.8791 17.0706 30.8791 17.0706C30.8791 17.0706 30.8791 17.0706 30.8791 17.0706C30.8791 17.0706 30.8791 17.0706 30.8791 17.0706H30.8791C30.8791 17.0706 30.8791 17.0706 30.8791 17.0706C30.8791 17.0706 30.8791 17.0706 30.8791 17.0706C30.8791 17.0706 30.8791 17.0706 30.8791 17.0706C30.8791 17.0706 30.8791 17.0706 30.8791 17.0706C30.8791 17.0706 30.8791 17.0706 30.8791 17.0706H30.8791C30.8791 17.0706 30.8791 17.0706 30.8791 17.0706C30.8791 17.0706 30.8791 17.0706 30.8791 17.0706H30.8791C30.8791 17.0706 30.8791 17.0706 30.8791 17.0706C30.8791 17.0706 30.8791 17.0706 30.8791 17.0706C30.8791 17.0706 30.8791 17.0706 30.8791 17.0706C30.8791 17.0706 30.8791 17.0706 30.8791 17.0706C30.8791 17.0706 30.8791 17.0706 30.8791 17.0706C30.8791 17.0706 30.8791 17.0706 30.8791 17.0706C30.8791 17.0706 30.8791 17.0706 30.8791 17.0706C30.8791 17.0706 30.8791 17.0706 30.8791 17.0706H30.8791C30.8791 17.0706 30.8791 17.0706 30.8791 17.0706C30.8791 17.0706 30.8791 17.0706 30.8791 17.0706C30.8791 17.0706 30.8791 17.0706 30.8791 17.0706C30.8791 17.0706 30.8791 17.0706 30.8791 17.0706C30.8791 17.0706 30.8791 17.0706 30.8791 17.0706H30.8791C30.8791 17.0706 30.8791 17.0706 30.8791 17.0706C30.8791 17.0706 30.8791 17.0706 30.8791 17.0706C30.8791 17.0706 30.8791 17.0706 30.8791 17.0706C30.8791 17.0706 30.8791 17.0706 30.8791 17.0706C30.8791 17.0706 30.8791 17.0706 30.8791 17.0706C30.8791 17.0706 30.8791 17.0706 30.8791 17.0706C30.8791 17.0706 30.8791 17.0706 30.8791 17.0706C30.8791 17.0706 30.8791 17.0706 30.8791 17.0706H30.8791H30.8791C30.8791 17.0706 30.8791 17.0706 30.8791 17.0706H30.8791C30.8791 17.0706 30.8791 17.0706 30.8791 17.0706H30.8791C30.8791 17.0706 30.8791 17.0706 30.8791 17.0706C30.8791 17.0706 30.8791 17.0706 30.8791 17.0706H30.8791C30.8791 17.0706 30.8791 17.0706 30.8791 17.0706C30.8791 17.0706 30.8791 17.0706 30.8791 17.0706H30.8791H30.8791C30.8791 17.0706 30.8791 17.0706 30.8791 17.0706C30.8791 17.0706 30.8791 17.0706 30.8791 17.0706C30.8791 17.0706 30.8791 17.0706 30.8791 17.0706H30.8791H30.8791C30.8791 17.0706 30.8791 17.0706 30.8791 17.0706C30.8791 17.0706 30.8791 17.0706 30.8791 17.0706C30.8791 17.0706 30.8791 17.0706 30.8791 17.0706H30.8791C30.8791 17.0706 30.8791 17.0706 30.8791 17.0706H30.8791C30.879 17.0706 30.879 17.0706 30.879 17.0706C30.879 17.0706 30.879 17.0706 30.879 17.0706C30.879 17.0706 30.879 17.0706 30.879 17.0706H30.879C30.879 17.0706 30.879 17.0706 30.879 17.0706C30.879 17.0706 30.879 17.0706 30.879 17.0706H30.879C30.879 17.0706 30.879 17.0706 30.879 17.0706C30.879 17.0706 30.879 17.0706 30.879 17.0706C30.879 17.0706 30.879 17.0706 30.879 17.0706C30.879 17.0706 30.879 17.0706 30.879 17.0706C30.879 17.0706 30.879 17.0706 30.879 17.0706H30.879C30.879 17.0706 30.879 17.0706 30.879 17.0706C30.879 17.0706 30.879 17.0706 30.879 17.0706H30.879C30.879 17.0706 30.879 17.0706 30.879 17.0706C30.879 17.0706 30.879 17.0706 30.879 17.0706C30.879 17.0706 30.879 17.0706 30.879 17.0706H30.879C30.879 17.0706 30.879 17.0706 30.879 17.0706C30.879 17.0706 30.879 17.0706 30.879 17.0706C30.879 17.0706 30.879 17.0706 30.879 17.0706C30.879 17.0706 30.879 17.0706 30.879 17.0706C30.879 17.0706 30.879 17.0706 30.879 17.0706C30.879 17.0706 30.879 17.0706 30.879 17.0706C30.879 17.0706 30.879 17.0706 30.879 17.0706C30.879 17.0706 30.879 17.0706 30.879 17.0706C30.879 17.0706 30.879 17.0706 30.879 17.0706C30.879 17.0706 30.879 17.0706 30.879 17.0706H30.879C30.879 17.0706 30.879 17.0706 30.879 17.0706C30.879 17.0706 30.879 17.0706 30.879 17.0706C30.879 17.0706 30.879 17.0706 30.879 17.0706C30.879 17.0706 30.879 17.0706 30.879 17.0706C30.879 17.0706 30.879 17.0706 30.879 17.0706C30.879 17.0706 30.879 17.0706 30.879 17.0706C30.879 17.0706 30.879 17.0706 30.879 17.0706H30.879C30.879 17.0706 30.879 17.0706 30.879 17.0706C30.879 17.0706 30.879 17.0706 30.879 17.0706C30.879 17.0706 30.879 17.0706 30.879 17.0706H30.879H30.879H30.879C30.879 17.0706 30.879 17.0706 30.879 17.0706C30.879 17.0706 30.879 17.0706 30.879 17.0706C30.879 17.0706 30.879 17.0706 30.879 17.0706C30.879 17.0706 30.879 17.0706 30.879 17.0706H30.879V23.0706H30.879C30.879 23.0706 30.879 23.0706 30.879 23.0706C30.879 23.0706 30.879 23.0706 30.879 23.0706C30.879 23.0706 30.879 23.0706 30.879 23.0706C30.879 23.0706 30.879 23.0706 30.879 23.0706H30.879H30.879H30.879C30.879 23.0706 30.879 23.0706 30.879 23.0706C30.879 23.0706 30.879 23.0706 30.879 23.0706C30.879 23.0706 30.879 23.0706 30.879 23.0706H30.879C30.879 23.0706 30.879 23.0706 30.879 23.0706C30.879 23.0706 30.879 23.0706 30.879 23.0706C30.879 23.0706 30.879 23.0706 30.879 23.0706C30.879 23.0706 30.879 23.0706 30.879 23.0706C30.879 23.0706 30.879 23.0706 30.879 23.0706C30.879 23.0706 30.879 23.0706 30.879 23.0706C30.879 23.0706 30.879 23.0706 30.879 23.0706H30.879C30.879 23.0706 30.879 23.0706 30.879 23.0706C30.879 23.0706 30.879 23.0706 30.879 23.0706C30.879 23.0706 30.879 23.0706 30.879 23.0706C30.879 23.0706 30.879 23.0706 30.879 23.0706C30.879 23.0706 30.879 23.0706 30.879 23.0706C30.879 23.0706 30.879 23.0706 30.879 23.0706C30.879 23.0706 30.879 23.0706 30.879 23.0706C30.879 23.0706 30.879 23.0706 30.879 23.0706C30.879 23.0706 30.879 23.0706 30.879 23.0706C30.879 23.0706 30.879 23.0706 30.879 23.0706H30.879C30.879 23.0706 30.879 23.0706 30.879 23.0706C30.879 23.0706 30.879 23.0706 30.879 23.0706C30.879 23.0706 30.879 23.0706 30.879 23.0706H30.879C30.879 23.0706 30.879 23.0706 30.879 23.0706C30.879 23.0706 30.879 23.0706 30.879 23.0706H30.879C30.879 23.0706 30.879 23.0706 30.879 23.0706C30.879 23.0706 30.879 23.0706 30.879 23.0706C30.879 23.0706 30.879 23.0706 30.879 23.0706C30.879 23.0706 30.879 23.0706 30.879 23.0706C30.879 23.0706 30.879 23.0706 30.879 23.0706H30.879C30.879 23.0706 30.879 23.0706 30.879 23.0706C30.879 23.0706 30.879 23.0706 30.879 23.0706H30.879C30.879 23.0706 30.879 23.0706 30.879 23.0706C30.879 23.0706 30.879 23.0706 30.879 23.0706C30.879 23.0706 30.879 23.0706 30.8791 23.0706H30.8791C30.8791 23.0706 30.8791 23.0706 30.8791 23.0706H30.8791C30.8791 23.0706 30.8791 23.0706 30.8791 23.0706C30.8791 23.0706 30.8791 23.0706 30.8791 23.0706C30.8791 23.0706 30.8791 23.0706 30.8791 23.0706H30.8791H30.8791C30.8791 23.0706 30.8791 23.0706 30.8791 23.0706C30.8791 23.0706 30.8791 23.0706 30.8791 23.0706C30.8791 23.0706 30.8791 23.0706 30.8791 23.0706H30.8791H30.8791C30.8791 23.0706 30.8791 23.0706 30.8791 23.0706C30.8791 23.0706 30.8791 23.0706 30.8791 23.0706H30.8791C30.8791 23.0706 30.8791 23.0706 30.8791 23.0706C30.8791 23.0706 30.8791 23.0706 30.8791 23.0706H30.8791C30.8791 23.0706 30.8791 23.0706 30.8791 23.0706H30.8791C30.8791 23.0706 30.8791 23.0706 30.8791 23.0706H30.8791H30.8791C30.8791 23.0706 30.8791 23.0706 30.8791 23.0706C30.8791 23.0706 30.8791 23.0706 30.8791 23.0706C30.8791 23.0706 30.8791 23.0706 30.8791 23.0706C30.8791 23.0706 30.8791 23.0706 30.8791 23.0706C30.8791 23.0706 30.8791 23.0706 30.8791 23.0706C30.8791 23.0706 30.8791 23.0706 30.8791 23.0706C30.8791 23.0706 30.8791 23.0706 30.8791 23.0706C30.8791 23.0706 30.8791 23.0706 30.8791 23.0706H30.8791C30.8791 23.0706 30.8791 23.0706 30.8791 23.0706C30.8791 23.0706 30.8791 23.0706 30.8791 23.0706C30.8791 23.0706 30.8791 23.0706 30.8791 23.0706C30.8791 23.0706 30.8791 23.0706 30.8791 23.0706C30.8791 23.0706 30.8791 23.0706 30.8791 23.0706H30.8791C30.8791 23.0706 30.8791 23.0706 30.8791 23.0706C30.8791 23.0706 30.8791 23.0706 30.8791 23.0706C30.8791 23.0706 30.8791 23.0706 30.8791 23.0706C30.8791 23.0706 30.8791 23.0706 30.8791 23.0706C30.8791 23.0706 30.8791 23.0706 30.8791 23.0706C30.8791 23.0706 30.8791 23.0706 30.8791 23.0706C30.8791 23.0706 30.8791 23.0706 30.8791 23.0706C30.8791 23.0706 30.8791 23.0706 30.8791 23.0706H30.8791C30.8791 23.0706 30.8791 23.0706 30.8791 23.0706C30.8791 23.0706 30.8791 23.0706 30.8791 23.0706H30.8791C30.8791 23.0706 30.8791 23.0706 30.8791 23.0706C30.8791 23.0706 30.8791 23.0706 30.8791 23.0706C30.8791 23.0706 30.8791 23.0706 30.8791 23.0706C30.8791 23.0706 30.8791 23.0706 30.8791 23.0706C30.8791 23.0706 30.8791 23.0706 30.8791 23.0706H30.8791C30.8791 23.0706 30.8791 23.0706 30.8791 23.0706C30.8791 23.0706 30.8791 23.0706 30.8791 23.0706C30.8791 23.0706 30.8791 23.0706 30.8791 23.0706H30.8791H30.8791C30.8791 23.0706 30.8791 23.0706 30.8791 23.0706C30.8791 23.0706 30.8791 23.0706 30.8791 23.0706C30.8791 23.0706 30.8791 23.0706 30.8791 23.0706C30.8791 23.0706 30.8791 23.0706 30.8791 23.0706C30.8791 23.0706 30.8791 23.0706 30.8791 23.0706C30.8791 23.0706 30.8791 23.0706 30.8791 23.0706V17.0706ZM30.879 17.0706C30.8032 17.0706 30.7408 17.0732 30.7012 17.0753C30.6811 17.0763 30.6645 17.0774 30.6539 17.0781C30.6485 17.0784 30.6439 17.0787 30.6409 17.0789C30.6394 17.079 30.638 17.0791 30.6371 17.0792C30.636 17.0793 30.6356 17.0793 30.6351 17.0793L31.0416 23.0655C31.0579 23.0644 31.0376 23.0659 31.016 23.067C30.9899 23.0684 30.9411 23.0706 30.879 23.0706V17.0706ZM30.771 17.0732C25.9479 17.1815 21.5623 20.835 21.5622 25.8993L27.5622 25.8994C27.5622 24.6336 28.778 23.1194 30.9057 23.0717L30.771 17.0732ZM21.5622 25.8993C21.5622 28.331 22.6146 30.4893 24.2202 32.04L28.3885 27.7243C27.8345 27.1893 27.5622 26.5452 27.5622 25.8993H21.5622ZM25.1029 27.1332C23.8662 27.6737 22.7393 28.4522 21.8085 29.4404L26.1762 33.5543C26.5281 33.1806 26.9779 32.8618 27.5057 32.6311L25.1029 27.1332ZM21.8086 29.4404C20.5614 30.7645 19.7212 32.41 19.4226 34.2062L25.3414 35.19C25.4366 34.6172 25.7101 34.0491 26.1762 33.5543L21.8086 29.4404ZM19.4226 34.2063C19.1394 35.9103 19.7058 37.585 20.8531 38.7918L25.2015 34.6576C25.2397 34.6978 25.2871 34.7662 25.3186 34.865C25.3504 34.965 25.36 35.0784 25.3414 35.1899L19.4226 34.2063ZM20.8529 38.7916C21.0894 39.0404 21.3402 39.2577 21.5957 39.4465L25.162 34.6214C25.1659 34.6242 25.1806 34.6356 25.2017 34.6578L20.8529 38.7916ZM21.983 34.3784C20.5713 35.1205 19.4714 36.4423 19.1172 38.0964L24.9842 39.3527C24.9346 39.5843 24.8028 39.6746 24.7747 39.6894L21.983 34.3784ZM19.1173 38.0962C18.7592 39.7679 19.2358 41.4555 20.3185 42.7083L24.8581 38.785C24.9521 38.8938 25.0368 39.1073 24.9842 39.3529L19.1173 38.0962ZM20.3186 42.7084L21.5199 44.0982L26.0592 40.1747L24.858 38.7849L20.3186 42.7084ZM21.5199 44.0982C22.6384 45.3923 24.2425 45.9999 25.7599 45.9999V39.9999C25.7853 39.9999 25.8184 40.0042 25.8623 40.0231C25.9081 40.0428 25.9831 40.0866 26.0593 40.1747L21.5199 44.0982ZM25.7599 45.9999C26.6387 45.9999 27.5476 45.7989 28.3894 45.3588L25.6098 40.0415C25.6772 40.0063 25.7302 39.9999 25.7599 39.9999V45.9999ZM28.3894 45.3589C30.7203 44.1404 31.975 41.3064 30.806 38.6811L25.3248 41.1217C25.2193 40.8848 25.2235 40.6208 25.3029 40.4123C25.38 40.2099 25.5111 40.0931 25.6098 40.0415L28.3894 45.3589ZM30.806 38.6812L30.0773 37.0444L24.596 39.4848L25.3247 41.1216L30.806 38.6812ZM30.0772 37.0443C29.9613 36.7838 29.8305 36.5481 29.696 36.3371L24.6364 39.5622C24.6304 39.5526 24.6147 39.5267 24.5961 39.485L30.0772 37.0443ZM27.1662 40.9496H31.2805V34.9496H27.1662V40.9496ZM31.2805 40.9496C32.9598 40.9496 34.8414 39.6525 34.8414 37.4418H28.8414C28.8414 35.792 30.2207 34.9496 31.2805 34.9496V40.9496ZM34.8414 37.4418C34.8414 35.2311 32.9598 33.9339 31.2805 33.9339V39.9339C30.2207 39.9339 28.8414 39.0916 28.8414 37.4418H34.8414ZM31.2805 33.9339H26.0999V39.9339H31.2805V33.9339ZM29.0999 36.9339V35.8633H23.0999V36.9339H29.0999ZM29.0999 35.8633C29.0999 37.6558 27.5931 38.6132 26.376 38.6132V32.6132C24.8544 32.6132 23.0999 33.7949 23.0999 35.8633H29.0999ZM26.376 38.6132H35.624V32.6132H26.376V38.6132ZM35.624 38.6132C34.4073 38.6132 32.9002 37.6562 32.9002 35.8633H38.9002C38.9002 33.7946 37.1452 32.6132 35.624 32.6132V38.6132ZM32.9002 35.8633V37.0041H38.9002V35.8633H32.9002ZM34.5665 34.3169C33.4343 34.8788 32.4694 35.8164 31.9227 37.0443L37.4038 39.4849C37.3391 39.6305 37.253 39.6819 37.2339 39.6914L34.5665 34.3169ZM31.9226 37.0444L31.1939 38.6811L36.6752 41.1215L37.4039 39.4848L31.9226 37.0444ZM31.1939 38.6811C30.025 41.3064 31.2796 44.1404 33.6106 45.3589L36.3901 40.0415C36.4888 40.0931 36.6199 40.2099 36.697 40.4123C36.7764 40.6209 36.7806 40.8847 36.6752 41.1216L31.1939 38.6811ZM33.6107 45.3589C34.4523 45.7988 35.361 45.9999 36.24 45.9999V39.9999C36.2698 39.9999 36.3228 40.0063 36.39 40.0414L33.6107 45.3589ZM36.24 45.9999C37.7574 45.9999 39.3615 45.3922 40.48 44.0983L35.9408 40.1746C36.017 40.0865 36.092 40.0427 36.1376 40.0231C36.1815 40.0042 36.2145 39.9999 36.24 39.9999V45.9999ZM40.4801 44.0982L41.6813 42.7084L37.1419 38.7849L35.9407 40.1747L40.4801 44.0982ZM41.6812 42.7086C42.7643 41.4556 43.2408 39.7679 42.8827 38.0962L37.0158 39.353C36.9632 39.1074 37.0478 38.8938 37.142 38.7848L41.6812 42.7086ZM28.684 25.8994C28.684 25.176 29.4382 24.0864 31 24.0863L30.9999 18.0863C26.6995 18.0864 22.6841 21.315 22.684 25.8993L28.684 25.8994ZM30.9999 24.0863C32.5618 24.0864 33.3159 25.176 33.316 25.8994L39.316 25.8993C39.3159 21.315 35.3005 18.0864 31 18.0863L30.9999 24.0863ZM33.316 25.8994C33.316 26.6228 32.5619 27.7124 30.9999 27.7124L31 33.7124C35.3006 33.7123 39.316 30.4837 39.316 25.8994H33.316ZM31 27.7124C29.4381 27.7124 28.684 26.6228 28.684 25.8994H22.684C22.684 30.4837 26.6995 33.7123 30.9999 33.7124L31 27.7124ZM23.5556 39.8645L24.2844 41.5014L29.7657 39.061L29.037 37.4242L23.5556 39.8645ZM24.2843 41.5013C23.8309 40.4827 24.3755 39.514 25.0488 39.162L27.8286 44.4792C29.678 43.5124 30.7268 41.2201 29.7657 39.0611L24.2843 41.5013ZM25.0487 39.162C25.3796 38.9891 25.7195 38.9564 26.0111 39.0076C26.3016 39.0586 26.6531 39.2136 26.9429 39.5489L22.4033 43.4722C23.7798 45.0648 26.0725 45.3974 27.8287 44.4792L25.0487 39.162ZM26.9428 39.5488L25.7415 38.159L21.2022 42.0825L22.4034 43.4723L26.9428 39.5488ZM25.7414 38.1589C26.036 38.4996 26.2 39.0119 26.0855 39.5464L20.2186 38.2895C19.9224 39.6724 20.3195 41.0615 21.2023 42.0827L25.7414 38.1589ZM26.0855 39.5464C25.974 40.067 25.6451 40.4073 25.3352 40.5692L22.5556 35.2519C21.4191 35.846 20.5119 36.9206 20.2186 38.2895L26.0855 39.5464ZM25.3353 40.5692C25.0333 40.727 24.7071 40.7481 24.4123 40.6561L26.199 34.9283C25.0018 34.5549 23.6839 34.662 22.5555 35.252L25.3353 40.5692ZM24.4117 40.656C24.1114 40.5622 23.7576 40.318 23.5558 39.8649L29.0368 37.4239C28.4782 36.1695 27.4021 35.3039 26.1995 34.9285L24.4117 40.656ZM35.6277 30.5818C33.9484 30.5818 32.0668 31.879 32.0668 34.0897H38.0668C38.0668 35.7395 36.6875 36.5818 35.6277 36.5818V30.5818ZM32.0668 34.0897V34.5975H38.0668V34.0897H32.0668ZM35.0668 31.5975H26.9369V37.5975H35.0668V31.5975ZM29.9369 34.5975V34.0897H23.9369V34.5975H29.9369ZM29.9369 34.0897C29.9369 31.879 28.0553 30.5818 26.376 30.5818V36.5818C25.3162 36.5818 23.9369 35.7395 23.9369 34.0897H29.9369ZM26.376 30.5818C24.6966 30.5818 22.815 31.879 22.815 34.0897H28.815C28.815 35.7395 27.4357 36.5818 26.376 36.5818V30.5818ZM22.815 34.0897V34.7042H28.815V34.0897H22.815ZM24.705 31.9172C23.2512 32.4962 21.9779 33.9349 21.9779 35.8633H27.9779C27.9779 36.7569 27.3941 37.3045 26.9251 37.4913L24.705 31.9172ZM21.9779 35.8633V36.5805H27.9779V35.8633H21.9779ZM25.2483 33.5927C25.5007 33.6155 25.799 33.7292 26.0517 33.9949L21.7034 38.1292C22.5189 38.987 23.6055 39.4685 24.7075 39.5683L25.2483 33.5927ZM26.052 33.9952C26.3499 34.3087 26.5403 34.8025 26.4508 35.3409L20.5319 34.3577C20.2976 35.7687 20.7693 37.1466 21.7031 38.1289L26.052 33.9952ZM26.4508 35.3411C26.573 34.6058 27.1441 33.8318 28.2211 33.4564L26.2464 27.7907C23.3274 28.808 21.0521 31.2276 20.532 34.3575L26.4508 35.3411ZM25.5894 33.1327C27.1364 34.1465 29.0089 34.7281 31 34.7281V28.7281C30.1806 28.7281 29.4505 28.4894 28.8781 28.1143L25.5894 33.1327ZM31 34.7281C32.9911 34.7281 34.8636 34.1465 36.4106 33.1327L33.1219 28.1143C32.5495 28.4894 31.8194 28.7281 31 28.7281V34.7281ZM33.7789 33.4564C34.8559 33.8318 35.427 34.6058 35.5492 35.3411L41.468 34.3575C40.9479 31.2276 38.6726 28.808 35.7536 27.7907L33.7789 33.4564ZM35.5492 35.3409C35.4597 34.8025 35.6501 34.3086 35.9482 33.995L40.2967 38.1291C41.2306 37.1467 41.7024 35.7687 41.4681 34.3577L35.5492 35.3409ZM35.9481 33.9951C36.201 33.729 36.4994 33.6155 36.7516 33.5927L37.2924 39.5683C38.3942 39.4685 39.4811 38.9871 40.2967 38.129L35.9481 33.9951ZM40.022 36.5805V35.8633H34.022V36.5805H40.022ZM40.022 35.8633C40.022 33.9399 38.755 32.5033 37.3064 31.9218L35.071 37.4898C34.6031 37.3019 34.022 36.7546 34.022 35.8633H40.022ZM39.1887 34.7058V34.0897H33.1887V34.7058H39.1887ZM39.1887 34.0897C39.1887 31.879 37.3071 30.5818 35.6277 30.5818V36.5818C34.568 36.5818 33.1887 35.7395 33.1887 34.0897H39.1887ZM36.2584 38.159L35.0572 39.5488L39.5967 43.4722L40.7979 42.0824L36.2584 38.159ZM35.0574 39.5486C35.3471 39.2135 35.6985 39.0585 35.9889 39.0076C36.2805 38.9563 36.6203 38.989 36.9509 39.1618L34.1717 44.4793C35.928 45.3972 38.2202 45.0646 39.5965 43.4724L35.0574 39.5486ZM36.9511 39.1619C37.6248 39.5141 38.1691 40.4829 37.7158 41.5012L32.2344 39.0609C31.2734 41.2197 32.3217 43.5122 34.1716 44.4792L36.9511 39.1619ZM37.7157 41.5012L38.4445 39.8645L32.9632 37.4241L32.2344 39.0609L37.7157 41.5012ZM38.4444 39.8647C38.2425 40.3179 37.8885 40.5622 37.5884 40.6559L35.8006 34.9284C34.5981 35.3038 33.5219 36.1693 32.9632 37.4239L38.4444 39.8647ZM37.5877 40.6561C37.4681 40.6934 37.3481 40.7107 37.2314 40.7107V34.7107C36.7531 34.7107 36.2703 34.7819 35.8013 34.9282L37.5877 40.6561ZM37.2314 40.7107C37.0498 40.7107 36.8551 40.6686 36.665 40.5692L39.4444 35.2518C38.7479 34.8877 37.9848 34.7107 37.2314 34.7107V40.7107ZM36.6649 40.5692C36.3548 40.4071 36.0262 40.0668 35.9147 39.5467L41.7814 38.2891C41.4881 36.9207 40.5812 35.8461 39.4445 35.2519L36.6649 40.5692ZM35.9144 39.5456C35.8002 39.0116 35.964 38.4996 36.2586 38.1588L40.7977 42.0826C41.6805 41.0614 42.0774 39.6726 41.7816 38.2902L35.9144 39.5456Z" fill="#EE436A" mask="url(#path-4-inside-2)"/>
<path d="M34.1465 37.1463C34.1459 37.1469 34.1453 37.1475 34.1446 37.1481C34.0528 37.241 34 37.3691 34 37.4998C34 37.6318 34.0535 37.7603 34.1465 37.8532C34.1465 37.8532 34.1465 37.8532 34.1465 37.8532C34.2395 37.9467 34.3685 37.9998 34.5 37.9998C34.6315 37.9998 34.7605 37.9467 34.8535 37.8532L34.1465 37.1463Z" fill="#EE436A" stroke="#EE436A" stroke-width="3"/>
<path d="M30.5 28.3632C30.4997 28.3543 30.4996 28.3454 30.4995 28.3365C30.4997 28.3365 30.4998 28.3365 30.5 28.3365C30.5002 28.3365 30.5003 28.3365 30.5005 28.3365C30.5004 28.3454 30.5003 28.3543 30.5 28.3632Z" fill="#6B6969" stroke="#EE436A" stroke-width="3"/>
<path d="M28.5109 25.4213C28.5102 25.4263 28.5095 25.4313 28.5089 25.4363C28.5089 25.4363 28.5089 25.4364 28.5089 25.4364C28.5031 25.4832 28.5 25.5314 28.5 25.5809C28.5 25.6304 28.5031 25.6786 28.5089 25.7254L28.7074 25.97C28.7705 25.9495 28.8297 25.9186 28.8808 25.8771C28.9465 25.8238 29.0535 25.8238 29.1192 25.8771C29.1703 25.9185 29.2294 25.9495 29.2925 25.9699L29.484 25.734L29.4911 25.7253C29.4969 25.6786 29.5 25.6304 29.5 25.5809C29.5 25.5314 29.4969 25.4832 29.4911 25.4363C29.4905 25.4313 29.4898 25.4262 29.4891 25.4211C29.4891 25.4211 29.4891 25.4211 29.4891 25.421C29.4876 25.4099 29.4859 25.3989 29.484 25.3879C29.463 25.2625 29.4222 25.1479 29.3685 25.0464C29.2945 25.0272 29.2187 25.0139 29.1422 25.0066C29.0478 24.9975 28.9523 24.9975 28.8579 25.0065C28.8579 25.0066 28.8578 25.0066 28.8577 25.0066C28.7813 25.0139 28.7055 25.0272 28.6315 25.0465C28.5731 25.1569 28.5299 25.2828 28.5109 25.4213ZM28.5109 25.4213L28.516 25.4276L28.5109 25.4213ZM29.2926 25.97C29.3346 25.9836 29.3784 25.9925 29.4227 25.9968C29.4498 25.9271 29.4708 25.8526 29.484 25.7738C29.4867 25.7579 29.4891 25.7417 29.4911 25.7255L29.484 25.7342L29.2926 25.97ZM28.5089 25.7255L28.7073 25.97C28.6653 25.9836 28.6216 25.9925 28.5773 25.9968C28.5447 25.9131 28.5209 25.8223 28.5089 25.7255Z" fill="#6B6969" stroke="#EE436A" stroke-width="3"/>
<mask id="path-9-inside-3" fill="white">
<path d="M34.7733 25.2847C34.0712 24.9048 32.9287 24.9048 32.2267 25.2847C31.9244 25.4482 31.9244 25.7135 32.2267 25.8771C32.3778 25.9589 32.5759 25.9998 32.7739 25.9998C32.972 25.9998 33.1701 25.9588 33.3212 25.8771C33.4197 25.8238 33.5802 25.8237 33.6788 25.8771C33.981 26.0407 34.4711 26.0406 34.7733 25.877C35.0756 25.7135 35.0756 25.4483 34.7733 25.2847Z"/>
</mask>
<path d="M34.7733 25.2847C34.0712 24.9048 32.9287 24.9048 32.2267 25.2847C31.9244 25.4482 31.9244 25.7135 32.2267 25.8771C32.3778 25.9589 32.5759 25.9998 32.7739 25.9998C32.972 25.9998 33.1701 25.9588 33.3212 25.8771C33.4197 25.8238 33.5802 25.8237 33.6788 25.8771C33.981 26.0407 34.4711 26.0406 34.7733 25.877C35.0756 25.7135 35.0756 25.4483 34.7733 25.2847Z" fill="#6B6969"/>
<path d="M34.7733 25.2847L36.2015 22.6464L36.2009 22.6461L34.7733 25.2847ZM32.2267 25.2847L30.7989 22.6462L30.7988 22.6463L32.2267 25.2847ZM32.2267 25.8771L33.6551 23.239L33.6548 23.2388L32.2267 25.8771ZM33.3212 25.8771L31.8942 23.2382L31.8934 23.2387L33.3212 25.8771ZM33.6788 25.8771L35.1069 23.2388L35.1066 23.2387L33.6788 25.8771ZM34.7733 25.877L33.3455 23.2386L33.3452 23.2388L34.7733 25.877ZM36.2009 22.6461C35.3015 22.1595 34.3176 21.9998 33.5 21.9998C32.6824 21.9998 31.6984 22.1595 30.7989 22.6462L33.6544 27.9232C33.5388 27.9857 33.4677 28.0007 33.4639 28.0015C33.4558 28.0033 33.4703 27.9998 33.5 27.9998C33.5296 27.9998 33.5442 28.0033 33.5361 28.0015C33.5324 28.0007 33.4613 27.9858 33.3457 27.9232L36.2009 22.6461ZM30.7988 22.6463C30.1492 22.9978 29 23.9248 29 25.5809C29 27.2368 30.1491 28.1638 30.7985 28.5153L33.6548 23.2388C34.002 23.4268 35 24.1393 35 25.5809C35 27.0225 34.0019 27.7351 33.6545 27.9231L30.7988 22.6463ZM30.7982 28.5152C31.4971 28.8936 32.218 28.9998 32.7739 28.9998V22.9998C32.8763 22.9998 32.9936 23.0098 33.1257 23.0388C33.2534 23.0668 33.44 23.1225 33.6551 23.239L30.7982 28.5152ZM32.7739 28.9998C33.3304 28.9998 34.0508 28.8934 34.7491 28.5155L31.8934 23.2387C32.1081 23.1224 32.2944 23.0668 32.4221 23.0388C32.554 23.0099 32.6714 22.9998 32.7739 22.9998V28.9998ZM34.7482 28.516C34.2495 28.7856 33.7919 28.837 33.5005 28.8371C33.209 28.8371 32.7506 28.7859 32.2509 28.5155L35.1066 23.2387C34.5084 22.9149 33.9204 22.837 33.4995 22.8371C33.0785 22.8372 32.4914 22.9152 31.8942 23.2382L34.7482 28.516ZM32.2506 28.5153C32.9492 28.8935 33.6698 28.9998 34.2262 28.9998C34.7826 28.9997 35.5031 28.8933 36.2015 28.5153L33.3452 23.2388C33.7413 23.0243 34.0656 22.9998 34.2259 22.9998C34.3862 22.9997 34.7106 23.0243 35.1069 23.2388L32.2506 28.5153ZM36.2012 28.5154C36.8506 28.164 38 27.2371 38 25.5809C38 23.9248 36.8507 22.9979 36.2015 22.6464L33.3452 27.9229C32.9982 27.7351 32 27.0225 32 25.5809C32 24.1391 32.9983 23.4265 33.3455 23.2386L36.2012 28.5154Z" fill="#EE436A" mask="url(#path-9-inside-3)"/>
</svg>
