<svg width="63" height="61" viewBox="0 0 63 61" fill="none" xmlns="http://www.w3.org/2000/svg">
<ellipse cx="31.5" cy="30.5" rx="31.5" ry="30.5" fill="#D8D8D8"/>
<mask id="path-2-inside-1" fill="white">
<path d="M26.469 28.382H26.1637V25.9707C26.1637 25.685 25.9259 25.4533 25.6325 25.4533H25.5869V20.5201C25.5869 20.3242 25.4733 20.145 25.2933 20.0573L21.1826 18.0545C21.018 17.9743 20.8224 17.9828 20.6657 18.0771C20.5091 18.1714 20.4137 18.3379 20.4137 18.5173V25.4533H20.3681C20.0747 25.4533 19.8369 25.685 19.8369 25.9707V28.382H19.5312C19.2378 28.382 19 28.6137 19 28.8994V42.4824C19 42.7682 19.2378 42.9999 19.5312 42.9999H26.4688C26.7622 42.9999 27 42.7682 27 42.4824V28.8994C27.0001 28.6137 26.7624 28.382 26.469 28.382ZM21.4763 19.3547L24.5246 20.8399V25.4533H21.4763V19.3547ZM20.8995 26.4882H25.1014V28.382H20.8995V26.4882ZM25.9378 41.965H20.0625V29.4169H25.9378V41.965Z"/>
</mask>
<path d="M26.469 28.382H26.1637V25.9707C26.1637 25.685 25.9259 25.4533 25.6325 25.4533H25.5869V20.5201C25.5869 20.3242 25.4733 20.145 25.2933 20.0573L21.1826 18.0545C21.018 17.9743 20.8224 17.9828 20.6657 18.0771C20.5091 18.1714 20.4137 18.3379 20.4137 18.5173V25.4533H20.3681C20.0747 25.4533 19.8369 25.685 19.8369 25.9707V28.382H19.5312C19.2378 28.382 19 28.6137 19 28.8994V42.4824C19 42.7682 19.2378 42.9999 19.5312 42.9999H26.4688C26.7622 42.9999 27 42.7682 27 42.4824V28.8994C27.0001 28.6137 26.7624 28.382 26.469 28.382ZM21.4763 19.3547L24.5246 20.8399V25.4533H21.4763V19.3547ZM20.8995 26.4882H25.1014V28.382H20.8995V26.4882ZM25.9378 41.965H20.0625V29.4169H25.9378V41.965Z" fill="white"/>
<path d="M26.1637 28.382H23.1637V31.382H26.1637V28.382ZM25.5869 25.4533H22.5869V28.4533H25.5869V25.4533ZM25.2933 20.0573L23.9793 22.7542L23.9796 22.7544L25.2933 20.0573ZM21.1826 18.0545L22.4965 15.3576L22.4962 15.3574L21.1826 18.0545ZM20.6657 18.0771L22.2122 20.6478L22.213 20.6473L20.6657 18.0771ZM20.4137 25.4533V28.4533H23.4137V25.4533H20.4137ZM19.8369 28.382V31.382H22.8369V28.382H19.8369ZM27 28.8994L24 28.8979V28.8994H27ZM24.5246 20.8399H27.5246V18.9644L25.8386 18.143L24.5246 20.8399ZM24.5246 25.4533V28.4533H27.5246V25.4533H24.5246ZM21.4763 25.4533H18.4763V28.4533H21.4763V25.4533ZM20.8995 26.4882V23.4882H17.8995V26.4882H20.8995ZM25.1014 26.4882H28.1014V23.4882H25.1014V26.4882ZM25.1014 28.382V31.382H28.1014V28.382H25.1014ZM20.8995 28.382H17.8995V31.382H20.8995V28.382ZM20.0625 41.965H17.0625V44.965H20.0625V41.965ZM20.0625 29.4169V26.4169H17.0625V29.4169H20.0625ZM25.9378 29.4169H28.9378V26.4169H25.9378V29.4169ZM26.469 25.382H26.1637V31.382H26.469V25.382ZM29.1637 28.382V25.9707H23.1637V28.382H29.1637ZM29.1637 25.9707C29.1637 23.9548 27.5085 22.4533 25.6325 22.4533V28.4533C24.3433 28.4533 23.1637 27.4151 23.1637 25.9707H29.1637ZM25.6325 22.4533H25.5869V28.4533H25.6325V22.4533ZM28.5869 25.4533V20.5201H22.5869V25.4533H28.5869ZM28.5869 20.5201C28.5869 19.146 27.7909 17.9369 26.6069 17.3602L23.9796 22.7544C23.1557 22.3531 22.5869 21.5023 22.5869 20.5201H28.5869ZM26.6072 17.3604L22.4965 15.3576L19.8686 20.7514L23.9793 22.7542L26.6072 17.3604ZM22.4962 15.3574C21.4208 14.8336 20.1483 14.8869 19.1184 15.507L22.213 20.6473C21.4965 21.0787 20.6151 21.1151 19.8689 20.7516L22.4962 15.3574ZM19.1193 15.5065C18.0817 16.1307 17.4137 17.2611 17.4137 18.5173H23.4137C23.4137 19.4148 22.9365 20.2121 22.2122 20.6478L19.1193 15.5065ZM17.4137 18.5173V25.4533H23.4137V18.5173H17.4137ZM20.4137 22.4533H20.3681V28.4533H20.4137V22.4533ZM20.3681 22.4533C18.4921 22.4533 16.8369 23.9548 16.8369 25.9707H22.8369C22.8369 27.4151 21.6573 28.4533 20.3681 28.4533V22.4533ZM16.8369 25.9707V28.382H22.8369V25.9707H16.8369ZM19.8369 25.382H19.5312V31.382H19.8369V25.382ZM19.5312 25.382C17.6552 25.382 16 26.8835 16 28.8994H22C22 30.3438 20.8204 31.382 19.5312 31.382V25.382ZM16 28.8994V42.4824H22V28.8994H16ZM16 42.4824C16 44.4983 17.6552 45.9999 19.5312 45.9999V39.9999C20.8204 39.9999 22 41.038 22 42.4824H16ZM19.5312 45.9999H26.4688V39.9999H19.5312V45.9999ZM26.4688 45.9999C28.3448 45.9999 30 44.4983 30 42.4824H24C24 41.038 25.1796 39.9999 26.4688 39.9999V45.9999ZM30 42.4824V28.8994H24V42.4824H30ZM30 28.9009C30.001 26.8835 28.3446 25.382 26.469 25.382V31.382C25.1801 31.382 23.9993 30.3438 24 28.8979L30 28.9009ZM20.1623 22.0517L23.2106 23.5368L25.8386 18.143L22.7903 16.6578L20.1623 22.0517ZM21.5246 20.8399V25.4533H27.5246V20.8399H21.5246ZM24.5246 22.4533H21.4763V28.4533H24.5246V22.4533ZM24.4763 25.4533V19.3547H18.4763V25.4533H24.4763ZM20.8995 29.4882H25.1014V23.4882H20.8995V29.4882ZM22.1014 26.4882V28.382H28.1014V26.4882H22.1014ZM25.1014 25.382H20.8995V31.382H25.1014V25.382ZM23.8995 28.382V26.4882H17.8995V28.382H23.8995ZM25.9378 38.965H20.0625V44.965H25.9378V38.965ZM23.0625 41.965V29.4169H17.0625V41.965H23.0625ZM20.0625 32.4169H25.9378V26.4169H20.0625V32.4169ZM22.9378 29.4169V41.965H28.9378V29.4169H22.9378Z" fill="#EE436A" mask="url(#path-2-inside-1)"/>
<mask id="path-4-inside-2" fill="white">
<path d="M45.4489 36.9999H27.551C27.2466 36.9999 27 37.204 27 37.4559C27 37.7077 27.2466 37.9119 27.551 37.9119H44.5722L44.4462 38.1286C43.754 39.3188 42.2754 40.0879 40.6793 40.0879H27.551C27.2466 40.0879 27 40.2921 27 40.5439C27 40.7957 27.2466 40.9999 27.551 40.9999H40.6793C42.6963 40.9999 44.5647 40.0281 45.4392 38.524L45.9455 37.6536C46.0277 37.5123 46.0164 37.3459 45.9155 37.2132C45.8146 37.0805 45.6384 36.9999 45.4489 36.9999Z"/>
</mask>
<path d="M45.4489 36.9999H27.551C27.2466 36.9999 27 37.204 27 37.4559C27 37.7077 27.2466 37.9119 27.551 37.9119H44.5722L44.4462 38.1286C43.754 39.3188 42.2754 40.0879 40.6793 40.0879H27.551C27.2466 40.0879 27 40.2921 27 40.5439C27 40.7957 27.2466 40.9999 27.551 40.9999H40.6793C42.6963 40.9999 44.5647 40.0281 45.4392 38.524L45.9455 37.6536C46.0277 37.5123 46.0164 37.3459 45.9155 37.2132C45.8146 37.0805 45.6384 36.9999 45.4489 36.9999Z" fill="white"/>
<path d="M44.5722 37.9119L47.1658 39.4196L49.7863 34.9119H44.5722V37.9119ZM44.4462 38.1286L47.0395 39.6368L47.0398 39.6364L44.4462 38.1286ZM45.4392 38.524L42.8459 37.0159L42.8458 37.0161L45.4392 38.524ZM45.9455 37.6536L43.3525 36.1448L43.3521 36.1454L45.9455 37.6536ZM45.4489 33.9999H27.551V39.9999H45.4489V33.9999ZM27.551 33.9999C26.1461 33.9999 24 35.0409 24 37.4559H30C30 38.3634 29.5478 39.0526 29.0741 39.4446C28.6067 39.8314 28.0584 39.9999 27.551 39.9999V33.9999ZM24 37.4559C24 39.8708 26.1461 40.9119 27.551 40.9119V34.9119C28.0584 34.9119 28.6067 35.0803 29.0741 35.4671C29.5478 35.8591 30 36.5483 30 37.4559H24ZM27.551 40.9119H44.5722V34.9119H27.551V40.9119ZM41.9786 36.4041L41.8526 36.6209L47.0398 39.6364L47.1658 39.4196L41.9786 36.4041ZM41.8529 36.6204C41.7925 36.7242 41.4098 37.0879 40.6793 37.0879V43.0879C43.141 43.0879 45.7155 41.9134 47.0395 39.6368L41.8529 36.6204ZM40.6793 37.0879H27.551V43.0879H40.6793V37.0879ZM27.551 37.0879C26.1461 37.0879 24 38.1289 24 40.5439H30C30 41.4514 29.5478 42.1406 29.0741 42.5326C28.6067 42.9194 28.0584 43.0879 27.551 43.0879V37.0879ZM24 40.5439C24 42.9589 26.1461 43.9999 27.551 43.9999V37.9999C28.0584 37.9999 28.6067 38.1684 29.0741 38.5551C29.5478 38.9472 30 39.6363 30 40.5439H24ZM27.551 43.9999H40.6793V37.9999H27.551V43.9999ZM40.6793 43.9999C43.5617 43.9999 46.5263 42.6228 48.0327 40.032L42.8458 37.0161C42.6031 37.4334 41.8308 37.9999 40.6793 37.9999V43.9999ZM48.0326 40.0322L48.5388 39.1618L43.3521 36.1454L42.8459 37.0159L48.0326 40.0322ZM48.5385 39.1623C49.2459 37.9466 49.1192 36.4706 48.3039 35.3979L43.527 39.0285C42.9135 38.2213 42.8095 37.078 43.3525 36.1448L48.5385 39.1623ZM48.3039 35.3979C47.5534 34.4104 46.4309 33.9999 45.4489 33.9999V39.9999C44.8459 39.9999 44.0758 39.7506 43.527 39.0285L48.3039 35.3979Z" fill="#EE436A" mask="url(#path-4-inside-2)"/>
<mask id="path-6-inside-3" fill="white">
<path d="M25.9412 19.7379C28.031 17.9831 30.7514 17.0166 33.6015 17.0166C39.8199 17.0166 44.879 21.6054 44.879 27.2457C44.879 30.2866 43.4017 33.1499 40.826 35.1014C40.5884 35.2814 40.5567 35.6019 40.7552 35.8174C40.866 35.9378 41.0252 35.9999 41.1856 35.9999C41.3123 35.9999 41.4398 35.9611 41.5446 35.8817C44.3762 33.7365 46 30.5888 46 27.2457C45.9999 21.0448 40.438 15.9999 33.6015 15.9999C30.4682 15.9999 27.4773 17.0625 25.1797 18.9919C24.9526 19.1827 24.9389 19.5043 25.1492 19.7104C25.3594 19.9163 25.714 19.9287 25.9412 19.7379Z"/>
</mask>
<path d="M25.9412 19.7379C28.031 17.9831 30.7514 17.0166 33.6015 17.0166C39.8199 17.0166 44.879 21.6054 44.879 27.2457C44.879 30.2866 43.4017 33.1499 40.826 35.1014C40.5884 35.2814 40.5567 35.6019 40.7552 35.8174C40.866 35.9378 41.0252 35.9999 41.1856 35.9999C41.3123 35.9999 41.4398 35.9611 41.5446 35.8817C44.3762 33.7365 46 30.5888 46 27.2457C45.9999 21.0448 40.438 15.9999 33.6015 15.9999C30.4682 15.9999 27.4773 17.0625 25.1797 18.9919C24.9526 19.1827 24.9389 19.5043 25.1492 19.7104C25.3594 19.9163 25.714 19.9287 25.9412 19.7379Z" fill="white"/>
<path d="M25.9412 19.7379L27.8699 22.0358L27.8705 22.0354L25.9412 19.7379ZM40.826 35.1014L42.6376 37.4926L42.6378 37.4925L40.826 35.1014ZM40.7552 35.8174L42.9623 33.7855L42.9618 33.7849L40.7552 35.8174ZM41.5446 35.8817L39.733 33.4904L39.7329 33.4905L41.5446 35.8817ZM46 27.2457H49V27.2456L46 27.2457ZM25.1797 18.9919L23.2504 16.6945L23.2503 16.6947L25.1797 18.9919ZM25.1492 19.7104L23.0495 21.8531L23.0499 21.8534L25.1492 19.7104ZM27.8705 22.0354C29.3943 20.7557 31.4231 20.0166 33.6015 20.0166V14.0166C30.0797 14.0166 26.6677 15.2105 24.012 17.4405L27.8705 22.0354ZM33.6015 20.0166C38.4452 20.0166 41.879 23.531 41.879 27.2457H47.879C47.879 19.6798 41.1946 14.0166 33.6015 14.0166V20.0166ZM41.879 27.2457C41.879 29.281 40.8961 31.2845 39.0143 32.7102L42.6378 37.4925C45.9073 35.0153 47.879 31.2922 47.879 27.2457H41.879ZM39.0145 32.7101C37.411 33.9249 37.1124 36.2906 38.5486 37.8499L42.9618 33.7849C44.0011 34.9132 43.7658 36.6379 42.6376 37.4926L39.0145 32.7101ZM38.5481 37.8493C39.2853 38.6501 40.2767 38.9999 41.1856 38.9999V32.9999C41.7737 32.9999 42.4468 33.2255 42.9623 33.7855L38.5481 37.8493ZM41.1856 38.9999C41.9146 38.9999 42.6903 38.7775 43.3564 38.2728L39.7329 33.4905C40.1893 33.1447 40.71 32.9999 41.1856 32.9999V38.9999ZM43.3563 38.2729C46.8819 35.6018 49 31.5942 49 27.2457H43C43 29.5833 41.8704 31.8711 39.733 33.4904L43.3563 38.2729ZM49 27.2456C48.9999 19.1192 41.8127 12.9999 33.6015 12.9999V18.9999C39.0633 18.9999 42.9999 22.9704 43 27.2457L49 27.2456ZM33.6015 12.9999C29.7964 12.9999 26.114 14.2899 23.2504 16.6945L27.1089 21.2893C28.8407 19.8351 31.14 18.9999 33.6015 18.9999V12.9999ZM23.2503 16.6947C21.6853 18.0091 21.5564 20.39 23.0495 21.8531L27.2489 17.5676C28.3214 18.6186 28.2198 20.3563 27.1091 21.2892L23.2503 16.6947ZM23.0499 21.8534C24.3766 23.1531 26.4749 23.2067 27.8699 22.0358L24.0126 17.4401C24.9531 16.6506 26.3422 16.6795 27.2485 17.5673L23.0499 21.8534Z" fill="#EE436A" mask="url(#path-6-inside-3)"/>
<mask id="path-8-inside-4" fill="white">
<path d="M33.6425 19.0019C38.2278 19.0019 41.9581 22.5898 41.9581 26.9999C41.9581 31.41 38.2278 34.9978 33.6425 34.9978C31.5811 34.9978 29.6038 34.2671 28.0746 32.9405C27.8611 32.7552 27.5317 32.7714 27.3389 32.9769C27.1462 33.1823 27.1631 33.4992 27.3768 33.6845C29.0977 35.1776 31.3228 35.9999 33.6425 35.9999C38.8022 35.9999 43 31.9625 43 26.9999C43 22.0373 38.8022 17.9999 33.6425 17.9999C30.6791 17.9999 27.86 19.372 26.1014 21.6704C25.9308 21.8932 25.9805 22.2069 26.2122 22.3709C26.4439 22.5348 26.7699 22.4872 26.9405 22.2643C28.5036 20.2216 31.009 19.0019 33.6425 19.0019Z"/>
</mask>
<path d="M33.6425 19.0019C38.2278 19.0019 41.9581 22.5898 41.9581 26.9999C41.9581 31.41 38.2278 34.9978 33.6425 34.9978C31.5811 34.9978 29.6038 34.2671 28.0746 32.9405C27.8611 32.7552 27.5317 32.7714 27.3389 32.9769C27.1462 33.1823 27.1631 33.4992 27.3768 33.6845C29.0977 35.1776 31.3228 35.9999 33.6425 35.9999C38.8022 35.9999 43 31.9625 43 26.9999C43 22.0373 38.8022 17.9999 33.6425 17.9999C30.6791 17.9999 27.86 19.372 26.1014 21.6704C25.9308 21.8932 25.9805 22.2069 26.2122 22.3709C26.4439 22.5348 26.7699 22.4872 26.9405 22.2643C28.5036 20.2216 31.009 19.0019 33.6425 19.0019Z" fill="white"/>
<path d="M28.0746 32.9405L26.1082 35.2061L26.1087 35.2066L28.0746 32.9405ZM27.3389 32.9769L25.1512 30.9241L25.1508 30.9246L27.3389 32.9769ZM27.3768 33.6845L29.3429 31.4185L29.3425 31.4182L27.3768 33.6845ZM26.1014 21.6704L28.4836 23.4939L28.484 23.4934L26.1014 21.6704ZM26.2122 22.3709L24.479 24.8196L24.4795 24.8199L26.2122 22.3709ZM26.9405 22.2643L29.3224 24.0883L29.3231 24.0874L26.9405 22.2643ZM33.6425 22.0019C36.6821 22.0019 38.9581 24.3557 38.9581 26.9999H44.9581C44.9581 20.8239 39.7734 16.0019 33.6425 16.0019V22.0019ZM38.9581 26.9999C38.9581 29.644 36.6821 31.9978 33.6425 31.9978V37.9978C39.7734 37.9978 44.9581 33.1759 44.9581 26.9999H38.9581ZM33.6425 31.9978C32.289 31.9978 31.0134 31.5184 30.0406 30.6744L26.1087 35.2066C28.1942 37.0159 30.8732 37.9978 33.6425 37.9978V31.9978ZM30.0411 30.6748C28.6181 29.4398 26.4536 29.536 25.1512 30.9241L29.5266 35.0297C28.6097 36.0068 27.1042 36.0706 26.1082 35.2061L30.0411 30.6748ZM25.1508 30.9246C23.7852 32.3804 23.9202 34.6576 25.4111 35.9508L29.3425 31.4182C30.4061 32.3407 30.5072 33.9842 29.527 35.0292L25.1508 30.9246ZM25.4107 35.9504C27.688 37.9263 30.6149 38.9999 33.6425 38.9999V32.9999C32.0308 32.9999 30.5073 32.4289 29.3429 31.4185L25.4107 35.9504ZM33.6425 38.9999C40.3479 38.9999 46 33.7284 46 26.9999H40C40 30.1966 37.2566 32.9999 33.6425 32.9999V38.9999ZM46 26.9999C46 20.2713 40.3479 14.9999 33.6425 14.9999V20.9999C37.2566 20.9999 40 23.8032 40 26.9999H46ZM33.6425 14.9999C29.7713 14.9999 26.0609 16.7865 23.7189 19.8474L28.484 23.4934C29.6592 21.9575 31.5869 20.9999 33.6425 20.9999V14.9999ZM23.7192 19.8469C22.4934 21.4483 22.888 23.6935 24.479 24.8196L27.9454 19.9222C29.073 20.7203 29.3683 22.3381 28.4836 23.4939L23.7192 19.8469ZM24.4795 24.8199C26.0025 25.8975 28.1525 25.616 29.3224 24.0883L24.5587 20.4404C25.3873 19.3584 26.8853 19.1722 27.9449 19.9219L24.4795 24.8199ZM29.3231 24.0874C30.3028 22.8069 31.9171 22.0019 33.6425 22.0019V16.0019C30.101 16.0019 26.7043 17.6362 24.558 20.4413L29.3231 24.0874Z" fill="#EE436A" mask="url(#path-8-inside-4)"/>
<mask id="path-10-inside-5" fill="white">
<path d="M39.9883 23.1445L29.1736 32.1568C28.9421 32.3497 28.9421 32.6624 29.1736 32.8552C29.2893 32.9516 29.441 32.9999 29.5927 32.9999C29.7443 32.9999 29.896 32.9517 30.0118 32.8552L40.8264 23.8429C41.0579 23.65 41.0579 23.3373 40.8264 23.1445C40.5949 22.9517 40.2197 22.9517 39.9883 23.1445Z"/>
</mask>
<path d="M39.9883 23.1445L29.1736 32.1568C28.9421 32.3497 28.9421 32.6624 29.1736 32.8552C29.2893 32.9516 29.441 32.9999 29.5927 32.9999C29.7443 32.9999 29.896 32.9517 30.0118 32.8552L40.8264 23.8429C41.0579 23.65 41.0579 23.3373 40.8264 23.1445C40.5949 22.9517 40.2197 22.9517 39.9883 23.1445Z" fill="white"/>
<path d="M29.1736 32.8552L27.2534 35.1602L27.2538 35.1605L29.1736 32.8552ZM30.0118 32.8552L31.9323 35.1599L31.9323 35.1599L30.0118 32.8552ZM40.8264 23.8429L38.9059 21.5382L38.9059 21.5382L40.8264 23.8429ZM40.8264 23.1445L38.9062 25.4495L40.8264 23.1445ZM38.0677 20.8399L27.253 29.8522L31.0941 34.4615L41.9089 25.4492L38.0677 20.8399ZM27.253 29.8522C26.5045 30.4759 26 31.4247 26 32.5061C26 33.5874 26.5046 34.5364 27.2534 35.1602L31.0937 30.5502C31.6111 30.9812 32 31.6775 32 32.5061C32 33.3346 31.6112 34.0306 31.0941 34.4615L27.253 29.8522ZM27.2538 35.1605C27.976 35.762 28.8327 35.9999 29.5927 35.9999V29.9999C30.0494 29.9999 30.6026 30.1412 31.0934 30.5499L27.2538 35.1605ZM29.5927 35.9999C30.3518 35.9999 31.2092 35.7625 31.9323 35.1599L28.0912 30.5506C28.5829 30.1408 29.1368 29.9999 29.5927 29.9999V35.9999ZM31.9323 35.1599L42.747 26.1476L38.9059 21.5382L28.0912 30.5506L31.9323 35.1599ZM42.747 26.1476C43.4955 25.5238 44 24.575 44 23.4937C44 22.4123 43.4954 21.4633 42.7466 20.8395L38.9062 25.4495C38.3889 25.0185 38 24.3223 38 23.4937C38 22.6652 38.3888 21.9691 38.9059 21.5382L42.747 26.1476ZM42.7466 20.8395C41.4029 19.7201 39.4119 19.7197 38.0677 20.8399L41.9089 25.4492C41.4174 25.8588 40.8635 25.9999 40.4073 25.9999C39.9512 25.9999 39.3975 25.8588 38.9062 25.4495L42.7466 20.8395Z" fill="#EE436A" mask="url(#path-10-inside-5)"/>
<mask id="path-12-inside-6" fill="white">
<path d="M33.1492 33.1301C32.9503 33.3291 32.9503 33.6517 33.1492 33.8506C33.2488 33.9501 33.3792 33.9999 33.5096 33.9999C33.6399 33.9999 33.7704 33.9501 33.8699 33.8506L40.8508 26.8696C41.0497 26.6707 41.0497 26.348 40.8508 26.1491C40.6517 25.9501 40.3292 25.9501 40.1302 26.1491L33.1492 33.1301Z"/>
</mask>
<path d="M33.1492 33.1301C32.9503 33.3291 32.9503 33.6517 33.1492 33.8506C33.2488 33.9501 33.3792 33.9999 33.5096 33.9999C33.6399 33.9999 33.7704 33.9501 33.8699 33.8506L40.8508 26.8696C41.0497 26.6707 41.0497 26.348 40.8508 26.1491C40.6517 25.9501 40.3292 25.9501 40.1302 26.1491L33.1492 33.1301Z" fill="white"/>
<path d="M33.1492 33.1301L31.0279 31.0088L31.0279 31.0088L33.1492 33.1301ZM33.1492 33.8506L31.0283 35.9723L31.0286 35.9727L33.1492 33.8506ZM33.8699 33.8506L31.7485 31.7293H31.7485L33.8699 33.8506ZM40.8508 26.8696L42.9721 28.9909L40.8508 26.8696ZM40.8508 26.1491L38.7298 28.2708L40.8508 26.1491ZM40.1302 26.1491L42.2515 28.2704L42.2515 28.2704L40.1302 26.1491ZM31.0279 31.0088C29.6576 32.3792 29.657 34.6015 31.0283 35.9723L35.2702 31.729C36.2435 32.7019 36.2429 34.279 35.2706 35.2514L31.0279 31.0088ZM31.0286 35.9727C31.7126 36.6561 32.6154 36.9999 33.5096 36.9999V30.9999C34.143 30.9999 34.7849 31.244 35.2698 31.7286L31.0286 35.9727ZM33.5096 36.9999C34.4028 36.9999 35.3063 36.6568 35.9912 35.9719L31.7485 31.7293C32.2344 31.2435 32.877 30.9999 33.5096 30.9999V36.9999ZM35.9912 35.9719L42.9721 28.9909L38.7294 24.7483L31.7485 31.7293L35.9912 35.9719ZM42.9721 28.9909C44.3424 27.6206 44.343 25.3982 42.9717 24.0274L38.7298 28.2708C37.7565 27.2978 37.7571 25.7207 38.7294 24.7483L42.9721 28.9909ZM42.9717 24.0274C41.6014 22.6576 39.3796 22.657 38.0089 24.0278L42.2515 28.2704C41.2787 29.2432 39.702 29.2427 38.7298 28.2708L42.9717 24.0274ZM38.0089 24.0278L31.0279 31.0088L35.2706 35.2514L42.2515 28.2704L38.0089 24.0278Z" fill="#EE436A" mask="url(#path-12-inside-6)"/>
</svg>
