<svg width="22" height="25" viewBox="0 0 22 25" fill="none" xmlns="http://www.w3.org/2000/svg">
<path d="M16.7619 7.50208V6.00216C16.7619 2.6939 14.0276 0.00248718 10.6667 0.00248718C7.30573 0.00248718 4.57144 2.6939 4.57144 6.00216V7.50208H0V20.2514C0 22.3224 1.70557 24.0012 3.80953 24.0012H17.5238C19.6278 24.0012 21.3334 22.3224 21.3334 20.2514V7.50208H16.7619ZM7.61906 6.00216C7.61906 4.34803 8.98621 3.00233 10.6667 3.00233C12.3472 3.00233 13.7143 4.34803 13.7143 6.00216V7.50208H7.61906V6.00216ZM15.2381 11.6269C14.6069 11.6269 14.0953 11.1232 14.0953 10.5019C14.0953 9.88062 14.6069 9.37698 15.2381 9.37698C15.8693 9.37698 16.381 9.88062 16.381 10.5019C16.381 11.1232 15.8693 11.6269 15.2381 11.6269ZM6.09525 11.6269C5.46406 11.6269 4.95239 11.1232 4.95239 10.5019C4.95239 9.88062 5.46406 9.37698 6.09525 9.37698C6.72644 9.37698 7.23811 9.88062 7.23811 10.5019C7.23811 11.1232 6.72644 11.6269 6.09525 11.6269Z" fill="#6B6969"/>
</svg>
