<svg width="46" height="49" viewBox="0 0 46 49" fill="none" xmlns="http://www.w3.org/2000/svg">
<g clip-path="url(#clip0)">
<path d="M44.6805 29.8258C44.0145 29.8258 43.4748 30.4008 43.4748 31.1101V42.5137C43.4725 44.6403 41.8547 46.3641 39.8579 46.3666H6.02829C4.03142 46.3641 2.41367 44.6403 2.41132 42.5137V9.04644C2.41367 6.91934 4.03142 5.19609 6.02829 5.19358H16.7332C17.3992 5.19358 17.9389 4.61866 17.9389 3.90929C17.9389 3.19992 17.3992 2.625 16.7332 2.625H6.02829C2.70049 2.62901 0.00376768 5.50161 0 9.04644V42.5137C0.00376768 46.0585 2.70049 48.9311 6.02829 48.9352H39.8579C43.1857 48.9311 45.8824 46.0585 45.8861 42.5137V31.1106C45.8861 30.4013 45.3464 29.8258 44.6805 29.8258Z" fill="#9A9898"/>
<path d="M18.8525 23.0671L36.4565 4.31445L42.1339 10.3621L24.5299 29.1148L18.8525 23.0671Z" fill="#9A9898"/>
<path d="M15.9805 32.1755L22.2546 30.3243L17.7183 25.4922L15.9805 32.1755Z" fill="#9A9898"/>
<path d="M43.7035 1.13603C42.5256 -0.115654 40.6187 -0.115654 39.4408 1.13603L38.1622 2.49807L43.8396 8.54577L45.1183 7.18372C46.2938 5.92903 46.2938 3.89775 45.1183 2.64306L43.7035 1.13603Z" fill="#9A9898"/>
</g>
<defs>
<clipPath id="clip0">
<rect width="46" height="49" fill="white"/>
</clipPath>
</defs>
</svg>
