<svg width="63" height="61" viewBox="0 0 63 61" fill="none" xmlns="http://www.w3.org/2000/svg">
<ellipse cx="31.5" cy="30.5" rx="31.5" ry="30.5" fill="#D8D8D8"/>
<path d="M45.1017 23.0001H17.8983C17.4022 23.0001 17 23.3927 17 23.8771V37.1231C17 37.6075 17.4022 38.0001 17.8983 38.0001C18.3944 38.0001 18.7966 37.6075 18.7966 37.1231V24.7541H44.2034V37.123C44.2034 37.6074 44.6056 38 45.1017 38C45.5978 38 46 37.6074 46 37.123V23.8771C45.9999 23.3927 45.5977 23.0001 45.1017 23.0001Z" fill="#EE436A"/>
<path d="M51.2059 40.0644H49.5808V22.5246C49.5808 21.1326 48.3842 20 46.9135 20H16.0866C14.6158 20 13.4193 21.1326 13.4193 22.5246V40.0644H11.7941C11.3555 40.0644 11 40.4009 11 40.8161V42.2917C11 44.3365 12.7575 46 14.9177 46H48.0823C50.2425 46 52 44.3365 52 42.2917V40.8161C52.0001 40.4009 51.6446 40.0644 51.2059 40.0644ZM15.184 22.5246C15.184 22.0536 15.589 21.6703 16.0866 21.6703H46.9133C47.4111 21.6703 47.8159 22.0536 47.8159 22.5246V40.0644H35.8682C35.8119 40.0627 35.7539 40.0672 35.6962 40.0778C35.3224 40.1458 35.0523 40.4555 35.0523 40.8158C35.0523 41.4503 34.507 41.9664 33.8368 41.9664H29.1634C28.493 41.9664 27.9478 41.4502 27.9478 40.8158C27.9478 40.3949 27.5794 40.0553 27.1353 40.0643H15.184V22.5246ZM50.4118 42.2917C50.4118 43.5076 49.3667 44.4966 48.0823 44.4966H14.9177C13.6333 44.4966 12.5883 43.5076 12.5883 42.2917V41.5678H26.4741C26.8174 42.6662 27.8931 43.4698 29.1633 43.4698H33.8367C35.1069 43.4698 36.1826 42.6661 36.526 41.5678H50.4119V42.2917H50.4118Z" fill="#EE436A"/>
<path d="M32.7173 28.2475C32.3403 27.9177 31.7294 27.9177 31.3523 28.2475L25.2827 33.5585C24.9058 33.8883 24.9058 34.423 25.2827 34.7528C25.4712 34.9177 25.7182 35.0001 25.9651 35.0001C26.2121 35.0001 26.459 34.9176 26.6475 34.7528L32.7173 29.4418C33.0942 29.112 33.0942 28.5773 32.7173 28.2475Z" fill="#EE436A"/>
<path d="M36.675 31.2598C36.2415 30.9131 35.539 30.9131 35.1055 31.2598L32.325 33.4841C31.8917 33.8308 31.8917 34.393 32.325 34.7397C32.5418 34.9131 32.8258 34.9998 33.1097 34.9998C33.3939 34.9998 33.6777 34.9131 33.8944 34.7397L36.6749 32.5154C37.1084 32.1687 37.1084 31.6066 36.675 31.2598Z" fill="#EE436A"/>
</svg>
