<svg width="34" height="34" viewBox="0 0 34 34" fill="none" xmlns="http://www.w3.org/2000/svg">
<g clip-path="url(#clip0)">
<path d="M14.6954 26.2717H9.30566V32.7394H14.6954V26.2717Z" fill="#750C41"/>
<path d="M24.3971 26.2717H19.5464V32.7394H24.3971V26.2717Z" fill="#750C41"/>
<path d="M13.9408 15.0609C13.7252 17.2707 10.7609 18.7259 7.41922 18.3486C4.07759 17.9714 0.628159 14.8453 0.897646 12.6355C1.11324 10.4257 4.93995 10.0484 8.33548 10.4257C11.6771 10.803 14.2103 12.905 13.9408 15.0609Z" fill="#750C41"/>
<path d="M31.6732 21.6364C31.6732 28.2657 25.4211 30.0443 17.7138 30.0443C10.0065 30.0443 3.75439 28.2657 3.75439 21.6364C3.75439 14.9531 10.0065 9.56335 17.7138 9.56335C25.4211 9.56335 31.6732 14.9531 31.6732 21.6364Z" fill="#EF378B"/>
<path d="M31.6732 22.0676C31.6732 28.3736 25.4211 30.0444 17.7138 30.0444C10.0065 30.0444 3.75439 28.3736 3.75439 22.0676C3.75439 15.7616 10.0065 10.6414 17.7138 10.6414C25.4211 10.6414 31.6732 15.7616 31.6732 22.0676Z" fill="#D61E69"/>
<path d="M31.6732 21.6364C31.9966 28.3735 25.4211 30.0443 17.7138 30.0443C10.0065 30.0443 3.75439 28.2657 3.75439 21.6364" fill="#C61867"/>
<path d="M27.092 26.2715H22.2412V32.7392H27.092V26.2715Z" fill="#EF378B"/>
<path d="M22.2407 26.2715H27.0915V32.7392" fill="#D61E69"/>
<path d="M10.6531 29.236C14.4334 29.236 17.498 27.2573 17.498 24.8164C17.498 22.3756 14.4334 20.3969 10.6531 20.3969C6.8727 20.3969 3.80811 22.3756 3.80811 24.8164C3.80811 27.2573 6.8727 29.236 10.6531 29.236Z" fill="#D61E69"/>
<path d="M18.468 15.2226C17.929 17.5941 14.5335 18.8876 10.8685 18.1331C7.20348 17.3785 3.75405 13.444 4.23912 11.0725C4.7781 8.70105 8.98209 8.70105 12.701 9.50951C16.4199 10.318 18.9531 12.8511 18.468 15.2226Z" fill="#D61E69"/>
<path d="M4.23926 11.0725C4.77823 8.70105 8.98222 8.70105 12.7011 9.50951C16.4201 10.318 18.9532 12.8511 18.4682 15.2226" fill="#EF378B"/>
<path d="M3.80828 26.2714C4.85011 26.2714 5.69469 24.7029 5.69469 22.7681C5.69469 20.8333 4.85011 19.2648 3.80828 19.2648C2.76645 19.2648 1.92188 20.8333 1.92188 22.7681C1.92188 24.7029 2.76645 26.2714 3.80828 26.2714Z" fill="#D61E69"/>
<path d="M3.05372 26.2714C3.67882 26.2714 4.18556 24.7029 4.18556 22.7681C4.18556 20.8333 3.67882 19.2648 3.05372 19.2648C2.42862 19.2648 1.92188 20.8333 1.92188 22.7681C1.92188 24.7029 2.42862 26.2714 3.05372 26.2714Z" fill="#EF599D"/>
<path d="M2.89193 24.2233C3.1003 24.2233 3.26921 23.4994 3.26921 22.6064C3.26921 21.7134 3.1003 20.9895 2.89193 20.9895C2.68356 20.9895 2.51465 21.7134 2.51465 22.6064C2.51465 23.4994 2.68356 24.2233 2.89193 24.2233Z" fill="#C61867"/>
<path d="M7.58097 18.7259C7.87863 18.7259 8.11994 18.4846 8.11994 18.1869C8.11994 17.8893 7.87863 17.6479 7.58097 17.6479C7.2833 17.6479 7.04199 17.8893 7.04199 18.1869C7.04199 18.4846 7.2833 18.7259 7.58097 18.7259Z" fill="#63113A"/>
<path d="M7.4731 18.2406C7.62193 18.2406 7.74259 18.12 7.74259 17.9711C7.74259 17.8223 7.62193 17.7017 7.4731 17.7017C7.32427 17.7017 7.20361 17.8223 7.20361 17.9711C7.20361 18.12 7.32427 18.2406 7.4731 18.2406Z" fill="#841E56"/>
<path d="M12.216 23.2532C13.8829 23.2532 15.2343 22.7223 15.2343 22.0675C15.2343 21.4126 13.8829 20.8817 12.216 20.8817C10.5491 20.8817 9.19775 21.4126 9.19775 22.0675C9.19775 22.7223 10.5491 23.2532 12.216 23.2532Z" fill="#EF378B"/>
<path d="M33.6675 20.8816C33.6675 21.1511 33.4519 21.4206 33.1824 21.4206H28.9245C28.655 21.4206 28.4395 21.1511 28.4395 20.8816C28.4395 20.6121 28.655 20.3427 28.9245 20.3427H33.1824C33.4519 20.3427 33.6675 20.6121 33.6675 20.8816Z" fill="#D61E69"/>
<path d="M23.912 12.5816C23.912 14.0369 21.8639 15.2226 19.2768 15.2226C16.7436 15.2226 14.6416 14.0369 14.6416 12.5816C14.6416 11.1264 16.6897 9.94067 19.2768 9.94067C21.81 9.94067 23.912 11.1264 23.912 12.5816Z" fill="#EF378B"/>
<path d="M22.403 11.4498C22.403 11.6115 22.2952 11.7193 22.1874 11.7193H16.7976C16.6898 11.7193 16.582 11.6115 16.582 11.4498C16.582 11.2881 16.6898 11.1803 16.7976 11.1803H22.1874C22.2952 11.1803 22.403 11.2881 22.403 11.4498Z" fill="#D61E69"/>
<path d="M22.403 11.9886C22.403 12.1503 22.2952 12.2581 22.1874 12.2581H16.7976C16.6898 12.2581 16.582 12.1503 16.582 11.9886C16.582 11.8269 16.6898 11.7191 16.7976 11.7191H22.1874C22.2952 11.7191 22.403 11.8269 22.403 11.9886Z" fill="#63113A"/>
<path d="M16.8512 26.2715H12.0005V32.7392H16.8512V26.2715Z" fill="#EF378B"/>
<path d="M12.0005 26.2715H16.8512V32.7392" fill="#D61E69"/>
<path d="M19.2228 11.5576C20.8898 11.5576 22.2411 10.2063 22.2411 8.53937C22.2411 6.87244 20.8898 5.52112 19.2228 5.52112C17.5559 5.52112 16.2046 6.87244 16.2046 8.53937C16.2046 10.2063 17.5559 11.5576 19.2228 11.5576Z" fill="#B5750F"/>
<path d="M19.2228 11.1803C20.8898 11.1803 22.2411 9.82898 22.2411 8.16205C22.2411 6.49512 20.8898 5.1438 19.2228 5.1438C17.5559 5.1438 16.2046 6.49512 16.2046 8.16205C16.2046 9.82898 17.5559 11.1803 19.2228 11.1803Z" fill="#DD981D"/>
<path d="M19.2227 5.1438C20.8935 5.1438 22.2409 6.49123 22.2409 8.16205C22.2409 9.83287 20.8935 11.1803 19.2227 11.1803" fill="#CE8106"/>
<path d="M19.223 10.1025C20.2946 10.1025 21.1633 9.23383 21.1633 8.16223C21.1633 7.09063 20.2946 6.22192 19.223 6.22192C18.1514 6.22192 17.2827 7.09063 17.2827 8.16223C17.2827 9.23383 18.1514 10.1025 19.223 10.1025Z" fill="#EFB65B"/>
<path d="M20.6242 6.81445C21.3788 7.56902 21.3788 8.80865 20.6242 9.56322C19.8697 10.3178 18.63 10.3178 17.8755 9.56322" fill="#E2A750"/>
<path d="M25.3132 7.89246C26.9801 7.89246 28.3314 6.54114 28.3314 4.87421C28.3314 3.20727 26.9801 1.85596 25.3132 1.85596C23.6462 1.85596 22.2949 3.20727 22.2949 4.87421C22.2949 6.54114 23.6462 7.89246 25.3132 7.89246Z" fill="#B5750F"/>
<path d="M25.0436 7.62293C26.7106 7.62293 28.0619 6.27161 28.0619 4.60468C28.0619 2.93774 26.7106 1.58643 25.0436 1.58643C23.3767 1.58643 22.0254 2.93774 22.0254 4.60468C22.0254 6.27161 23.3767 7.62293 25.0436 7.62293Z" fill="#DD981D"/>
<path d="M22.8877 2.449C24.0734 1.26326 26.0137 1.26326 27.1995 2.449C28.3852 3.63474 28.3852 5.57504 27.1995 6.76078" fill="#CE8106"/>
<path d="M25.0438 6.54516C26.1154 6.54516 26.9841 5.67646 26.9841 4.60486C26.9841 3.53325 26.1154 2.66455 25.0438 2.66455C23.9722 2.66455 23.1035 3.53325 23.1035 4.60486C23.1035 5.67646 23.9722 6.54516 25.0438 6.54516Z" fill="#EFB65B"/>
<path d="M25.0435 2.66455C26.1214 2.66455 26.9838 3.52691 26.9838 4.60486C26.9838 5.6828 26.1214 6.54516 25.0435 6.54516" fill="#E2A750"/>
<path d="M31.8347 5.52125C32.9659 5.52125 33.8828 4.60428 33.8828 3.47315C33.8828 2.34201 32.9659 1.42505 31.8347 1.42505C30.7036 1.42505 29.7866 2.34201 29.7866 3.47315C29.7866 4.60428 30.7036 5.52125 31.8347 5.52125Z" fill="#B5750F"/>
<path d="M31.5652 5.52125C32.6963 5.52125 33.6133 4.60428 33.6133 3.47315C33.6133 2.34201 32.6963 1.42505 31.5652 1.42505C30.4341 1.42505 29.5171 2.34201 29.5171 3.47315C29.5171 4.60428 30.4341 5.52125 31.5652 5.52125Z" fill="#DD981D"/>
<path d="M29.5171 3.47315C29.5171 2.3413 30.4333 1.42505 31.5652 1.42505C32.697 1.42505 33.6133 2.3413 33.6133 3.47315" fill="#CE8106"/>
<path d="M31.5652 4.82023C32.3094 4.82023 32.9126 4.21697 32.9126 3.4728C32.9126 2.72863 32.3094 2.12537 31.5652 2.12537C30.821 2.12537 30.2178 2.72863 30.2178 3.4728C30.2178 4.21697 30.821 4.82023 31.5652 4.82023Z" fill="#EFB65B"/>
<path d="M30.6489 2.50274C31.1879 1.96377 31.9964 1.96377 32.5353 2.50274C33.0743 3.04171 33.0743 3.85017 32.5353 4.38915" fill="#E2A750"/>
</g>
<defs>
<clipPath id="clip0">
<rect width="33" height="33" fill="white" transform="translate(0.882812 0.582031)"/>
</clipPath>
</defs>
</svg>
