<svg width="63" height="61" viewBox="0 0 63 61" fill="none" xmlns="http://www.w3.org/2000/svg">
<ellipse cx="31.5" cy="30.5" rx="31.5" ry="30.5" fill="#D8D8D8"/>
<mask id="path-2-inside-1" fill="white">
<path d="M43.9027 40.5741L40.26 29.4174C40.662 29.2019 40.9372 28.7951 40.9372 28.3232C40.9372 27.8113 40.615 27.3713 40.1562 27.1751L41.2574 22.9524C41.3351 22.6549 41.3746 22.3487 41.3746 22.0414V21.6863C41.3746 20.6599 40.6253 19.8019 39.6248 19.5779V17H38.7498V19.5449C37.9714 19.6639 37.3097 20.1609 37.0096 20.8805L36.9999 20.904L36.9903 20.8805C36.6902 20.1609 36.0282 19.6639 35.2501 19.5449V17H34.3751V19.5775C33.3746 19.8019 32.6253 20.6595 32.6253 21.6859C32.6253 22.2277 32.6947 22.7695 32.8322 23.2962L33.8435 27.1751C33.3846 27.3713 33.0627 27.8113 33.0627 28.3232C33.0627 28.7951 33.3378 29.2019 33.7399 29.4174L30.097 40.5741C29.8552 41.3152 30.0731 42.1138 30.6663 42.6585C30.6701 42.6622 30.6746 42.6661 30.6789 42.6694C30.9243 42.8895 31.2436 42.9999 31.563 42.9999C31.8872 42.9999 32.2113 42.8862 32.458 42.6594L32.6319 42.5C32.7893 42.3549 33.0548 42.3553 33.2122 42.4996L33.3859 42.6594C33.8798 43.1131 34.6836 43.1131 35.1774 42.6594L35.3507 42.5C35.5081 42.3549 35.7736 42.3553 35.9313 42.4996L36.1049 42.6594C36.5988 43.1131 37.402 43.1131 37.8958 42.6594L38.0695 42.4996C38.2265 42.3553 38.4926 42.3553 38.6496 42.4996L38.8233 42.6594C39.3167 43.114 40.1203 43.1131 40.6142 42.6594L40.7879 42.5C40.9455 42.3549 41.211 42.3553 41.3684 42.4996L41.5421 42.6594C42.0321 43.1095 42.8265 43.1127 43.3208 42.6702C43.3253 42.6661 43.33 42.6622 43.3341 42.6585C43.9268 42.1138 44.1451 41.3152 43.9027 40.5741ZM34.3751 28.7426C34.134 28.7426 33.9377 28.5549 33.9377 28.3232C33.9377 28.0919 34.134 27.9039 34.3751 27.9039H39.6248C39.8657 27.9039 40.0622 28.0919 40.0622 28.3232C40.0622 28.5549 39.8657 28.7426 39.6248 28.7426H34.3751ZM33.5002 21.6863C33.5002 20.9524 34.1231 20.355 34.8886 20.355C35.46 20.355 35.9657 20.6835 36.178 21.1917L36.5939 22.1882C36.6605 22.3475 36.8209 22.4519 36.9999 22.4519C37.1787 22.4519 37.3394 22.3475 37.4058 22.1882L37.8219 21.1917C38.034 20.6835 38.5403 20.355 39.111 20.355C39.8766 20.355 40.4997 20.9524 40.4997 21.6863V22.0414C40.4997 22.2801 40.4689 22.5183 40.4087 22.7493L39.283 27.0651H34.7167L33.6809 23.0933C33.5609 22.6332 33.5002 22.1597 33.5002 21.6863ZM32.0263 41.8939L31.8522 42.0538C31.6948 42.1984 31.4297 42.1984 31.2725 42.0538C31.2695 42.0508 31.2661 42.0479 31.2629 42.045C30.9177 41.7221 30.791 41.2556 30.9318 40.8246L34.6026 29.5814H35.1537L32.6498 41.5833C32.4213 41.6293 32.204 41.7313 32.0263 41.8939ZM34.7447 41.8939L34.5714 42.0538C34.414 42.198 34.1485 42.198 33.9915 42.0538L33.8174 41.8935C33.7277 41.8114 33.6254 41.7489 33.5186 41.6965L36.0462 29.5814H36.5625V41.9183L36.5358 41.8939C36.0428 41.4403 35.2392 41.4403 34.7447 41.8939ZM40.0084 42.0538C39.8514 42.1988 39.5863 42.198 39.4287 42.0538L39.2546 41.8935C38.7607 41.4407 37.9576 41.4403 37.4641 41.8939L37.4374 41.9183V29.5814H37.9535L40.4813 41.6969C40.3745 41.7493 40.2722 41.8118 40.1825 41.8945L40.0084 42.0538ZM42.7372 42.045C42.7338 42.0479 42.7304 42.0512 42.7272 42.0538C42.5698 42.1976 42.3043 42.1976 42.1477 42.0538L41.9736 41.8935C41.7963 41.7309 41.5784 41.6289 41.3501 41.5833L38.8459 29.5814H39.3973L43.0681 40.825C43.2085 41.2556 43.082 41.7221 42.7372 42.045Z"/>
</mask>
<path d="M43.9027 40.5741L40.26 29.4174C40.662 29.2019 40.9372 28.7951 40.9372 28.3232C40.9372 27.8113 40.615 27.3713 40.1562 27.1751L41.2574 22.9524C41.3351 22.6549 41.3746 22.3487 41.3746 22.0414V21.6863C41.3746 20.6599 40.6253 19.8019 39.6248 19.5779V17H38.7498V19.5449C37.9714 19.6639 37.3097 20.1609 37.0096 20.8805L36.9999 20.904L36.9903 20.8805C36.6902 20.1609 36.0282 19.6639 35.2501 19.5449V17H34.3751V19.5775C33.3746 19.8019 32.6253 20.6595 32.6253 21.6859C32.6253 22.2277 32.6947 22.7695 32.8322 23.2962L33.8435 27.1751C33.3846 27.3713 33.0627 27.8113 33.0627 28.3232C33.0627 28.7951 33.3378 29.2019 33.7399 29.4174L30.097 40.5741C29.8552 41.3152 30.0731 42.1138 30.6663 42.6585C30.6701 42.6622 30.6746 42.6661 30.6789 42.6694C30.9243 42.8895 31.2436 42.9999 31.563 42.9999C31.8872 42.9999 32.2113 42.8862 32.458 42.6594L32.6319 42.5C32.7893 42.3549 33.0548 42.3553 33.2122 42.4996L33.3859 42.6594C33.8798 43.1131 34.6836 43.1131 35.1774 42.6594L35.3507 42.5C35.5081 42.3549 35.7736 42.3553 35.9313 42.4996L36.1049 42.6594C36.5988 43.1131 37.402 43.1131 37.8958 42.6594L38.0695 42.4996C38.2265 42.3553 38.4926 42.3553 38.6496 42.4996L38.8233 42.6594C39.3167 43.114 40.1203 43.1131 40.6142 42.6594L40.7879 42.5C40.9455 42.3549 41.211 42.3553 41.3684 42.4996L41.5421 42.6594C42.0321 43.1095 42.8265 43.1127 43.3208 42.6702C43.3253 42.6661 43.33 42.6622 43.3341 42.6585C43.9268 42.1138 44.1451 41.3152 43.9027 40.5741ZM34.3751 28.7426C34.134 28.7426 33.9377 28.5549 33.9377 28.3232C33.9377 28.0919 34.134 27.9039 34.3751 27.9039H39.6248C39.8657 27.9039 40.0622 28.0919 40.0622 28.3232C40.0622 28.5549 39.8657 28.7426 39.6248 28.7426H34.3751ZM33.5002 21.6863C33.5002 20.9524 34.1231 20.355 34.8886 20.355C35.46 20.355 35.9657 20.6835 36.178 21.1917L36.5939 22.1882C36.6605 22.3475 36.8209 22.4519 36.9999 22.4519C37.1787 22.4519 37.3394 22.3475 37.4058 22.1882L37.8219 21.1917C38.034 20.6835 38.5403 20.355 39.111 20.355C39.8766 20.355 40.4997 20.9524 40.4997 21.6863V22.0414C40.4997 22.2801 40.4689 22.5183 40.4087 22.7493L39.283 27.0651H34.7167L33.6809 23.0933C33.5609 22.6332 33.5002 22.1597 33.5002 21.6863ZM32.0263 41.8939L31.8522 42.0538C31.6948 42.1984 31.4297 42.1984 31.2725 42.0538C31.2695 42.0508 31.2661 42.0479 31.2629 42.045C30.9177 41.7221 30.791 41.2556 30.9318 40.8246L34.6026 29.5814H35.1537L32.6498 41.5833C32.4213 41.6293 32.204 41.7313 32.0263 41.8939ZM34.7447 41.8939L34.5714 42.0538C34.414 42.198 34.1485 42.198 33.9915 42.0538L33.8174 41.8935C33.7277 41.8114 33.6254 41.7489 33.5186 41.6965L36.0462 29.5814H36.5625V41.9183L36.5358 41.8939C36.0428 41.4403 35.2392 41.4403 34.7447 41.8939ZM40.0084 42.0538C39.8514 42.1988 39.5863 42.198 39.4287 42.0538L39.2546 41.8935C38.7607 41.4407 37.9576 41.4403 37.4641 41.8939L37.4374 41.9183V29.5814H37.9535L40.4813 41.6969C40.3745 41.7493 40.2722 41.8118 40.1825 41.8945L40.0084 42.0538ZM42.7372 42.045C42.7338 42.0479 42.7304 42.0512 42.7272 42.0538C42.5698 42.1976 42.3043 42.1976 42.1477 42.0538L41.9736 41.8935C41.7963 41.7309 41.5784 41.6289 41.3501 41.5833L38.8459 29.5814H39.3973L43.0681 40.825C43.2085 41.2556 43.082 41.7221 42.7372 42.045Z" fill="#F2FFFF"/>
<path d="M43.9027 40.5741L41.0508 41.5053L41.0514 41.5069L43.9027 40.5741ZM40.26 29.4174L38.8431 26.7731L36.6283 27.9599L37.4082 30.3485L40.26 29.4174ZM40.1562 27.1751L37.2533 26.4181L36.6014 28.9179L38.9768 29.9335L40.1562 27.1751ZM41.2574 22.9524L38.3548 22.1939L38.3544 22.1954L41.2574 22.9524ZM39.6248 19.5779H36.6248V21.9805L38.9693 22.5054L39.6248 19.5779ZM39.6248 17H42.6248V14H39.6248V17ZM38.7498 17V14H35.7498V17H38.7498ZM38.7498 19.5449L39.2031 22.5105L41.7498 22.1212V19.5449H38.7498ZM37.0096 20.8805L34.2407 19.7257L34.2363 19.7362L34.232 19.7467L37.0096 20.8805ZM36.9999 20.904L34.2224 22.0378L36.9999 28.8423L39.7775 22.0378L36.9999 20.904ZM36.9903 20.8805L39.7679 19.7467L39.7635 19.7362L39.7592 19.7257L36.9903 20.8805ZM35.2501 19.5449H32.2501V22.1211L34.7967 22.5105L35.2501 19.5449ZM35.2501 17H38.2501V14H35.2501V17ZM34.3751 17V14H31.3751V17H34.3751ZM34.3751 19.5775L35.0318 22.5048L37.3751 21.9791V19.5775H34.3751ZM32.8322 23.2962L35.7352 22.5394L35.7349 22.5381L32.8322 23.2962ZM33.8435 27.1751L35.0228 29.9335L37.3981 28.918L36.7464 26.4183L33.8435 27.1751ZM33.7399 29.4174L36.5917 30.3485L37.3716 27.9599L35.1568 26.7731L33.7399 29.4174ZM30.097 40.5741L27.2452 39.643L27.245 39.6436L30.097 40.5741ZM30.6663 42.6585L32.7423 40.4929L32.7191 40.4706L32.6953 40.4488L30.6663 42.6585ZM30.6789 42.6694L32.6819 40.4361L32.5961 40.3591L32.5045 40.2889L30.6789 42.6694ZM32.458 42.6594L30.4313 40.4474L30.4273 40.4512L32.458 42.6594ZM32.6319 42.5L34.6586 44.712L34.6657 44.7054L32.6319 42.5ZM33.2122 42.4996L35.2431 40.2915L35.2399 40.2886L33.2122 42.4996ZM33.3859 42.6594L31.3551 44.8674L31.3561 44.8684L33.3859 42.6594ZM35.1774 42.6594L37.2072 44.8684L37.2082 44.8675L35.1774 42.6594ZM35.3507 42.5L37.3814 44.7082L37.3845 44.7054L35.3507 42.5ZM35.9313 42.4996L37.9621 40.2915L37.9574 40.2872L35.9313 42.4996ZM36.1049 42.6594L34.0741 44.8674L34.0751 44.8684L36.1049 42.6594ZM37.8958 42.6594L39.9256 44.8684L39.9267 44.8674L37.8958 42.6594ZM38.0695 42.4996L36.0389 40.2913L36.0386 40.2916L38.0695 42.4996ZM38.6496 42.4996L40.6805 40.2915L40.6802 40.2913L38.6496 42.4996ZM38.8233 42.6594L40.856 40.453L40.8542 40.4513L38.8233 42.6594ZM40.6142 42.6594L38.5862 40.4487L38.5844 40.4503L40.6142 42.6594ZM40.7879 42.5L42.8159 44.7107L42.8202 44.7068L40.7879 42.5ZM41.3684 42.4996L43.3993 40.2916L43.396 40.2886L41.3684 42.4996ZM41.5421 42.6594L39.5112 44.8674L39.5127 44.8688L41.5421 42.6594ZM43.3208 42.6702L45.3219 44.9053L45.3328 44.8956L45.3436 44.8857L43.3208 42.6702ZM43.3341 42.6585L45.351 44.8794L45.3575 44.8735L45.3639 44.8675L43.3341 42.6585ZM36.178 21.1917L38.9465 20.0362L38.9461 20.0353L36.178 21.1917ZM36.5939 22.1882L33.8253 23.3437L33.8263 23.3459L36.5939 22.1882ZM37.4058 22.1882L34.6375 21.0321L34.6369 21.0336L37.4058 22.1882ZM37.8219 21.1917L40.5902 22.3478L40.5905 22.3472L37.8219 21.1917ZM40.4087 22.7493L43.3116 23.5064L43.3116 23.5063L40.4087 22.7493ZM39.283 27.0651V30.0651H41.6009L42.1859 27.8223L39.283 27.0651ZM34.7167 27.0651L31.8138 27.8221L32.3987 30.0651H34.7167V27.0651ZM33.6809 23.0933L36.5838 22.3363L36.5837 22.3359L33.6809 23.0933ZM32.0263 41.8939L30.0013 39.6805L29.9967 39.6846L32.0263 41.8939ZM31.8522 42.0538L33.8814 44.2635L33.8818 44.2631L31.8522 42.0538ZM31.2725 42.0538L29.123 44.1466L29.1808 44.206L29.2418 44.2621L31.2725 42.0538ZM31.2629 42.045L29.2134 44.2358L29.2377 44.2585L29.2624 44.2807L31.2629 42.045ZM30.9318 40.8246L33.7836 41.7559L33.7836 41.7557L30.9318 40.8246ZM34.6026 29.5814V26.5814H32.4263L31.7508 28.6503L34.6026 29.5814ZM35.1537 29.5814L38.0905 30.1941L38.8442 26.5814H35.1537V29.5814ZM32.6498 41.5833L33.2426 44.5241L35.1825 44.1331L35.5866 42.196L32.6498 41.5833ZM34.7447 41.8939L32.7168 39.6831L32.7097 39.6896L34.7447 41.8939ZM34.5714 42.0538L36.5975 44.2664L36.6064 44.2581L34.5714 42.0538ZM33.9915 42.0538L31.9591 44.2605L31.9625 44.2636L33.9915 42.0538ZM33.8174 41.8935L35.8498 39.6868L35.8429 39.6805L33.8174 41.8935ZM33.5186 41.6965L30.5818 41.0838L30.1062 43.3635L32.1967 44.3896L33.5186 41.6965ZM36.0462 29.5814V26.5814H33.6075L33.1094 28.9687L36.0462 29.5814ZM36.5625 29.5814H39.5625V26.5814H36.5625V29.5814ZM36.5625 41.9183L34.5402 44.1342L39.5625 48.7177V41.9183H36.5625ZM36.5358 41.8939L34.5046 44.1017L34.5135 44.1098L36.5358 41.8939ZM40.0084 42.0538L37.9831 39.8407L37.9731 39.8498L40.0084 42.0538ZM39.4287 42.0538L37.3963 44.2605L37.4041 44.2677L39.4287 42.0538ZM39.2546 41.8935L41.287 39.6868L41.2819 39.6821L39.2546 41.8935ZM37.4641 41.8939L39.4864 44.1098L39.4944 44.1026L37.4641 41.8939ZM37.4374 41.9183H34.4374V48.7177L39.4597 44.1342L37.4374 41.9183ZM37.4374 29.5814V26.5814H34.4374V29.5814H37.4374ZM37.9535 29.5814L40.8903 28.9686L40.3922 26.5814H37.9535V29.5814ZM40.4813 41.6969L41.8032 44.39L43.8937 43.3639L43.4181 41.0842L40.4813 41.6969ZM40.1825 41.8945L42.2078 44.1077L42.2162 44.1L40.1825 41.8945ZM42.7372 42.045L44.6652 44.3435L44.7282 44.2907L44.7881 44.2345L42.7372 42.045ZM42.7272 42.0538L40.8101 39.7463L40.7561 39.7912L40.7043 39.8385L42.7272 42.0538ZM42.1477 42.0538L40.1153 44.2605L40.1188 44.2637L42.1477 42.0538ZM41.9736 41.8935L44.006 39.6868L44.0013 39.6825L41.9736 41.8935ZM41.3501 41.5833L38.4133 42.196L38.8182 44.1363L40.7618 44.525L41.3501 41.5833ZM38.8459 29.5814V26.5814H35.1554L35.9092 30.1941L38.8459 29.5814ZM39.3973 29.5814L42.2491 28.6503L41.5737 26.5814H39.3973V29.5814ZM43.0681 40.825L45.9205 39.8954L45.92 39.8939L43.0681 40.825ZM46.7545 39.643L43.1119 28.4862L37.4082 30.3485L41.0508 41.5053L46.7545 39.643ZM41.677 32.0616C42.945 31.3822 43.9372 30.019 43.9372 28.3232H37.9372C37.9372 27.5711 38.3791 27.0217 38.8431 26.7731L41.677 32.0616ZM43.9372 28.3232C43.9372 26.4989 42.7926 25.0396 41.3356 24.4166L38.9768 29.9335C38.4375 29.7029 37.9372 29.1237 37.9372 28.3232H43.9372ZM43.0591 27.9321L44.1603 23.7094L38.3544 22.1954L37.2533 26.4181L43.0591 27.9321ZM44.1599 23.7109C44.3021 23.1669 44.3746 22.6059 44.3746 22.0414H38.3746C38.3746 22.0916 38.3682 22.1428 38.3548 22.1939L44.1599 23.7109ZM44.3746 22.0414V21.6863H38.3746V22.0414H44.3746ZM44.3746 21.6863C44.3746 19.1302 42.5249 17.153 40.2802 16.6504L38.9693 22.5054C38.7257 22.4509 38.3746 22.1897 38.3746 21.6863H44.3746ZM42.6248 19.5779V17H36.6248V19.5779H42.6248ZM39.6248 14H38.7498V20H39.6248V14ZM35.7498 17V19.5449H41.7498V17H35.7498ZM38.2965 16.5794C36.538 16.8482 34.9647 17.9897 34.2407 19.7257L39.7784 22.0353C39.6546 22.3321 39.4049 22.4797 39.2031 22.5105L38.2965 16.5794ZM34.232 19.7467L34.2224 19.7703L39.7775 22.0378L39.7871 22.0142L34.232 19.7467ZM39.7775 19.7703L39.7679 19.7467L34.2128 22.0142L34.2224 22.0378L39.7775 19.7703ZM39.7592 19.7257C39.0351 17.9895 37.4615 16.8482 35.7035 16.5794L34.7967 22.5105C34.595 22.4797 34.3454 22.3323 34.2215 22.0353L39.7592 19.7257ZM38.2501 19.5449V17H32.2501V19.5449H38.2501ZM35.2501 14H34.3751V20H35.2501V14ZM31.3751 17V19.5775H37.3751V17H31.3751ZM33.7185 16.6502C31.4758 17.1533 29.6253 19.1289 29.6253 21.6859H35.6253C35.6253 22.1901 35.2734 22.4506 35.0318 22.5048L33.7185 16.6502ZM29.6253 21.6859C29.6253 22.4835 29.7274 23.2801 29.9296 24.0544L35.7349 22.5381C35.662 22.259 35.6253 21.9719 35.6253 21.6859H29.6253ZM29.9293 24.053L30.9405 27.9319L36.7464 26.4183L35.7352 22.5394L29.9293 24.053ZM32.6641 24.4166C31.2062 25.0399 30.0627 26.4998 30.0627 28.3232H36.0627C36.0627 29.1229 35.563 29.7026 35.0228 29.9335L32.6641 24.4166ZM30.0627 28.3232C30.0627 30.019 31.0549 31.3822 32.3229 32.0616L35.1568 26.7731C35.6208 27.0217 36.0627 27.5711 36.0627 28.3232H30.0627ZM30.888 28.4862L27.2452 39.643L32.9488 41.5053L36.5917 30.3485L30.888 28.4862ZM27.245 39.6436C26.6235 41.5481 27.2142 43.5616 28.6372 44.8682L32.6953 40.4488C32.9319 40.666 33.0868 41.0823 32.949 41.5047L27.245 39.6436ZM28.5902 44.8242C28.6658 44.8967 28.7535 44.9735 28.8532 45.0499L32.5045 40.2889C32.5956 40.3587 32.6744 40.4278 32.7423 40.4929L28.5902 44.8242ZM28.6758 44.9027C29.5166 45.6569 30.5671 45.9999 31.563 45.9999V39.9999C31.9202 39.9999 32.3319 40.1222 32.6819 40.4361L28.6758 44.9027ZM31.563 45.9999C32.5732 45.9999 33.6414 45.6468 34.4887 44.8675L30.4273 40.4512C30.7811 40.1257 31.2012 39.9999 31.563 39.9999V45.9999ZM34.4847 44.8713L34.6586 44.712L30.6052 40.2881L30.4313 40.4474L34.4847 44.8713ZM34.6657 44.7054C34.1245 45.2045 33.4753 45.3913 32.9221 45.3913C32.3694 45.3913 31.7238 45.2051 31.1846 44.7107L35.2399 40.2886C33.9386 39.0953 31.9076 39.087 30.598 40.2947L34.6657 44.7054ZM31.1814 44.7077L31.3551 44.8674L35.4168 40.4513L35.2431 40.2916L31.1814 44.7077ZM31.3561 44.8684C32.9977 46.3768 35.5656 46.3768 37.2072 44.8684L33.1477 40.4503C33.5024 40.1243 33.9222 39.9997 34.2817 39.9997C34.6411 39.9997 35.061 40.1243 35.4157 40.4503L31.3561 44.8684ZM37.2082 44.8675L37.3814 44.7082L33.3199 40.2919L33.1467 40.4512L37.2082 44.8675ZM37.3845 44.7054C36.8432 45.2046 36.194 45.3913 35.6409 45.3913C35.0883 45.3913 34.4436 45.2052 33.9052 44.7121L37.9574 40.2872C36.6571 39.0964 34.6272 39.0863 33.3168 40.2947L37.3845 44.7054ZM33.9004 44.7077L34.0741 44.8674L38.1358 40.4513L37.9621 40.2916L33.9004 44.7077ZM34.0751 44.8684C35.7167 46.3768 38.284 46.3768 39.9256 44.8684L35.866 40.4503C36.2204 40.1247 36.6402 39.9997 37.0004 39.9997C37.3605 39.9997 37.7804 40.1247 38.1347 40.4503L34.0751 44.8684ZM39.9267 44.8674L40.1003 44.7077L36.0386 40.2916L35.865 40.4513L39.9267 44.8674ZM40.1001 44.708C39.5572 45.2072 38.9086 45.3914 38.3596 45.3914C37.8105 45.3914 37.1619 45.2072 36.619 44.708L40.6802 40.2913C39.3753 39.0914 37.3438 39.0914 36.0389 40.2913L40.1001 44.708ZM36.6188 44.7077L36.7924 44.8674L40.8542 40.4513L40.6805 40.2915L36.6188 44.7077ZM36.7906 44.8657C38.4354 46.3811 41.0052 46.3742 42.644 44.8684L38.5844 40.4503C38.9381 40.1253 39.3572 40.0001 39.7176 40C40.0784 39.9999 40.5002 40.1252 40.856 40.453L36.7906 44.8657ZM42.6422 44.87L42.8159 44.7107L38.7598 40.2894L38.5862 40.4487L42.6422 44.87ZM42.8202 44.7068C42.2796 45.2046 41.6314 45.3913 41.0782 45.3913C40.5257 45.3913 39.8801 45.2052 39.3408 44.7107L43.396 40.2886C42.094 39.0946 40.0641 39.0882 38.7555 40.2933L42.8202 44.7068ZM39.3376 44.7077L39.5112 44.8674L43.573 40.4513L43.3993 40.2916L39.3376 44.7077ZM39.5127 44.8688C41.1431 46.3663 43.6811 46.3742 45.3219 44.9053L41.3198 40.4351C41.6742 40.1178 42.0897 39.9976 42.4463 39.9996C42.8036 40.0015 43.2197 40.1268 43.5715 40.4499L39.5127 44.8688ZM45.3436 44.8857C45.3271 44.9008 45.3137 44.9126 45.3056 44.9197C45.3015 44.9234 45.2981 44.9263 45.2961 44.928C45.2942 44.9297 45.2928 44.9309 45.2931 44.9307C45.2932 44.9306 45.2932 44.9306 45.2934 44.9304C45.2935 44.9303 45.2938 44.9301 45.2941 44.9298C45.2947 44.9293 45.2956 44.9285 45.2968 44.9275C45.299 44.9256 45.3027 44.9223 45.3073 44.9183C45.312 44.9142 45.3181 44.9088 45.3252 44.9025C45.3324 44.8961 45.3411 44.8883 45.351 44.8794L41.3171 40.4377C41.3343 40.4221 41.3479 40.4102 41.3545 40.4044C41.358 40.4013 41.3607 40.399 41.3618 40.398C41.3625 40.3974 41.3636 40.3965 41.3621 40.3978C41.3612 40.3985 41.3587 40.4007 41.3557 40.4033C41.3525 40.4061 41.3481 40.41 41.3428 40.4146C41.3325 40.4237 41.3168 40.4376 41.2981 40.4547L45.3436 44.8857ZM45.3639 44.8675C46.7847 43.5619 47.3778 41.5483 46.754 39.6413L41.0514 41.5069C40.9124 41.0821 41.0689 40.6657 41.3042 40.4496L45.3639 44.8675ZM34.3751 25.7426C35.6682 25.7426 36.9377 26.778 36.9377 28.3232H30.9377C30.9377 30.3317 32.5997 31.7426 34.3751 31.7426V25.7426ZM36.9377 28.3232C36.9377 29.8678 35.6692 30.9039 34.3751 30.9039V24.9039C32.5987 24.9039 30.9377 26.3159 30.9377 28.3232H36.9377ZM34.3751 30.9039H39.6248V24.9039H34.3751V30.9039ZM39.6248 30.9039C38.3315 30.9039 37.0622 29.8687 37.0622 28.3232H43.0622C43.0622 26.315 41.4 24.9039 39.6248 24.9039V30.9039ZM37.0622 28.3232C37.0622 26.7771 38.3324 25.7426 39.6248 25.7426V31.7426C41.399 31.7426 43.0622 30.3326 43.0622 28.3232H37.0622ZM39.6248 25.7426H34.3751V31.7426H39.6248V25.7426ZM36.5002 21.6863C36.5002 22.7268 35.6599 23.355 34.8886 23.355V17.355C32.5863 17.355 30.5002 19.178 30.5002 21.6863H36.5002ZM34.8886 23.355C34.307 23.355 33.6856 23.0082 33.4098 22.3482L38.9461 20.0353C38.2457 18.3588 36.6131 17.355 34.8886 17.355V23.355ZM33.4095 22.3473L33.8254 23.3437L39.3624 21.0326L38.9465 20.0362L33.4095 22.3473ZM33.8263 23.3459C34.3799 24.6693 35.6645 25.4519 36.9999 25.4519V19.4519C37.9774 19.4519 38.9412 20.0257 39.3615 21.0304L33.8263 23.3459ZM36.9999 25.4519C38.3336 25.4519 39.6211 24.6704 40.1747 23.3428L34.6369 21.0336C35.0576 20.0246 36.0238 19.4519 36.9999 19.4519V25.4519ZM40.1741 23.3442L40.5902 22.3478L35.0536 20.0357L34.6375 21.0321L40.1741 23.3442ZM40.5905 22.3472C40.3143 23.009 39.6923 23.355 39.111 23.355V17.355C37.3883 17.355 35.7538 18.358 35.0533 20.0363L40.5905 22.3472ZM39.111 23.355C38.3404 23.355 37.4997 22.7274 37.4997 21.6863H43.4997C43.4997 19.1774 41.4128 17.355 39.111 17.355V23.355ZM37.4997 21.6863V22.0414H43.4997V21.6863H37.4997ZM37.4997 22.0414C37.4997 22.0229 37.502 22.0067 37.5058 21.9922L43.3116 23.5063C43.4359 23.0299 43.4997 22.5374 43.4997 22.0414H37.4997ZM37.5058 21.9921L36.3801 26.3079L42.1859 27.8223L43.3116 23.5064L37.5058 21.9921ZM39.283 24.0651H34.7167V30.0651H39.283V24.0651ZM37.6196 26.3081L36.5838 22.3363L30.778 23.8503L31.8138 27.8221L37.6196 26.3081ZM36.5837 22.3359C36.5281 22.1229 36.5002 21.9039 36.5002 21.6863H30.5002C30.5002 22.4155 30.5936 23.1435 30.7781 23.8506L36.5837 22.3359ZM29.9967 39.6846L29.8226 39.8446L33.8818 44.2631L34.0559 44.1032L29.9967 39.6846ZM29.823 39.8442C30.3625 39.3488 31.0091 39.1623 31.5623 39.1623C32.1154 39.1623 32.7629 39.3488 33.3031 39.8456L29.2418 44.2621C30.5478 45.463 32.5772 45.4611 33.8814 44.2635L29.823 39.8442ZM33.422 39.9611C33.3512 39.8884 33.292 39.835 33.2692 39.8146C33.2627 39.8088 33.2573 39.804 33.2538 39.8009C33.2505 39.798 33.2477 39.7955 33.2475 39.7954C33.2448 39.7929 33.2534 39.8005 33.2633 39.8093L29.2624 44.2807C29.2689 44.2865 29.2742 44.2912 29.2775 44.2941C29.2792 44.2956 29.2805 44.2968 29.2814 44.2976C29.2822 44.2983 29.283 44.299 29.283 44.299C29.2851 44.3008 29.2765 44.2933 29.2662 44.2841C29.2468 44.2666 29.1907 44.2162 29.123 44.1466L33.422 39.9611ZM33.3124 39.8543C33.7714 40.2837 34.0243 41.0188 33.7836 41.7559L28.08 39.8933C27.5577 41.4925 28.0639 43.1605 29.2134 44.2358L33.3124 39.8543ZM33.7836 41.7557L37.4545 30.5125L31.7508 28.6503L28.0799 39.8935L33.7836 41.7557ZM34.6026 32.5814H35.1537V26.5814H34.6026V32.5814ZM32.217 28.9687L29.713 40.9706L35.5866 42.196L38.0905 30.1941L32.217 28.9687ZM32.057 38.6424C31.3509 38.7847 30.6224 39.1123 30.0013 39.6805L34.0513 44.1074C33.7857 44.3504 33.4916 44.4739 33.2426 44.5241L32.057 38.6424ZM32.7097 39.6896L32.5365 39.8495L36.6064 44.2581L36.7796 44.0982L32.7097 39.6896ZM32.5454 39.8413C33.0859 39.3463 33.7317 39.162 34.2813 39.162C34.8308 39.162 35.4785 39.3464 36.0205 39.8441L31.9625 44.2636C33.2685 45.4628 35.295 45.4591 36.5975 44.2663L32.5454 39.8413ZM36.0239 39.8472L35.8498 39.6868L31.785 44.1002L31.9591 44.2605L36.0239 39.8472ZM35.8429 39.6805C35.4755 39.3442 35.1063 39.1339 34.8404 39.0034L32.1967 44.3896C32.1444 44.3639 31.9799 44.2785 31.7919 44.1065L35.8429 39.6805ZM36.4553 42.3092L38.983 30.1941L33.1094 28.9687L30.5818 41.0838L36.4553 42.3092ZM36.0462 32.5814H36.5625V26.5814H36.0462V32.5814ZM33.5625 29.5814V41.9183H39.5625V29.5814H33.5625ZM38.5848 39.7024L38.5581 39.678L34.5135 44.1098L34.5402 44.1342L38.5848 39.7024ZM38.567 39.6861C36.9241 38.1747 34.3567 38.1789 32.7168 39.6831L36.7725 44.1047C36.4188 44.4292 36.0002 44.5537 35.6408 44.5537C35.2814 44.5537 34.8604 44.4291 34.5046 44.1017L38.567 39.6861ZM37.9731 39.8498C38.5165 39.3481 39.1682 39.1617 39.7217 39.1623C40.2745 39.1628 40.9169 39.3495 41.4532 39.84L37.4041 44.2677C38.6984 45.4513 40.7279 45.4728 42.0437 44.2579L37.9731 39.8498ZM41.461 39.8472L41.287 39.6868L37.2222 44.1002L37.3963 44.2605L41.461 39.8472ZM41.2819 39.6821C39.6425 38.1793 37.0767 38.1751 35.4339 39.6853L39.4944 44.1026C39.1389 44.4293 38.7184 44.5538 38.3592 44.5538C38.0002 44.5538 37.5814 44.4295 37.2273 44.1048L41.2819 39.6821ZM35.4418 39.678L35.4151 39.7024L39.4597 44.1342L39.4864 44.1098L35.4418 39.678ZM40.4374 41.9183V29.5814H34.4374V41.9183H40.4374ZM37.4374 32.5814H37.9535V26.5814H37.4374V32.5814ZM35.0167 30.1941L37.5446 42.3097L43.4181 41.0842L40.8903 28.9686L35.0167 30.1941ZM39.1595 39.0038C38.8934 39.1344 38.52 39.3468 38.1488 39.6891L42.2162 44.1C42.0244 44.2768 41.8556 44.3643 41.8032 44.39L39.1595 39.0038ZM38.1572 39.6814L37.9831 39.8407L42.0337 44.267L42.2078 44.1077L38.1572 39.6814ZM40.8092 39.7466C40.7955 39.7581 40.7834 39.7685 40.7735 39.7771C40.7635 39.7857 40.755 39.7931 40.7485 39.7989C40.7421 39.8046 40.7368 39.8093 40.7335 39.8122C40.7319 39.8137 40.7305 39.8149 40.7297 39.8157C40.7292 39.8161 40.7288 39.8164 40.7286 39.8166C40.7284 39.8168 40.7281 39.817 40.7281 39.817C40.7275 39.8176 40.7297 39.8157 40.7323 39.8133C40.7352 39.8107 40.7402 39.8062 40.7466 39.8006C40.753 39.795 40.7616 39.7874 40.7719 39.7786C40.7823 39.7697 40.7951 39.7587 40.8101 39.7463L44.6443 44.3613C44.6601 44.3483 44.6737 44.3367 44.6849 44.3271C44.696 44.3175 44.7055 44.3092 44.7127 44.3028C44.7199 44.2965 44.7258 44.2913 44.7295 44.288C44.733 44.2849 44.7359 44.2822 44.7362 44.282C44.7372 44.281 44.7354 44.2827 44.7333 44.2846C44.7309 44.2867 44.7265 44.2906 44.7208 44.2956C44.7101 44.3051 44.6904 44.3223 44.6652 44.3435L40.8092 39.7466ZM40.7043 39.8385C41.245 39.3447 41.8896 39.1617 42.4371 39.1617C42.9844 39.1617 43.6329 39.3448 44.1766 39.844L40.1188 44.2637C41.4259 45.4638 43.4501 45.4563 44.7501 44.2692L40.7043 39.8385ZM44.1801 39.8472L44.006 39.6868L39.9412 44.1002L40.1153 44.2605L44.1801 39.8472ZM44.0013 39.6825C43.3775 39.1105 42.6448 38.7828 41.9384 38.6415L40.7618 44.525C40.512 44.4751 40.2151 44.3514 39.9459 44.1045L44.0013 39.6825ZM44.2868 40.9705L41.7827 28.9686L35.9092 30.1941L38.4133 42.196L44.2868 40.9705ZM38.8459 32.5814H39.3973V26.5814H38.8459V32.5814ZM36.5454 30.5125L40.2163 41.7561L45.92 39.8939L42.2491 28.6503L36.5454 30.5125ZM40.2158 41.7545C39.976 41.0188 40.2277 40.2851 40.6864 39.8555L44.7881 44.2345C45.9363 43.1591 46.4409 41.4924 45.9205 39.8954L40.2158 41.7545Z" fill="#EE436A" mask="url(#path-2-inside-1)"/>
<path d="M26.8038 25.3098L26.7388 25.3168L26.751 25.1246L26.8038 25.3098Z" fill="white" stroke="#EE436A" stroke-width="3"/>
<mask id="path-5-inside-2" fill="white">
<path d="M26.625 31H21.375C21.1679 31 21 31.1789 21 31.4V42.6C21 42.8213 21.1679 43 21.375 43H22.875C23.0594 43 23.2167 42.8568 23.2454 42.6625L24 37.5648L24.7544 42.6625C24.7833 42.8568 24.9404 43 25.125 43H26.625C26.8319 43 27 42.8213 27 42.6V31.4C27 31.1789 26.8319 31 26.625 31ZM26.25 42.2H25.4453L24.3701 34.9377C24.3417 34.7432 24.1844 34.6 24 34.6C23.8154 34.6 23.6583 34.7432 23.6294 34.9377L22.5547 42.2H21.75V31.8H26.25V42.2Z"/>
</mask>
<path d="M26.625 31H21.375C21.1679 31 21 31.1789 21 31.4V42.6C21 42.8213 21.1679 43 21.375 43H22.875C23.0594 43 23.2167 42.8568 23.2454 42.6625L24 37.5648L24.7544 42.6625C24.7833 42.8568 24.9404 43 25.125 43H26.625C26.8319 43 27 42.8213 27 42.6V31.4C27 31.1789 26.8319 31 26.625 31ZM26.25 42.2H25.4453L24.3701 34.9377C24.3417 34.7432 24.1844 34.6 24 34.6C23.8154 34.6 23.6583 34.7432 23.6294 34.9377L22.5547 42.2H21.75V31.8H26.25V42.2Z" fill="#A1A1A1"/>
<path d="M23.2454 42.6625L20.2778 42.2232L20.2777 42.2235L23.2454 42.6625ZM24 37.5648L26.9677 37.1257L21.0323 37.1256L24 37.5648ZM24.7544 42.6625L21.7867 43.1017L21.7871 43.1042L24.7544 42.6625ZM26.25 42.2V45.2H29.25V42.2H26.25ZM25.4453 42.2L22.4776 42.6394L22.8567 45.2H25.4453V42.2ZM24.3701 34.9377L21.4015 35.3708L21.4024 35.3771L24.3701 34.9377ZM23.6294 34.9377L20.662 34.4964L20.6617 34.4985L23.6294 34.9377ZM22.5547 42.2V45.2H25.1435L25.5224 42.6391L22.5547 42.2ZM21.75 42.2H18.75V45.2H21.75V42.2ZM21.75 31.8V28.8H18.75V31.8H21.75ZM26.25 31.8H29.25V28.8H26.25V31.8ZM26.625 28H21.375V34H26.625V28ZM21.375 28C19.3325 28 18 29.7064 18 31.4H24C24 32.6514 23.0033 34 21.375 34V28ZM18 31.4V42.6H24V31.4H18ZM18 42.6C18 44.2948 19.3335 46 21.375 46V40C23.0024 40 24 41.3478 24 42.6H18ZM21.375 46H22.875V40H21.375V46ZM22.875 46C24.6861 46 25.9878 44.6248 26.2131 43.1015L20.2777 42.2235C20.4456 41.0888 21.4327 40 22.875 40V46ZM26.2131 43.1018L26.9677 38.0041L21.0323 37.1256L20.2778 42.2232L26.2131 43.1018ZM21.0323 38.004L21.7867 43.1017L27.7221 42.2233L26.9677 37.1257L21.0323 38.004ZM21.7871 43.1042C22.0133 44.6239 23.3125 46 25.125 46V40C26.5684 40 27.5533 41.0897 27.7217 42.2208L21.7871 43.1042ZM25.125 46H26.625V40H25.125V46ZM26.625 46C28.6654 46 30 44.2958 30 42.6H24C24 41.3468 24.9984 40 26.625 40V46ZM30 42.6V31.4H24V42.6H30ZM30 31.4C30 29.7054 28.6664 28 26.625 28V34C24.9975 34 24 32.6524 24 31.4H30ZM26.25 39.2H25.4453V45.2H26.25V39.2ZM28.4129 41.7606L27.3377 34.4983L21.4024 35.3771L22.4776 42.6394L28.4129 41.7606ZM27.3386 34.5046C27.1156 32.9761 25.8112 31.6 24 31.6V37.6C22.5576 37.6 21.5677 36.5102 21.4015 35.3708L27.3386 34.5046ZM24 31.6C22.1866 31.6 20.888 32.977 20.662 34.4964L26.5968 35.379C26.4287 36.5093 25.4442 37.6 24 37.6V31.6ZM20.6617 34.4985L19.5871 41.7609L25.5224 42.6391L26.5971 35.3768L20.6617 34.4985ZM22.5547 39.2H21.75V45.2H22.5547V39.2ZM24.75 42.2V31.8H18.75V42.2H24.75ZM21.75 34.8H26.25V28.8H21.75V34.8ZM23.25 31.8V42.2H29.25V31.8H23.25Z" fill="#EE436A" mask="url(#path-5-inside-2)"/>
</svg>
