<svg width="52" height="52" viewBox="0 0 52 52" fill="none" xmlns="http://www.w3.org/2000/svg">
<path d="M39.9106 20.2715C42.4456 18.169 44.0631 14.9966 44.0631 11.4535C44.063 5.13809 38.9249 0 32.6094 0C26.2939 0 21.1559 5.13809 21.1559 11.4535C21.1559 12.279 21.2445 13.0841 21.4113 13.8605C20.759 13.7448 20.0881 13.6841 19.4032 13.6841C13.0876 13.6841 7.94966 18.8222 7.94966 25.1376C7.94966 28.6805 9.56686 31.8525 12.1015 33.9551C5.01103 36.8458 0 43.8136 0 51.9308H4.06345C4.06345 43.4724 10.9448 36.5912 19.4031 36.5912C25.7186 36.5912 30.8566 31.4531 30.8566 25.1377C30.8566 24.3122 30.768 23.507 30.6012 22.7306C31.2535 22.8464 31.9244 22.907 32.6093 22.907C37.5939 22.907 42.0289 25.2982 44.8325 28.9923L47.586 25.9265C45.5508 23.4567 42.9175 21.4979 39.9106 20.2715ZM19.4032 32.5277C15.3283 32.5277 12.0131 29.2126 12.0131 25.1376C12.0131 21.0627 15.3283 17.7476 19.4032 17.7476C23.478 17.7476 26.7932 21.0628 26.7932 25.1376C26.7932 29.2124 23.478 32.5277 19.4032 32.5277ZM32.6094 18.8434C28.5346 18.8434 25.2194 15.5283 25.2194 11.4534C25.2194 7.37847 28.5346 4.06345 32.6094 4.06345C36.6843 4.06345 39.9995 7.37857 39.9995 11.4535C39.9995 15.5285 36.6844 18.8434 32.6094 18.8434Z" fill="#D63C5F"/>
<path d="M48.9771 30.459L34.8636 46.1729L26.8991 38.5913L24.0975 41.5346L35.092 52L52.0003 33.1743L48.9771 30.459Z" fill="#D63C5F"/>
</svg>
