<svg width="63" height="61" viewBox="0 0 63 61" fill="none" xmlns="http://www.w3.org/2000/svg">
<ellipse cx="31.5" cy="30.5" rx="31.5" ry="30.5" fill="#D8D8D8"/>
<path d="M28.5 22.9998C28.224 22.9998 28 23.2238 28 23.4998C28 23.7758 28.224 23.9998 28.5 23.9998C28.776 23.9998 29 23.7758 29 23.4998C29 23.2238 28.776 22.9998 28.5 22.9998Z" fill="white" stroke="#EE436A" stroke-width="3"/>
<mask id="path-3-inside-1" fill="white">
<path d="M33.4 32.9999H31.6V31.4999C31.6 31.2238 31.3313 30.9999 31 30.9999C30.6686 30.9999 30.4 31.2238 30.4 31.4999V32.9999H28.6C28.2687 32.9999 28 33.2238 28 33.4999C28 33.7759 28.2687 33.9999 28.6 33.9999H30.4V35.4999C30.4 35.776 30.6687 35.9999 31 35.9999C31.3312 35.9999 31.6 35.776 31.6 35.4999V33.9999H33.4C33.7313 33.9999 34 33.776 34 33.4999C34 33.2237 33.7314 32.9999 33.4 32.9999Z"/>
</mask>
<path d="M33.4 32.9999H31.6V31.4999C31.6 31.2238 31.3313 30.9999 31 30.9999C30.6686 30.9999 30.4 31.2238 30.4 31.4999V32.9999H28.6C28.2687 32.9999 28 33.2238 28 33.4999C28 33.7759 28.2687 33.9999 28.6 33.9999H30.4V35.4999C30.4 35.776 30.6687 35.9999 31 35.9999C31.3312 35.9999 31.6 35.776 31.6 35.4999V33.9999H33.4C33.7313 33.9999 34 33.776 34 33.4999C34 33.2237 33.7314 32.9999 33.4 32.9999Z" fill="white"/>
<path d="M31.6 32.9999H28.6V35.9999H31.6V32.9999ZM30.4 32.9999V35.9999H33.4V32.9999H30.4ZM30.4 33.9999H33.4V30.9999H30.4V33.9999ZM31.6 33.9999V30.9999H28.6V33.9999H31.6ZM33.4 29.9999H31.6V35.9999H33.4V29.9999ZM34.6 32.9999V31.4999H28.6V32.9999H34.6ZM34.6 31.4999C34.6 29.078 32.4528 27.9999 31 27.9999V33.9999C30.5002 33.9999 29.9615 33.8325 29.5037 33.451C29.0395 33.0642 28.6 32.3875 28.6 31.4999H34.6ZM31 27.9999C29.5467 27.9999 27.4 29.0784 27.4 31.4999H33.4C33.4 32.3873 32.9607 33.064 32.4964 33.4509C32.0385 33.8325 31.4998 33.9999 31 33.9999V27.9999ZM27.4 31.4999V32.9999H33.4V31.4999H27.4ZM30.4 29.9999H28.6V35.9999H30.4V29.9999ZM28.6 29.9999C27.1474 29.9999 25 31.0778 25 33.4999H31C31 34.3876 30.5603 35.0644 30.0962 35.4511C29.6384 35.8325 29.0998 35.9999 28.6 35.9999V29.9999ZM25 33.4999C25 35.9215 27.147 36.9999 28.6 36.9999V30.9999C29.1 30.9999 29.6387 31.1673 30.0964 31.5488C30.5604 31.9355 31 32.6121 31 33.4999H25ZM28.6 36.9999H30.4V30.9999H28.6V36.9999ZM27.4 33.9999V35.4999H33.4V33.9999H27.4ZM27.4 35.4999C27.4 37.9216 29.547 38.9999 31 38.9999V32.9999C31.4999 32.9999 32.0386 33.1673 32.4964 33.5488C32.9605 33.9356 33.4 34.6123 33.4 35.4999H27.4ZM31 38.9999C32.4525 38.9999 34.6 37.9219 34.6 35.4999H28.6C28.6 34.612 29.0397 33.9353 29.5037 33.5487C29.9615 33.1673 30.5 32.9999 31 32.9999V38.9999ZM34.6 35.4999V33.9999H28.6V35.4999H34.6ZM31.6 36.9999H33.4V30.9999H31.6V36.9999ZM33.4 36.9999C34.8528 36.9999 37 35.9217 37 33.4999H31C31 32.6123 31.4395 31.9355 31.9037 31.5487C32.3615 31.1672 32.9002 30.9999 33.4 30.9999V36.9999ZM37 33.4999C37 31.0778 34.8526 29.9999 33.4 29.9999V35.9999C32.9005 35.9999 32.3618 35.8327 31.9038 35.4511C31.4394 35.0641 31 34.3873 31 33.4999H37Z" fill="#EE436A" mask="url(#path-3-inside-1)"/>
<mask id="path-5-inside-2" fill="white">
<path d="M48.3977 33.3506C47.1559 31.4064 44.41 30.741 42.2587 31.8638L39.9768 33.0546V28.645C39.9768 28.0998 39.7773 27.5589 39.415 27.1216L36.6062 23.7365V22.295C37.26 22.0854 37.7297 21.521 37.7297 20.859V18.5232C37.7296 17.6832 36.9736 16.9999 36.0443 16.9999H25.9324C25.0032 16.9999 24.2471 17.6832 24.2471 18.5232V20.859C24.2471 21.521 24.7168 22.0855 25.3706 22.2951V23.7366L22.5616 27.1219C22.1994 27.5589 22 28.0998 22 28.645V38.4793C22 39.8792 23.2601 41.0182 24.8088 41.0182H33.8371C35.0967 42.9267 37.8128 43.5654 39.9418 42.4542L46.7529 38.8997C48.8852 37.7867 49.6458 35.3054 48.3977 33.3506ZM25.3706 18.5232C25.3706 18.2432 25.6227 18.0154 25.9324 18.0154H36.0443C36.3541 18.0154 36.6061 18.2432 36.6061 18.5232V20.859C36.6061 21.1391 36.3541 21.3668 36.0443 21.3668H25.9324C25.6227 21.3668 25.3707 21.139 25.3707 20.859V18.5232H25.3706ZM23.4607 27.7309L26.3818 24.2105C26.4547 24.1226 26.4942 24.0157 26.4942 23.9058V22.3824H35.4825V23.398H30.4266C30.1164 23.398 29.8648 23.6254 29.8648 23.9058C29.8648 24.1862 30.1164 24.4136 30.4266 24.4136H35.7634L38.5159 27.7308C38.6958 27.9478 38.8075 28.2076 38.8413 28.4759H23.1355C23.1692 28.2075 23.281 27.9478 23.4607 27.7309ZM24.8089 40.0026C23.8796 40.0026 23.1236 39.3192 23.1236 38.4793V37.9664H33.3301C33.152 38.6248 33.1531 39.328 33.3571 40.0026H24.8089V40.0026ZM33.7707 36.9559H23.1235V29.4914H38.8532V33.6409L35.4476 35.4183C34.7375 35.7891 34.1636 36.3168 33.7707 36.9559ZM39.3801 41.5747C37.7679 42.4162 35.7078 41.9185 34.7762 40.4602C33.8402 38.9879 34.4075 37.1342 36.0095 36.2977L39.0588 34.7064L42.4294 39.9833L39.3801 41.5747ZM46.1911 38.0202L43.4025 39.4755L40.0318 34.1985L42.8204 32.7433C44.4337 31.9015 46.4931 32.4 47.4247 33.8583C48.3604 35.324 47.7914 37.1849 46.1911 38.0202Z"/>
</mask>
<path d="M48.3977 33.3506C47.1559 31.4064 44.41 30.741 42.2587 31.8638L39.9768 33.0546V28.645C39.9768 28.0998 39.7773 27.5589 39.415 27.1216L36.6062 23.7365V22.295C37.26 22.0854 37.7297 21.521 37.7297 20.859V18.5232C37.7296 17.6832 36.9736 16.9999 36.0443 16.9999H25.9324C25.0032 16.9999 24.2471 17.6832 24.2471 18.5232V20.859C24.2471 21.521 24.7168 22.0855 25.3706 22.2951V23.7366L22.5616 27.1219C22.1994 27.5589 22 28.0998 22 28.645V38.4793C22 39.8792 23.2601 41.0182 24.8088 41.0182H33.8371C35.0967 42.9267 37.8128 43.5654 39.9418 42.4542L46.7529 38.8997C48.8852 37.7867 49.6458 35.3054 48.3977 33.3506ZM25.3706 18.5232C25.3706 18.2432 25.6227 18.0154 25.9324 18.0154H36.0443C36.3541 18.0154 36.6061 18.2432 36.6061 18.5232V20.859C36.6061 21.1391 36.3541 21.3668 36.0443 21.3668H25.9324C25.6227 21.3668 25.3707 21.139 25.3707 20.859V18.5232H25.3706ZM23.4607 27.7309L26.3818 24.2105C26.4547 24.1226 26.4942 24.0157 26.4942 23.9058V22.3824H35.4825V23.398H30.4266C30.1164 23.398 29.8648 23.6254 29.8648 23.9058C29.8648 24.1862 30.1164 24.4136 30.4266 24.4136H35.7634L38.5159 27.7308C38.6958 27.9478 38.8075 28.2076 38.8413 28.4759H23.1355C23.1692 28.2075 23.281 27.9478 23.4607 27.7309ZM24.8089 40.0026C23.8796 40.0026 23.1236 39.3192 23.1236 38.4793V37.9664H33.3301C33.152 38.6248 33.1531 39.328 33.3571 40.0026H24.8089V40.0026ZM33.7707 36.9559H23.1235V29.4914H38.8532V33.6409L35.4476 35.4183C34.7375 35.7891 34.1636 36.3168 33.7707 36.9559ZM39.3801 41.5747C37.7679 42.4162 35.7078 41.9185 34.7762 40.4602C33.8402 38.9879 34.4075 37.1342 36.0095 36.2977L39.0588 34.7064L42.4294 39.9833L39.3801 41.5747ZM46.1911 38.0202L43.4025 39.4755L40.0318 34.1985L42.8204 32.7433C44.4337 31.9015 46.4931 32.4 47.4247 33.8583C48.3604 35.324 47.7914 37.1849 46.1911 38.0202Z" fill="white"/>
<path d="M48.3977 33.3506L50.9263 31.7362L50.926 31.7357L48.3977 33.3506ZM42.2587 31.8638L43.6466 34.5234L43.6467 34.5234L42.2587 31.8638ZM39.9768 33.0546H36.9768V38.0041L41.3647 35.7142L39.9768 33.0546ZM39.415 27.1216L41.725 25.2075L41.7237 25.206L39.415 27.1216ZM36.6062 23.7365H33.6062V24.8191L34.2975 25.6522L36.6062 23.7365ZM36.6062 22.295L35.6903 19.4383L33.6062 20.1065V22.295H36.6062ZM37.7297 18.5232H40.7297V18.5228L37.7297 18.5232ZM25.3706 22.2951H28.3706V20.1065L26.2866 19.4383L25.3706 22.2951ZM25.3706 23.7366L27.6793 25.6523L28.3706 24.8191V23.7366H25.3706ZM22.5616 27.1219L20.2529 25.2062L20.2516 25.2077L22.5616 27.1219ZM33.8371 41.0182L36.3409 39.3656L35.4516 38.0182H33.8371V41.0182ZM39.9418 42.4542L38.5538 39.7946L38.5538 39.7946L39.9418 42.4542ZM46.7529 38.8997L48.1409 41.5593L48.1411 41.5592L46.7529 38.8997ZM25.3706 18.5232H22.3706V21.5232H25.3706V18.5232ZM25.3707 18.5232H28.3707V15.5232H25.3707V18.5232ZM23.4607 27.7309L21.152 25.8152L21.1507 25.8168L23.4607 27.7309ZM26.3818 24.2105L24.0734 22.2944L24.0731 22.2948L26.3818 24.2105ZM26.4942 22.3824V19.3824H23.4942V22.3824H26.4942ZM35.4825 22.3824H38.4825V19.3824H35.4825V22.3824ZM35.4825 23.398V26.398H38.4825V23.398H35.4825ZM35.7634 24.4136L38.0721 22.4979L37.1724 21.4136H35.7634V24.4136ZM38.5159 27.7308L40.8259 25.8166L40.8246 25.8151L38.5159 27.7308ZM38.8413 28.4759V31.4759H42.2424L41.8178 28.1014L38.8413 28.4759ZM23.1355 28.4759L20.1589 28.1021L19.7351 31.4759H23.1355V28.4759ZM24.8089 40.0026H27.8089V37.0026H24.8089V40.0026ZM23.1236 37.9664V34.9664H20.1236V37.9664H23.1236ZM33.3301 37.9664L36.226 38.75L37.2497 34.9664H33.3301V37.9664ZM33.3571 40.0026V43.0026H37.3984L36.2287 39.1343L33.3571 40.0026ZM24.8089 40.0026H21.8089V43.0026H24.8089V40.0026ZM33.7707 36.9559V39.9559H35.448L36.3264 38.5271L33.7707 36.9559ZM23.1235 36.9559H20.1235V39.9559H23.1235V36.9559ZM23.1235 29.4914V26.4914H20.1235V29.4914H23.1235ZM38.8532 29.4914H41.8532V26.4914H38.8532V29.4914ZM38.8532 33.6409L40.2412 36.3004L41.8532 35.4591V33.6409H38.8532ZM35.4476 35.4183L34.0595 32.7588L34.059 32.759L35.4476 35.4183ZM39.3801 41.5747L37.9921 38.9151L37.992 38.9152L39.3801 41.5747ZM34.7762 40.4602L32.2445 42.0697L32.2481 42.0753L34.7762 40.4602ZM36.0095 36.2977L34.6215 33.6382L34.6211 33.6384L36.0095 36.2977ZM39.0588 34.7064L41.587 33.0914L40.1075 30.7751L37.6708 32.0468L39.0588 34.7064ZM42.4294 39.9833L43.8174 42.6429L46.7203 41.1279L44.9577 38.3684L42.4294 39.9833ZM46.1911 38.0202L47.5791 40.6798L47.5792 40.6797L46.1911 38.0202ZM43.4025 39.4755L40.8742 41.0904L42.3538 43.4068L44.7905 42.1351L43.4025 39.4755ZM40.0318 34.1985L38.6439 31.5388L35.7408 33.0537L37.5035 35.8134L40.0318 34.1985ZM42.8204 32.7433L44.2083 35.403L44.2083 35.403L42.8204 32.7433ZM47.4247 33.8583L49.9533 32.244L49.9529 32.2433L47.4247 33.8583ZM50.926 31.7357C48.7805 28.3768 44.2887 27.4203 40.8707 29.2042L43.6467 34.5234C44.5313 34.0617 45.5312 34.436 45.8695 34.9655L50.926 31.7357ZM40.8708 29.2042L38.5888 30.395L41.3647 35.7142L43.6466 34.5234L40.8708 29.2042ZM42.9768 33.0546V28.645H36.9768V33.0546H42.9768ZM42.9768 28.645C42.9768 27.3702 42.5133 26.1588 41.725 25.2075L37.105 29.0358C37.0413 28.9589 36.9768 28.8294 36.9768 28.645H42.9768ZM41.7237 25.206L38.9149 21.8208L34.2975 25.6522L37.1063 29.0373L41.7237 25.206ZM39.6062 23.7365V22.295H33.6062V23.7365H39.6062ZM37.5221 25.1518C39.2124 24.6099 40.7297 23.0284 40.7297 20.859H34.7297C34.7297 20.0137 35.3076 19.561 35.6903 19.4383L37.5221 25.1518ZM40.7297 20.859V18.5232H34.7297V20.859H40.7297ZM40.7297 18.5228C40.7294 15.7484 38.3382 13.9999 36.0443 13.9999V19.9999C35.7731 19.9999 35.4756 19.8997 35.2238 19.6722C34.9676 19.4405 34.7298 19.0389 34.7297 18.5236L40.7297 18.5228ZM36.0443 13.9999H25.9324V19.9999H36.0443V13.9999ZM25.9324 13.9999C23.6388 13.9999 21.2471 15.7483 21.2471 18.5232H27.2471C27.2471 19.0388 27.0092 19.4405 26.7529 19.6722C26.5011 19.8997 26.2036 19.9999 25.9324 19.9999V13.9999ZM21.2471 18.5232V20.859H27.2471V18.5232H21.2471ZM21.2471 20.859C21.2471 23.0282 22.7643 24.6099 24.4547 25.1518L26.2866 19.4383C26.6694 19.5611 27.2471 20.0137 27.2471 20.859H21.2471ZM22.3706 22.2951V23.7366H28.3706V22.2951H22.3706ZM23.0619 21.8209L20.2529 25.2062L24.8703 29.0376L27.6793 25.6523L23.0619 21.8209ZM20.2516 25.2077C19.4634 26.1589 19 27.3703 19 28.645H25C25 28.8293 24.9355 28.9589 24.8716 29.036L20.2516 25.2077ZM19 28.645V38.4793H25V28.645H19ZM19 38.4793C19 41.8141 21.8956 44.0182 24.8088 44.0182V38.0182C24.7703 38.0182 24.7869 38.0044 24.8353 38.0481C24.8882 38.0959 25 38.2438 25 38.4793H19ZM24.8088 44.0182H33.8371V38.0182H24.8088V44.0182ZM31.3332 42.6707C33.5052 45.9615 37.9445 46.8807 41.3299 45.1138L38.5538 39.7946C37.6811 40.2501 36.6882 39.8918 36.3409 39.3656L31.3332 42.6707ZM41.3298 45.1138L48.1409 41.5593L45.3649 36.2401L38.5538 39.7946L41.3298 45.1138ZM48.1411 41.5592C51.6723 39.7159 53.2166 35.3234 50.9263 31.7362L45.8691 34.965C46.0133 35.1908 46.0249 35.3938 45.9691 35.58C45.9094 35.7792 45.7407 36.0439 45.3647 36.2402L48.1411 41.5592ZM28.3706 18.5232C28.3706 20.1778 26.9874 21.0154 25.9324 21.0154V15.0154C24.258 15.0154 22.3706 16.3086 22.3706 18.5232H28.3706ZM25.9324 21.0154H36.0443V15.0154H25.9324V21.0154ZM36.0443 21.0154C34.9896 21.0154 33.6061 20.178 33.6061 18.5232H39.6061C39.6061 16.3084 37.7185 15.0154 36.0443 15.0154V21.0154ZM33.6061 18.5232V20.859H39.6061V18.5232H33.6061ZM33.6061 20.859C33.6061 19.2039 34.99 18.3668 36.0443 18.3668V24.3668C37.7181 24.3668 39.6061 23.0743 39.6061 20.859H33.6061ZM36.0443 18.3668H25.9324V24.3668H36.0443V18.3668ZM25.9324 18.3668C26.9874 18.3668 28.3707 19.2044 28.3707 20.859H22.3707C22.3707 23.0736 24.258 24.3668 25.9324 24.3668V18.3668ZM28.3707 20.859V18.5232H22.3707V20.859H28.3707ZM25.3707 15.5232H25.3706V21.5232H25.3707V15.5232ZM25.7694 29.6466L28.6905 26.1261L24.0731 22.2948L21.152 25.8152L25.7694 29.6466ZM28.6902 26.1265C29.1912 25.523 29.4942 24.7445 29.4942 23.9058H23.4942C23.4942 23.2868 23.7183 22.7222 24.0734 22.2944L28.6902 26.1265ZM29.4942 23.9058V22.3824H23.4942V23.9058H29.4942ZM26.4942 25.3824H35.4825V19.3824H26.4942V25.3824ZM32.4825 22.3824V23.398H38.4825V22.3824H32.4825ZM35.4825 20.398H30.4266V26.398H35.4825V20.398ZM30.4266 20.398C28.7519 20.398 26.8648 21.6906 26.8648 23.9058H32.8648C32.8648 25.5602 31.4809 26.398 30.4266 26.398V20.398ZM26.8648 23.9058C26.8648 26.1211 28.7519 27.4136 30.4266 27.4136V21.4136C31.4809 21.4136 32.8648 22.2514 32.8648 23.9058H26.8648ZM30.4266 27.4136H35.7634V21.4136H30.4266V27.4136ZM33.4547 26.3293L36.2072 29.6464L40.8246 25.8151L38.0721 22.4979L33.4547 26.3293ZM36.2059 29.6449C36.0263 29.4282 35.9031 29.1555 35.8647 28.8505L41.8178 28.1014C41.7119 27.2597 41.3652 26.4675 40.8259 25.8166L36.2059 29.6449ZM38.8413 25.4759H23.1355V31.4759H38.8413V25.4759ZM26.1121 28.8498C26.0738 29.1549 25.9506 29.4279 25.7707 29.6451L21.1507 25.8168C20.6113 26.4676 20.2646 27.2602 20.1589 28.1021L26.1121 28.8498ZM24.8089 37.0026C25.0801 37.0026 25.3776 37.1027 25.6295 37.3304C25.8858 37.562 26.1236 37.9638 26.1236 38.4793H20.1236C20.1236 41.2541 22.5151 43.0026 24.8089 43.0026V37.0026ZM26.1236 38.4793V37.9664H20.1236V38.4793H26.1236ZM23.1236 40.9664H33.3301V34.9664H23.1236V40.9664ZM30.4342 37.1828C30.1142 38.3655 30.1138 39.6414 30.4855 40.8709L36.2287 39.1343C36.1925 39.0146 36.1897 38.8841 36.226 38.75L30.4342 37.1828ZM33.3571 37.0026H24.8089V43.0026H33.3571V37.0026ZM27.8089 40.0026V40.0026H21.8089V40.0026H27.8089ZM33.7707 33.9559H23.1235V39.9559H33.7707V33.9559ZM26.1235 36.9559V29.4914H20.1235V36.9559H26.1235ZM23.1235 32.4914H38.8532V26.4914H23.1235V32.4914ZM35.8532 29.4914V33.6409H41.8532V29.4914H35.8532ZM37.4651 30.9813L34.0595 32.7588L36.8357 38.0779L40.2412 36.3004L37.4651 30.9813ZM34.059 32.759C32.8985 33.365 31.9086 34.2566 31.2151 35.3847L36.3264 38.5271C36.4186 38.3771 36.5766 38.2132 36.8361 38.0776L34.059 32.759ZM37.992 38.9152C37.8662 38.9808 37.6966 39.0047 37.5283 38.964C37.3594 38.9231 37.3066 38.8486 37.3044 38.8452L32.2481 42.0753C34.0841 44.9494 37.8907 45.7362 40.7683 44.2342L37.992 38.9152ZM37.308 38.8507C37.3034 38.8436 37.316 38.8625 37.3216 38.9032C37.3268 38.9415 37.3225 38.9762 37.3152 39.0007C37.308 39.0244 37.3008 39.0302 37.3074 39.0224C37.3133 39.0154 37.3378 38.9885 37.398 38.9571L34.6211 33.6384C31.6158 35.2074 30.2745 38.9709 32.2445 42.0697L37.308 38.8507ZM37.3975 38.9573L40.4468 37.366L37.6708 32.0468L34.6215 33.6382L37.3975 38.9573ZM36.5305 36.3213L39.9012 41.5982L44.9577 38.3684L41.587 33.0914L36.5305 36.3213ZM41.0414 37.3237L37.9921 38.9151L40.7681 44.2343L43.8174 42.6429L41.0414 37.3237ZM44.8031 35.3606L42.0145 36.8159L44.7905 42.1351L47.5791 40.6798L44.8031 35.3606ZM45.9307 37.8606L42.56 32.5836L37.5035 35.8134L40.8742 41.0904L45.9307 37.8606ZM41.4196 36.8582L44.2083 35.403L41.4326 30.0837L38.6439 31.5388L41.4196 36.8582ZM44.2083 35.403C44.3347 35.337 44.5043 35.3134 44.6722 35.354C44.8408 35.3948 44.8939 35.4693 44.8965 35.4733L49.9529 32.2433C48.1174 29.37 44.312 28.5811 41.4326 30.0837L44.2083 35.403ZM44.896 35.4726C44.8977 35.4753 44.8844 35.4533 44.8788 35.4115C44.8735 35.3723 44.878 35.3383 44.8848 35.3155C44.8914 35.2933 44.8979 35.2887 44.8909 35.297C44.8848 35.3044 44.8607 35.3305 44.8029 35.3607L47.5792 40.6797C50.5799 39.1135 51.9303 35.3408 49.9533 32.244L44.896 35.4726Z" fill="#EE436A" mask="url(#path-5-inside-2)"/>
</svg>
