<svg width="63" height="61" viewBox="0 0 63 61" fill="none" xmlns="http://www.w3.org/2000/svg">
<ellipse cx="31.5" cy="30.5" rx="31.5" ry="30.5" fill="#D8D8D8"/>
<path d="M41 36.9443C41 35.8722 39.9567 34.9999 38.6744 34.9999H21.4651V35.7777H38.6744C39.4436 35.7777 40.0698 36.3012 40.0698 36.9443C40.0698 37.5875 39.4436 38.111 38.6744 38.111H22.8605C22.6038 38.111 22.3953 37.9367 22.3953 37.7221C22.3953 37.5075 22.6038 37.3332 22.8605 37.3332H36.3488V36.5554H22.8605C22.0913 36.5554 21.4651 37.079 21.4651 37.7221C21.4651 38.0441 21.6223 38.3362 21.8753 38.5477C21.3461 38.9043 21 39.4442 21 40.0554C21 41.1275 22.0433 41.9999 23.3256 41.9999H40.5349V41.2221H23.3256C22.5564 41.2221 21.9302 40.6986 21.9302 40.0554C21.9302 39.4123 22.5564 38.8888 23.3256 38.8888H39.1395C39.3962 38.8888 39.6047 39.0631 39.6047 39.2777C39.6047 39.4922 39.3962 39.6665 39.1395 39.6665H25.6512V40.4443H39.1395C39.9087 40.4443 40.5349 39.9208 40.5349 39.2777C40.5349 38.9556 40.3777 38.6636 40.1247 38.452C40.6539 38.0954 41 37.5556 41 36.9443Z" fill="#EE436A"/>
<path d="M45 23.7142V22.857C44.5019 22.857 44.0968 22.4726 44.0968 21.9999V17.2856C44.0968 16.5768 43.4888 15.9999 42.7419 15.9999C41.9951 15.9999 41.3871 16.5768 41.3871 17.2856V18.5713C41.3871 18.8078 41.1847 18.9999 40.9355 18.9999C40.6863 18.9999 40.4839 18.8078 40.4839 18.5713V17.7142C40.4839 16.7687 39.6737 15.9999 38.6774 15.9999C37.6811 15.9999 36.871 16.7687 36.871 17.7142V18.5713H36.4194C36.1695 18.5713 35.9677 18.7628 35.9677 18.9999V20.2856H26.9355C26.8153 20.2856 26.7006 20.3306 26.6162 20.4112L17.5839 28.9826C17.4547 29.1052 17.4159 29.2894 17.486 29.4497C17.5555 29.61 17.7209 29.7142 17.9032 29.7142H20.1613V30.5713C18.4186 30.5713 17 31.9175 17 33.5713C17 33.8084 17.2018 33.9999 17.4516 33.9999H44.5484C44.7982 33.9999 45 33.8084 45 33.5713V30.9999C45 30.7628 44.7982 30.5713 44.5484 30.5713H43.1935V25.857C43.1935 25.6199 42.9918 25.4284 42.7419 25.4284H40.9355C40.6856 25.4284 40.4839 25.6199 40.4839 25.857V27.9999H37.3226V27.5713C37.3226 27.3342 37.1208 27.1427 36.871 27.1427H31.4516C31.2018 27.1427 31 27.3342 31 27.5713V27.9999H26.9269C27.4965 27.2825 27.8387 26.3936 27.8387 25.4284C27.8387 24.483 28.6489 23.7142 29.6452 23.7142H41.3871C41.6369 23.7142 41.8387 23.5227 41.8387 23.2856C41.8387 21.6318 40.4201 20.2856 38.6774 20.2856V18.9999C38.6774 18.7628 38.4756 18.5713 38.2258 18.5713H37.7742V17.7142C37.7742 17.2414 38.1793 16.857 38.6774 16.857C39.1756 16.857 39.5806 17.2414 39.5806 17.7142V18.5713C39.5806 19.2801 40.1886 19.857 40.9355 19.857C41.6824 19.857 42.2903 19.2801 42.2903 18.5713V17.2856C42.2903 17.0491 42.4928 16.857 42.7419 16.857C42.9911 16.857 43.1935 17.0491 43.1935 17.2856V21.9999C43.1935 22.9453 44.0037 23.7142 45 23.7142ZM21.0645 29.7142H22.871V30.5713H21.0645V29.7142ZM44.0968 33.1427H17.9489C18.1584 32.1661 19.0706 31.4284 20.1613 31.4284H44.0968V33.1427ZM42.2903 26.2856V30.5713H41.3871V26.2856H42.2903ZM31.9032 27.9999H36.4194V28.857H31.9032V27.9999ZM31.4516 29.7142H36.871C37.1208 29.7142 37.3226 29.5227 37.3226 29.2856V28.857H40.4839V30.5713H23.7742V29.6924C24.6119 29.6131 25.3802 29.3118 26.0206 28.857H31V29.2856C31 29.5227 31.2018 29.7142 31.4516 29.7142ZM40.8898 22.857H29.6452C28.1507 22.857 26.9355 24.0103 26.9355 25.4284C26.9355 27.3189 25.3147 28.857 23.3226 28.857H18.9934L27.1225 21.1427H38.6774C39.7681 21.1427 40.6803 21.8804 40.8898 22.857ZM36.871 20.2856V19.4284H37.7742V20.2856H36.871Z" fill="#EE436A"/>
<path d="M18 25.9999C18.5513 25.9999 19 25.3268 19 24.4999C19 23.673 18.5513 22.9999 18 22.9999C17.4487 22.9999 17 23.673 17 24.4999C17 25.3268 17.4487 25.9999 18 25.9999ZM18 23.9999C18.1839 23.9999 18.3333 24.224 18.3333 24.4999C18.3333 24.7758 18.1839 24.9999 18 24.9999C17.8161 24.9999 17.6667 24.7758 17.6667 24.4999C17.6667 24.224 17.8161 23.9999 18 23.9999Z" fill="#EE436A"/>
<path d="M21 22.9999C22.1027 22.9999 23 21.8783 23 20.4999C23 19.1215 22.1027 17.9999 21 17.9999C19.8973 17.9999 19 19.1215 19 20.4999C19 21.8783 19.8973 22.9999 21 22.9999ZM21 18.9999C21.6615 18.9999 22.2 19.673 22.2 20.4999C22.2 21.3268 21.6615 21.9999 21 21.9999C20.3385 21.9999 19.8 21.3268 19.8 20.4999C19.8 19.673 20.3385 18.9999 21 18.9999Z" fill="#EE436A"/>
</svg>
