<svg width="63" height="61" viewBox="0 0 63 61" fill="none" xmlns="http://www.w3.org/2000/svg">
<ellipse cx="31.5" cy="30.5" rx="31.5" ry="30.5" fill="#D8D8D8"/>
<mask id="path-2-inside-1" fill="white">
<path d="M23 31.9999H29V27.9999H23V31.9999ZM23.8571 31.1999V29.9999H28.1429V31.1999H23.8571ZM28.1429 28.7999V29.1999H23.8571V28.7999H28.1429Z"/>
</mask>
<path d="M23 31.9999H29V27.9999H23V31.9999ZM23.8571 31.1999V29.9999H28.1429V31.1999H23.8571ZM28.1429 28.7999V29.1999H23.8571V28.7999H28.1429Z" fill="white"/>
<path d="M23 31.9999H20V34.9999H23V31.9999ZM29 31.9999V34.9999H32V31.9999H29ZM29 27.9999H32V24.9999H29V27.9999ZM23 27.9999V24.9999H20V27.9999H23ZM23.8571 31.1999H20.8571V34.1999H23.8571V31.1999ZM23.8571 29.9999V26.9999H20.8571V29.9999H23.8571ZM28.1429 29.9999H31.1429V26.9999H28.1429V29.9999ZM28.1429 31.1999V34.1999H31.1429V31.1999H28.1429ZM28.1429 28.7999H31.1429V25.7999H28.1429V28.7999ZM28.1429 29.1999V32.1999H31.1429V29.1999H28.1429ZM23.8571 29.1999H20.8571V32.1999H23.8571V29.1999ZM23.8571 28.7999V25.7999H20.8571V28.7999H23.8571ZM23 34.9999H29V28.9999H23V34.9999ZM32 31.9999V27.9999H26V31.9999H32ZM29 24.9999H23V30.9999H29V24.9999ZM20 27.9999V31.9999H26V27.9999H20ZM26.8571 31.1999V29.9999H20.8571V31.1999H26.8571ZM23.8571 32.9999H28.1429V26.9999H23.8571V32.9999ZM25.1429 29.9999V31.1999H31.1429V29.9999H25.1429ZM28.1429 28.1999H23.8571V34.1999H28.1429V28.1999ZM25.1429 28.7999V29.1999H31.1429V28.7999H25.1429ZM28.1429 26.1999H23.8571V32.1999H28.1429V26.1999ZM26.8571 29.1999V28.7999H20.8571V29.1999H26.8571ZM23.8571 31.7999H28.1429V25.7999H23.8571V31.7999Z" fill="#EE436A" mask="url(#path-2-inside-1)"/>
<mask id="path-4-inside-2" fill="white">
<path d="M23 33.9999V38.9999H29V33.9999H23ZM25.5714 34.8332V36.0832H23.8571V34.8332H25.5714ZM23.8571 36.9165H25.5714V38.1665H23.8571V36.9165ZM26.4286 38.1665V36.9165H28.1429V38.1665H26.4286ZM28.1429 36.0832H26.4286V34.8332H28.1429V36.0832Z"/>
</mask>
<path d="M23 33.9999V38.9999H29V33.9999H23ZM25.5714 34.8332V36.0832H23.8571V34.8332H25.5714ZM23.8571 36.9165H25.5714V38.1665H23.8571V36.9165ZM26.4286 38.1665V36.9165H28.1429V38.1665H26.4286ZM28.1429 36.0832H26.4286V34.8332H28.1429V36.0832Z" fill="white"/>
<path d="M23 33.9999V30.9999H20V33.9999H23ZM23 38.9999H20V41.9999H23V38.9999ZM29 38.9999V41.9999H32V38.9999H29ZM29 33.9999H32V30.9999H29V33.9999ZM25.5714 34.8332H28.5714V31.8332H25.5714V34.8332ZM25.5714 36.0832V39.0832H28.5714V36.0832H25.5714ZM23.8571 36.0832H20.8571V39.0832H23.8571V36.0832ZM23.8571 34.8332V31.8332H20.8571V34.8332H23.8571ZM23.8571 36.9165V33.9165H20.8571V36.9165H23.8571ZM25.5714 36.9165H28.5714V33.9165H25.5714V36.9165ZM25.5714 38.1665V41.1665H28.5714V38.1665H25.5714ZM23.8571 38.1665H20.8571V41.1665H23.8571V38.1665ZM26.4286 38.1665H23.4286V41.1665H26.4286V38.1665ZM26.4286 36.9165V33.9165H23.4286V36.9165H26.4286ZM28.1429 36.9165H31.1429V33.9165H28.1429V36.9165ZM28.1429 38.1665V41.1665H31.1429V38.1665H28.1429ZM28.1429 36.0832V39.0832H31.1429V36.0832H28.1429ZM26.4286 36.0832H23.4286V39.0832H26.4286V36.0832ZM26.4286 34.8332V31.8332H23.4286V34.8332H26.4286ZM28.1429 34.8332H31.1429V31.8332H28.1429V34.8332ZM20 33.9999V38.9999H26V33.9999H20ZM23 41.9999H29V35.9999H23V41.9999ZM32 38.9999V33.9999H26V38.9999H32ZM29 30.9999H23V36.9999H29V30.9999ZM22.5714 34.8332V36.0832H28.5714V34.8332H22.5714ZM25.5714 33.0832H23.8571V39.0832H25.5714V33.0832ZM26.8571 36.0832V34.8332H20.8571V36.0832H26.8571ZM23.8571 37.8332H25.5714V31.8332H23.8571V37.8332ZM23.8571 39.9165H25.5714V33.9165H23.8571V39.9165ZM22.5714 36.9165V38.1665H28.5714V36.9165H22.5714ZM25.5714 35.1665H23.8571V41.1665H25.5714V35.1665ZM26.8571 38.1665V36.9165H20.8571V38.1665H26.8571ZM29.4286 38.1665V36.9165H23.4286V38.1665H29.4286ZM26.4286 39.9165H28.1429V33.9165H26.4286V39.9165ZM25.1429 36.9165V38.1665H31.1429V36.9165H25.1429ZM28.1429 35.1665H26.4286V41.1665H28.1429V35.1665ZM28.1429 33.0832H26.4286V39.0832H28.1429V33.0832ZM29.4286 36.0832V34.8332H23.4286V36.0832H29.4286ZM26.4286 37.8332H28.1429V31.8332H26.4286V37.8332ZM25.1429 34.8332V36.0832H31.1429V34.8332H25.1429Z" fill="#EE436A" mask="url(#path-4-inside-2)"/>
<mask id="path-6-inside-3" fill="white">
<path d="M32 31.9999H39V27.9999H32V31.9999ZM33 31.1999V30.7999H38V31.1999H33ZM38 28.7999V29.9999H33V28.7999H38Z"/>
</mask>
<path d="M32 31.9999H39V27.9999H32V31.9999ZM33 31.1999V30.7999H38V31.1999H33ZM38 28.7999V29.9999H33V28.7999H38Z" fill="white"/>
<path d="M32 31.9999H29V34.9999H32V31.9999ZM39 31.9999V34.9999H42V31.9999H39ZM39 27.9999H42V24.9999H39V27.9999ZM32 27.9999V24.9999H29V27.9999H32ZM33 31.1999H30V34.1999H33V31.1999ZM33 30.7999V27.7999H30V30.7999H33ZM38 30.7999H41V27.7999H38V30.7999ZM38 31.1999V34.1999H41V31.1999H38ZM38 28.7999H41V25.7999H38V28.7999ZM38 29.9999V32.9999H41V29.9999H38ZM33 29.9999H30V32.9999H33V29.9999ZM33 28.7999V25.7999H30V28.7999H33ZM32 34.9999H39V28.9999H32V34.9999ZM42 31.9999V27.9999H36V31.9999H42ZM39 24.9999H32V30.9999H39V24.9999ZM29 27.9999V31.9999H35V27.9999H29ZM36 31.1999V30.7999H30V31.1999H36ZM33 33.7999H38V27.7999H33V33.7999ZM35 30.7999V31.1999H41V30.7999H35ZM38 28.1999H33V34.1999H38V28.1999ZM35 28.7999V29.9999H41V28.7999H35ZM38 26.9999H33V32.9999H38V26.9999ZM36 29.9999V28.7999H30V29.9999H36ZM33 31.7999H38V25.7999H33V31.7999Z" fill="#EE436A" mask="url(#path-6-inside-3)"/>
<mask id="path-8-inside-4" fill="white">
<path d="M44.5333 37.9107C44.2753 37.9107 44.0667 38.118 44.0667 38.3734V38.836H43.6V38.3734C43.6 38.118 43.3914 37.9107 43.1333 37.9107C42.8753 37.9107 42.6667 38.118 42.6667 38.3734V38.836H42.2V29.4895C42.4431 29.5977 42.7007 29.6574 42.9588 29.6574C43.4595 29.6574 43.957 29.4557 44.3247 29.0634C44.6794 28.685 44.8591 28.1729 44.818 27.658C44.7765 27.1436 44.5175 26.6657 44.1077 26.3475L32.2703 17.1689L31 15.9999L29.7601 17.1434L17.8927 26.3475C17.4825 26.6657 17.2235 27.1436 17.1825 27.658C17.1414 28.1729 17.3211 28.685 17.6757 29.0634C18.2329 29.6583 19.0855 29.8082 19.8005 29.4899V38.8364H19.3333V38.3738C19.3333 38.1185 19.1247 37.9112 18.8667 37.9112C18.6086 37.9112 18.4 38.1185 18.4 38.3738V38.8364H17.9333V38.3738C17.9333 38.1185 17.7247 37.9112 17.4667 37.9112C17.2086 37.9112 17 38.1185 17 38.3738V42.5373C17 42.7926 17.2086 42.9999 17.4667 42.9999C17.7247 42.9999 17.9333 42.7926 17.9333 42.5373V42.0747H18.4V42.5373C18.4 42.7926 18.6086 42.9999 18.8667 42.9999C19.1247 42.9999 19.3333 42.7926 19.3333 42.5373V42.0747H19.8V42.9999H31.9333H38.4667H42.2V42.0747H42.6667V42.5373C42.6667 42.7926 42.8753 42.9999 43.1333 42.9999C43.3914 42.9999 43.6 42.7926 43.6 42.5373V42.0747H44.0667V42.5373C44.0667 42.7926 44.2753 42.9999 44.5333 42.9999C44.7914 42.9999 45 42.7926 45 42.5373V38.3738C45 38.118 44.7914 37.9107 44.5333 37.9107ZM18.3589 28.4333C18.1793 28.2414 18.092 27.992 18.113 27.7311C18.134 27.4702 18.2595 27.2375 18.4681 27.0761L30.3653 17.8471L31.0005 17.2619L31.665 17.872L43.5323 27.0761C43.7405 27.2375 43.8665 27.4702 43.8875 27.7311C43.9085 27.992 43.8207 28.2418 43.6415 28.4333C43.3111 28.7858 42.7731 28.8303 42.3881 28.5365L42.2 28.3931L31 19.8349L19.982 28.2543L19.9815 28.2548L19.6124 28.5365C19.2269 28.8303 18.6893 28.7858 18.3589 28.4333ZM17.9333 41.149V39.7612H18.4V41.149H17.9333ZM19.3333 41.149V39.7612H19.8V41.149H19.3333ZM32.8667 42.0742V35.1351H37.5333V42.0742H32.8667ZM41.2667 42.0742H38.4667V34.2099H31.9333V42.0742H20.7333V28.8478L31 21.0025L41.2667 28.8478V42.0742ZM42.2 41.149V39.7612H42.6667V41.149H42.2ZM43.6 41.149V39.7612H44.0667V41.149H43.6Z"/>
</mask>
<path d="M44.5333 37.9107C44.2753 37.9107 44.0667 38.118 44.0667 38.3734V38.836H43.6V38.3734C43.6 38.118 43.3914 37.9107 43.1333 37.9107C42.8753 37.9107 42.6667 38.118 42.6667 38.3734V38.836H42.2V29.4895C42.4431 29.5977 42.7007 29.6574 42.9588 29.6574C43.4595 29.6574 43.957 29.4557 44.3247 29.0634C44.6794 28.685 44.8591 28.1729 44.818 27.658C44.7765 27.1436 44.5175 26.6657 44.1077 26.3475L32.2703 17.1689L31 15.9999L29.7601 17.1434L17.8927 26.3475C17.4825 26.6657 17.2235 27.1436 17.1825 27.658C17.1414 28.1729 17.3211 28.685 17.6757 29.0634C18.2329 29.6583 19.0855 29.8082 19.8005 29.4899V38.8364H19.3333V38.3738C19.3333 38.1185 19.1247 37.9112 18.8667 37.9112C18.6086 37.9112 18.4 38.1185 18.4 38.3738V38.8364H17.9333V38.3738C17.9333 38.1185 17.7247 37.9112 17.4667 37.9112C17.2086 37.9112 17 38.1185 17 38.3738V42.5373C17 42.7926 17.2086 42.9999 17.4667 42.9999C17.7247 42.9999 17.9333 42.7926 17.9333 42.5373V42.0747H18.4V42.5373C18.4 42.7926 18.6086 42.9999 18.8667 42.9999C19.1247 42.9999 19.3333 42.7926 19.3333 42.5373V42.0747H19.8V42.9999H31.9333H38.4667H42.2V42.0747H42.6667V42.5373C42.6667 42.7926 42.8753 42.9999 43.1333 42.9999C43.3914 42.9999 43.6 42.7926 43.6 42.5373V42.0747H44.0667V42.5373C44.0667 42.7926 44.2753 42.9999 44.5333 42.9999C44.7914 42.9999 45 42.7926 45 42.5373V38.3738C45 38.118 44.7914 37.9107 44.5333 37.9107ZM18.3589 28.4333C18.1793 28.2414 18.092 27.992 18.113 27.7311C18.134 27.4702 18.2595 27.2375 18.4681 27.0761L30.3653 17.8471L31.0005 17.2619L31.665 17.872L43.5323 27.0761C43.7405 27.2375 43.8665 27.4702 43.8875 27.7311C43.9085 27.992 43.8207 28.2418 43.6415 28.4333C43.3111 28.7858 42.7731 28.8303 42.3881 28.5365L42.2 28.3931L31 19.8349L19.982 28.2543L19.9815 28.2548L19.6124 28.5365C19.2269 28.8303 18.6893 28.7858 18.3589 28.4333ZM17.9333 41.149V39.7612H18.4V41.149H17.9333ZM19.3333 41.149V39.7612H19.8V41.149H19.3333ZM32.8667 42.0742V35.1351H37.5333V42.0742H32.8667ZM41.2667 42.0742H38.4667V34.2099H31.9333V42.0742H20.7333V28.8478L31 21.0025L41.2667 28.8478V42.0742ZM42.2 41.149V39.7612H42.6667V41.149H42.2ZM43.6 41.149V39.7612H44.0667V41.149H43.6Z" fill="white" stroke="#EE436A" stroke-width="6" mask="url(#path-8-inside-4)"/>
</svg>
