<svg width="26" height="24" viewBox="0 0 26 24" fill="none" xmlns="http://www.w3.org/2000/svg">
<path d="M13 0C5.81855 0 0 5.37097 0 12C0 18.629 5.81855 24 13 24C20.1815 24 26 18.629 26 12C26 5.37097 20.1815 0 13 0ZM4.95887 7.78548L6.78831 7.54355L7.60081 6.01452C7.75282 5.73387 8.17742 5.73387 8.32944 6.01452L9.14194 7.54355L10.9714 7.78548C11.2964 7.83387 11.4379 8.20161 11.1968 8.42419L9.86532 9.61452L10.1798 11.3032C10.2323 11.6032 9.90202 11.8355 9.60323 11.6855L7.96774 10.9016L6.32702 11.6903C6.02823 11.8403 5.69798 11.6081 5.7504 11.3081L6.06492 9.61935L4.73347 8.42903C4.49234 8.20161 4.63387 7.83387 4.95887 7.78548ZM13 20.5161C9.82339 20.5161 5.9496 18.6629 5.4621 16.0016C5.35726 15.4306 5.9496 14.9613 6.54718 15.1355C8.13024 15.6048 10.4839 15.871 13 15.871C15.5161 15.871 17.8698 15.6048 19.4528 15.1355C20.0556 14.9565 20.6375 15.4306 20.5379 16.0016C20.0504 18.6629 16.1766 20.5161 13 20.5161ZM21.2665 8.42419L19.9351 9.61452L20.2496 11.3032C20.302 11.6032 19.9718 11.8355 19.673 11.6855L18.0323 10.9016L16.3915 11.6903C16.0927 11.8403 15.7625 11.6081 15.8149 11.3081L16.1294 9.61935L14.798 8.42903C14.5621 8.20645 14.6984 7.83871 15.0234 7.79032L16.8528 7.54839L17.6653 6.01935C17.8173 5.73871 18.2419 5.73871 18.394 6.01935L19.2065 7.54839L21.0359 7.79032C21.3661 7.83387 21.5077 8.20161 21.2665 8.42419Z" fill="#F3CC00"/>
</svg>
