<svg width="10" height="3" viewBox="0 0 10 3" fill="none" xmlns="http://www.w3.org/2000/svg">
<path d="M2.38857 1.22707C2.38857 1.87745 1.86476 2.40415 1.21928 2.40415C0.573806 2.40415 0.05 1.87745 0.05 1.22707C0.05 0.576693 0.573806 0.05 1.21928 0.05C1.86476 0.05 2.38857 0.576693 2.38857 1.22707Z" fill="white" stroke="black" stroke-width="0.1"/>
<path d="M5.80238 1.22707C5.80238 1.87745 5.27858 2.40415 4.6331 2.40415C3.98762 2.40415 3.46382 1.87745 3.46382 1.22707C3.46382 0.576693 3.98762 0.05 4.6331 0.05C5.27858 0.05 5.80238 0.576693 5.80238 1.22707Z" fill="white" stroke="black" stroke-width="0.1"/>
<path d="M9.21669 1.22707C9.21669 1.87745 8.69289 2.40415 8.04741 2.40415C7.40193 2.40415 6.87813 1.87745 6.87813 1.22707C6.87813 0.576693 7.40193 0.05 8.04741 0.05C8.69289 0.05 9.21669 0.576693 9.21669 1.22707Z" fill="white" stroke="black" stroke-width="0.1"/>
</svg>
