<svg width="63" height="61" viewBox="0 0 63 61" fill="none" xmlns="http://www.w3.org/2000/svg">
<ellipse cx="31.5" cy="30.5" rx="31.5" ry="30.5" fill="#D8D8D8"/>
<path d="M42.0816 30.0499V39.9499H39.3318C39.0787 39.9499 38.8735 40.1514 38.8735 40.3999V43.0999H21.9166V17.8999H42.0816V23.7499H42.9982V17.4499C42.9982 17.2014 42.793 16.9999 42.5399 16.9999H21.4583C21.2052 16.9999 21 17.2014 21 17.4499V43.5499C21 43.7984 21.2052 43.9999 21.4583 43.9999H39.3318C39.4533 43.9996 39.5698 43.9522 39.6558 43.868L42.8639 40.718C42.9022 40.6798 42.9333 40.6351 42.9555 40.5862C42.962 40.5722 42.9656 40.5587 42.9707 40.5443C42.9838 40.5065 42.9919 40.4672 42.9945 40.4273C42.9945 40.4179 43 40.4093 43 40.3999V30.0499H42.0816ZM39.7901 42.4636V40.8499H41.4335L39.7901 42.4636Z" fill="#EE436A"/>
<path d="M44.6053 24.383C44.0713 23.8719 43.2301 23.8719 42.6961 24.383L35.1267 31.9613C35.0456 32.0425 35 32.1526 35 32.2674V33.5666C35 33.8057 35.1937 33.9996 35.4325 33.9996H36.7301C36.8449 33.9996 36.9548 33.9539 37.0359 33.8728L44.6053 26.2944C45.1316 25.7662 45.1316 24.9112 44.6053 24.383ZM36.5511 33.1335H35.8651V32.4467L41.2717 27.0336L41.9577 27.7205L36.5511 33.1335ZM42.5693 27.1081L41.8833 26.4213L42.3531 25.951L43.0391 26.6378L42.5693 27.1081ZM43.9937 25.6821L43.6507 26.0255L42.9647 25.3387L43.3077 24.9953C43.4996 24.8117 43.8017 24.8117 43.9937 24.9953C44.1823 25.1853 44.1823 25.4921 43.9937 25.6821Z" fill="#EE436A"/>
<path d="M24.5 22.9998C23.6716 22.9998 23 23.6713 23 24.4998C23 25.3282 23.6716 25.9998 24.5 25.9998C25.3284 25.9998 26 25.3282 26 24.4998C26 23.6713 25.3284 22.9998 24.5 22.9998ZM24.5 25.2498C24.0858 25.2498 23.75 24.914 23.75 24.4998C23.75 24.0855 24.0858 23.7498 24.5 23.7498C24.9142 23.7498 25.25 24.0855 25.25 24.4998C25.25 24.914 24.9142 25.2498 24.5 25.2498Z" fill="#EE436A"/>
<path d="M34 19.5722L33.2371 19L32 19.9278L30.7629 19L30 19.5722L31.2371 20.5L30 21.4278L30.7629 22L32 21.0722L33.2371 22L34 21.4278L32.7629 20.5L34 19.5722Z" fill="#EE436A"/>
<path d="M38 22.9998C36.8954 22.9998 36 23.6713 36 24.4998C36 25.3282 36.8954 25.9998 38 25.9998C39.1046 25.9998 40 25.3282 40 24.4998C40 23.6713 39.1046 22.9998 38 22.9998ZM38 25.2498C37.4477 25.2498 37 24.914 37 24.4998C37 24.0855 37.4477 23.7498 38 23.7498C38.5523 23.7498 39 24.0855 39 24.4998C39 24.914 38.5522 25.2498 38 25.2498Z" fill="#EE436A"/>
<path d="M26 35C24.8954 35 24 35.8954 24 37C24 38.1046 24.8954 39 26 39C27.1046 39 28 38.1046 28 37C28 35.8954 27.1046 35 26 35ZM26 38C25.4477 38 25 37.5523 25 37C25 36.4477 25.4477 36 26 36C26.5523 36 27 36.4477 27 37C27 37.5523 26.5522 38 26 38Z" fill="#EE436A"/>
<path d="M28 29.5719L27.4278 28.9998L26.5 29.9276L25.5722 28.9998L25 29.5719L25.9278 30.4998L25 31.4276L25.5722 31.9998L26.5 31.0719L27.4278 31.9998L28 31.4276L27.0722 30.4998L28 29.5719Z" fill="#EE436A"/>
<path d="M40 35.5722L39.4278 35L38.5 35.9278L37.5722 35L37 35.5722L37.9278 36.5L37 37.4278L37.5722 38L38.5 37.0722L39.4278 38L40 37.4278L39.0722 36.5L40 35.5722Z" fill="#EE436A"/>
<path d="M28.4018 25.929H29.1239V24.9998H27.4248C27.1902 24.9998 27 25.2078 27 25.4644V27.323H27.8496V26.6725C29.6922 29.2712 29.5595 32.9428 27.5352 35.3743L28.1643 35.9998C30.5186 33.1731 30.6197 28.8847 28.4018 25.929Z" fill="#EE436A"/>
<path d="M32 36.9998C30.8954 36.9998 30 37.8952 30 38.9998C30 40.1043 30.8954 40.9998 32 40.9998C33.1046 40.9998 34 40.1043 34 38.9998C34 37.8952 33.1046 36.9998 32 36.9998ZM32 39.9998C31.4477 39.9998 31 39.5521 31 38.9998C31 38.4474 31.4477 37.9998 32 37.9998C32.5523 37.9998 33 38.4474 33 38.9998C33 39.5521 32.5522 39.9998 32 39.9998Z" fill="#EE436A"/>
<path d="M34.8536 23.2136L33.3536 21.9996L32.6466 22.5718L33.2931 23.095H27V23.9043H33.2931L32.6466 24.4275L33.3536 24.9996L34.8536 23.7857C35.0488 23.6277 35.0488 23.3716 34.8536 23.2136Z" fill="#EE436A"/>
<path d="M36.5455 25.9998H34.7273V26.9164H35.4636C33.2311 29.3131 31.9919 32.48 32 35.7682V36.9998H32.9091V35.7682C32.9016 32.7309 34.0389 29.8042 36.0909 27.5805V28.2914H37V26.4581C37 26.205 36.7965 25.9998 36.5455 25.9998Z" fill="#EE436A"/>
</svg>
