<svg width="63" height="61" viewBox="0 0 63 61" fill="none" xmlns="http://www.w3.org/2000/svg">
<ellipse cx="31.5" cy="30.5" rx="31.5" ry="30.5" fill="#D8D8D8"/>
<path d="M45.4694 37.7947C44.4844 36.1183 42.679 35.8045 42.3267 35.7588C42.3061 35.7561 42.2856 35.7547 42.2646 35.7547H37.3249L37.1294 35.565C37.3809 35.4799 37.6217 35.3685 37.8447 35.2335C38.0738 35.0949 38.2684 34.9392 38.4406 34.7775L40.2698 35.2847L40.526 34.4139L39.0626 34.0082C39.2558 33.688 39.3771 33.3869 39.4448 33.1686C39.4578 33.126 39.4648 33.0821 39.4648 33.0377V32.1072L40.582 31.6426L40.2147 30.8103L39.4648 31.1223V30.7736C39.4648 30.6916 39.442 30.611 39.3981 30.5404L37.9982 28.2762C37.9245 28.1567 37.7976 28.077 37.6553 28.0598C37.5148 28.0448 37.3706 28.0901 37.2684 28.1893L36.0053 29.4151H35.7318V23.7158L36.3916 23.0755H36.9903L38.2726 23.9051C38.4873 24.0441 38.7766 23.9875 38.9198 23.7796L39.8531 22.4211C39.9576 22.269 39.9576 22.0711 39.8531 21.9189L37.9866 19.202C37.8998 19.0756 37.7542 19 37.5983 19H36.1985C36.0216 19 35.8602 19.0969 35.7808 19.2504L34.9768 20.8113H29.9541L29.1496 19.2504C29.0707 19.0969 28.9093 19 28.7324 19H26.8659C26.7152 19 26.5738 19.0706 26.4865 19.1897L24.1534 22.3595C24.0209 22.5393 24.0419 22.7861 24.2029 22.9428L25.1361 23.8485C25.2934 24.0015 25.5398 24.0242 25.725 23.9051L27.0073 23.0755H28.0726L28.2658 23.2629V28.1852C27.0339 28.6195 23.6705 30.1093 22.23 33.7826C21.3802 35.9499 21.5688 37.9731 21.8819 39.2986L20.7998 38.6682V37.1132C20.7998 36.5952 20.503 36.1297 20.0261 35.8983C19.5483 35.6664 18.9864 35.7162 18.5595 36.0269C18.209 36.2823 18 36.6885 18 37.1132V40.283C18 40.4392 18.0831 40.5842 18.2193 40.667L21.9523 42.9312C22.0265 42.976 22.1119 43 22.1996 43H31.5322H33.3987H43.1979C43.2702 43 43.3421 42.9837 43.4064 42.9525L45.273 42.0468C45.3574 42.006 45.4265 41.9413 45.4722 41.8616C45.5207 41.7774 46.6369 39.7795 45.4694 37.7947ZM32.9325 38.469L30.1692 38.4604L30.1664 39.366L32.9321 39.3746V42.0943H31.9988C31.9988 41.0954 31.1617 40.283 30.1323 40.283H29.1991C29.1991 38.0361 27.3153 36.2075 24.9994 36.2075H24.5328V37.1132H24.9994C26.8001 37.1132 28.2658 38.5351 28.2658 40.283V40.7358C28.2658 40.9858 28.4744 41.1887 28.7324 41.1887H30.1323C30.647 41.1887 31.0656 41.5949 31.0656 42.0943H22.3336L18.9333 40.0322V37.1132C18.9333 36.9715 19.0028 36.8361 19.1194 36.7509C19.2641 36.6459 19.4465 36.6296 19.6085 36.7084C19.7699 36.7867 19.8665 36.938 19.8665 37.1132V38.9245C19.8665 39.0835 19.9528 39.2311 20.0928 39.3126L22.426 40.6711C22.5953 40.7698 22.8109 40.7544 22.9635 40.6317C23.1156 40.509 23.1721 40.307 23.104 40.1268C22.7549 39.2048 22.0559 36.7722 23.1021 34.1042C23.1707 33.9289 23.2486 33.7641 23.3265 33.5997L23.3275 33.6002C24.8986 30.2868 28.2205 29.138 28.871 28.9414C29.0665 28.883 29.1991 28.7078 29.1991 28.5094V23.0755C29.1991 22.9555 29.1501 22.84 29.0623 22.7553L28.5957 22.3025C28.5084 22.2174 28.3899 22.1698 28.2658 22.1698H26.8659C26.774 22.1698 26.6835 22.1965 26.6069 22.2459L25.5253 22.9455L25.1422 22.5737L27.1062 19.9057H28.444L29.2485 21.4666C29.3274 21.6201 29.4888 21.717 29.6657 21.717H35.2652C35.4421 21.717 35.6035 21.6201 35.6828 21.4666L36.4868 19.9057H37.3487L38.904 22.1698L38.4023 22.9002L37.3907 22.2459C37.3142 22.1965 37.2236 22.1698 37.1317 22.1698H36.1985C36.0743 22.1698 35.9558 22.2174 35.8686 22.3025L34.9353 23.2082C34.8476 23.2928 34.7986 23.4083 34.7986 23.5283V29.4151H33.5919L32.3287 28.1893C32.227 28.0901 32.0837 28.0435 31.9419 28.0598C31.7991 28.077 31.6726 28.1567 31.5989 28.2762L30.199 30.5404C30.1552 30.611 30.1323 30.6916 30.1323 30.7736V31.1223L29.3829 30.8107L29.0157 31.643L30.1323 32.1072V32.8213V33.0377C30.1323 33.0821 30.1393 33.126 30.1524 33.1686C30.2382 33.4457 30.4076 33.8542 30.7086 34.269L29.0353 34.878L29.3633 35.7262L31.395 34.9867C31.5051 35.0728 31.6241 35.1556 31.7529 35.2335C32.1108 35.45 32.5121 35.6048 32.9325 35.6909V38.469ZM44.7153 41.3046L43.0877 42.0943H38.8676L38.5316 41.1153V39.9674L39.1289 39.098C39.2031 38.9893 39.3281 38.9245 39.462 38.9245C39.6636 38.9245 39.7672 39.0536 39.8022 39.1088C39.8377 39.1645 39.91 39.3122 39.82 39.4865L39.5138 40.0806C39.4243 40.2549 39.4592 40.4655 39.6016 40.6032L40.0682 41.056C40.1555 41.1411 40.274 41.1887 40.3981 41.1887H42.7312V40.283H40.5913L40.4994 40.1938L40.6552 39.8918C40.8633 39.4879 40.8409 39.0169 40.5964 38.6329C40.3519 38.2489 39.9273 38.0189 39.462 38.0189C39.0155 38.0189 38.6007 38.2344 38.3524 38.5949L37.6767 39.5789C37.6259 39.6536 37.5983 39.741 37.5983 39.8302V41.1887C37.5983 41.2371 37.6067 41.2856 37.6226 41.3318L37.8844 42.0943H36.1985V38.9245H35.2652V42.0943H33.8653V38.9232V35.3019C33.8653 35.0682 33.6819 34.8726 33.4421 34.8509C33.1005 34.8201 32.7799 34.7313 32.4836 34.59L33.0963 34.3672L32.7683 33.5191L31.6204 33.9371C31.3175 33.5902 31.151 33.2234 31.0656 32.9685V32.8208V32.4948L32.2816 33.0006L32.6488 32.1683L31.0656 31.5103V30.899L32.0912 29.2398L33.0688 30.1881C33.1561 30.2732 33.2746 30.3208 33.3987 30.3208H35.2652H36.1985C36.3226 30.3208 36.4411 30.2732 36.5284 30.1881L37.5059 29.2398L38.5316 30.899V31.5103L36.9479 32.1688L37.3151 33.0011L38.5316 32.4952V32.9685C38.4616 33.1772 38.3361 33.4616 38.1275 33.7487L37.26 33.5082L37.0039 34.379L37.3389 34.4718C36.9829 34.6842 36.5853 34.8124 36.1555 34.8513C35.9754 34.8676 35.821 34.9835 35.7598 35.1484C35.6982 35.3137 35.7407 35.498 35.8686 35.622L36.8018 36.5277C36.8891 36.6128 37.0076 36.6604 37.1317 36.6604H42.2315C42.4984 36.6998 43.909 36.9665 44.6593 38.2435C45.4274 39.5499 44.9025 40.9052 44.7153 41.3046Z" fill="#EE436A"/>
<path d="M45.5678 21.9847C44.7274 19.7144 41.9994 16.252 37.9257 16.0197C35.1566 15.8578 33.0488 17.9562 32.0404 18.9632C32.0208 18.9827 32.0012 19.0022 31.9826 19.0208C31.9564 18.9949 31.9298 18.9677 31.9014 18.9391C30.9083 17.9367 28.8262 15.8464 26.0744 16.0088C22.0007 16.2411 19.2727 19.703 18.4323 21.9738C17.31 25.0084 18.3968 28.8859 21.4146 32.6118L22.1486 32.0507C19.3338 28.5761 18.2993 25.0148 19.311 22.2804C20.0669 20.2365 22.507 17.1206 26.129 16.9142C28.4669 16.7868 30.333 18.6638 31.2294 19.5687C31.4007 19.7411 31.5392 19.8804 31.6419 19.9688C31.6984 20.0178 31.767 20.0527 31.8402 20.0704L31.8883 20.0818C32.0372 20.1176 32.1958 20.08 32.3106 19.9802C32.41 19.8944 32.5439 19.7611 32.7096 19.5955C33.6209 18.6856 35.5234 16.7963 37.8711 16.9251C41.4936 17.132 43.9332 20.2478 44.6891 22.2918C45.8394 25.3999 44.3434 29.5463 40.6877 33.3834L41.3723 33.9999C45.2696 29.9092 46.838 25.4176 45.5678 21.9847Z" fill="#EE436A"/>
<path d="M31 23.9996H30V24.9996H31V23.9996Z" fill="#EE436A"/>
<path d="M34 23.9996H32V24.9996H34V23.9996Z" fill="#EE436A"/>
<path d="M32 24.9996H31V25.9996H32V24.9996Z" fill="#EE436A"/>
<path d="M34 30.9999H32V31.9999H34V30.9999Z" fill="#EE436A"/>
<path d="M37 30.9999H36V31.9999H37V30.9999Z" fill="#EE436A"/>
</svg>
