<svg width="28" height="25" viewBox="0 0 28 25" fill="none" xmlns="http://www.w3.org/2000/svg">
<path d="M27.3595 15.5988C27.3595 20.5976 23.5859 24.6501 18.9311 24.6501C14.2763 24.6501 10.5027 20.5976 10.5027 15.5988C10.5027 10.6 14.2763 6.54761 18.9311 6.54761C23.5859 6.54761 27.3595 10.6 27.3595 15.5988Z" fill="#C83859"/>
<path d="M17.6759 9.05123C17.6759 14.05 13.822 18.1025 9.06817 18.1025C4.31431 18.1025 0.460449 14.05 0.460449 9.05123C0.460449 4.05243 4.31431 0 9.06817 0C13.822 0 17.6759 4.05243 17.6759 9.05123Z" fill="#EE436A"/>
<path d="M9.06818 2.4137C5.58195 2.4137 2.75586 5.3854 2.75586 9.05127C2.75586 12.7171 5.58195 15.6888 9.06818 15.6888C9.33297 15.6891 9.59748 15.6712 9.86002 15.6346L9.86647 15.6249C9.98107 15.444 10.0993 15.2628 10.224 15.0901C10.268 15.03 10.3106 14.9652 10.3565 14.9045C10.4616 14.7652 10.5717 14.6317 10.6841 14.4994C10.7553 14.4151 10.8259 14.3312 10.8998 14.2498C11.0032 14.1361 11.1111 14.0283 11.2201 13.9207C11.3089 13.8326 11.398 13.7457 11.4911 13.662C11.5995 13.5636 11.7102 13.4693 11.8231 13.3771C11.922 13.2964 12.0212 13.2171 12.1235 13.1411C12.2414 13.0524 12.3628 12.9682 12.4855 12.8854C12.5864 12.8179 12.6889 12.7525 12.7931 12.6891C12.9257 12.6084 13.0593 12.5312 13.1947 12.4576C13.2939 12.4045 13.3945 12.3544 13.4959 12.3055C13.6436 12.233 13.7926 12.165 13.9448 12.1016C14.04 12.0625 14.1364 12.0262 14.2317 11.9906C14.3939 11.9302 14.557 11.8698 14.724 11.822C14.7551 11.8126 14.7842 11.7999 14.8153 11.7908C15.7002 9.73689 15.5332 7.35092 14.3715 5.45552C13.2098 3.56013 11.2125 2.41458 9.06818 2.4137Z" fill="#FFA733"/>
<path d="M18.9312 8.85876C16.6976 8.85965 14.6383 10.1543 13.5436 12.245C12.4492 14.3358 12.4895 16.8982 13.6495 18.948C13.861 19.022 14.069 19.1047 14.2731 19.1964C14.3793 19.2435 14.4816 19.2971 14.5856 19.349C14.6978 19.4053 14.8103 19.4613 14.9228 19.5222C15.035 19.5832 15.1535 19.6545 15.2666 19.7244C15.3588 19.7818 15.4493 19.8416 15.539 19.9023C15.6548 19.9804 15.77 20.0576 15.8812 20.1407C15.9582 20.2011 16.0318 20.2615 16.1061 20.3219C16.3122 20.4875 16.5105 20.6628 16.7009 20.8475C16.7712 20.915 16.8428 20.9807 16.91 21.0514C17.0118 21.1563 17.1089 21.2662 17.2058 21.3767C17.2708 21.4515 17.335 21.527 17.3978 21.6036C17.4927 21.7199 17.586 21.8369 17.6755 21.9583C17.6878 21.9751 17.7013 21.9904 17.7136 22.0072C20.0196 22.4981 22.3854 21.5417 23.8176 19.5393C25.2495 17.5367 25.4997 14.8355 24.4629 12.5694C23.4264 10.3034 21.2822 8.86525 18.9312 8.85876Z" fill="#FFDE55"/>
<path d="M11.3635 7.84432C11.3604 7.08004 10.9012 6.40002 10.2158 6.14516V5.43066H9.0681V6.03408H8.49425V5.43066H7.34655V6.03408C7.02965 6.03408 6.77271 6.30426 6.77271 6.63749V11.4648C6.77271 11.798 7.02965 12.0682 7.34655 12.0682V12.6716H8.49425V12.0682H9.0681V12.6716H10.2158V11.9572C10.7585 11.7597 11.1704 11.2883 11.3114 10.7029C11.4526 10.1174 11.3038 9.49664 10.916 9.05115C11.2024 8.72116 11.3621 8.29099 11.3635 7.84432ZM7.9204 7.24091H9.64194C9.95885 7.24091 10.2158 7.51109 10.2158 7.84432C10.2158 8.17756 9.95885 8.44774 9.64194 8.44774H7.9204V7.24091ZM9.64194 10.8614H7.9204V9.65457H9.64194C9.95885 9.65457 10.2158 9.92475 10.2158 10.258C10.2158 10.5912 9.95885 10.8614 9.64194 10.8614Z" fill="#FF6243"/>
<path d="M19.4928 14.9953H18.369C18.0587 14.9953 17.8071 14.7252 17.8071 14.3919C17.8071 14.0587 18.0587 13.7885 18.369 13.7885H19.4928C19.8031 13.7885 20.0547 14.0587 20.0547 14.3919H21.1785C21.1785 13.3922 20.4237 12.5817 19.4928 12.5817V11.9783H18.369V12.5817C17.4381 12.5817 16.6833 13.3922 16.6833 14.3919C16.6833 15.3916 17.4381 16.2022 18.369 16.2022H19.4928C19.8031 16.2022 20.0547 16.4724 20.0547 16.8056C20.0547 17.1388 19.8031 17.409 19.4928 17.409H18.369C18.0587 17.409 17.8071 17.1388 17.8071 16.8056H16.6833C16.6833 17.8053 17.4381 18.6158 18.369 18.6158V19.2193H19.4928V18.6158C20.4237 18.6158 21.1785 17.8053 21.1785 16.8056C21.1785 15.8059 20.4237 14.9953 19.4928 14.9953Z" fill="#FF6243"/>
</svg>
