<svg width="24" height="25" viewBox="0 0 24 25" fill="none" xmlns="http://www.w3.org/2000/svg">
<path d="M21.4286 24.0012H2.57143C1.15179 24.0012 0 22.8495 0 21.4299V2.57378C0 1.15421 1.15179 0.00248718 2.57143 0.00248718H21.4286C22.8482 0.00248718 24 1.15421 24 2.57378V21.4299C24 22.8495 22.8482 24.0012 21.4286 24.0012ZM12.7554 7.81814L5.48571 15.0874L5.14821 18.1462C5.10536 18.5533 5.44821 18.9015 5.86071 18.8586L8.91964 18.5211L16.1893 11.2519C16.3125 11.1287 16.3125 10.9251 16.1893 10.7965L13.2161 7.82349C13.0821 7.69493 12.8786 7.69493 12.7554 7.81814ZM18.4821 7.13246L16.8696 5.52005C16.3661 5.0165 15.5518 5.0165 15.0536 5.52005L13.8161 6.75748C13.6929 6.88069 13.6929 7.08425 13.8161 7.21281L16.7893 10.1859C16.9125 10.3091 17.1161 10.3091 17.2446 10.1859L18.4821 8.94843C18.9804 8.45024 18.9804 7.636 18.4821 7.13246Z" fill="#6B6969"/>
</svg>
