<svg width="51" height="52" viewBox="0 0 51 52" fill="none" xmlns="http://www.w3.org/2000/svg">
<path d="M13.0515 3.25C12.6014 3.25 12.2339 2.8858 12.2339 2.4375C12.2339 1.9892 12.5934 1.625 13.0424 1.625H13.0515C13.5005 1.625 13.8652 1.9892 13.8652 2.4375C13.8652 2.8858 13.5005 3.25 13.0515 3.25Z" fill="#00B6B8"/>
<path d="M15.4922 3.25C15.0421 3.25 14.6746 2.8858 14.6746 2.4375C14.6746 1.9892 15.0341 1.625 15.4831 1.625H15.4922C15.9412 1.625 16.3059 1.9892 16.3059 2.4375C16.3059 2.8858 15.9412 3.25 15.4922 3.25Z" fill="#00B6B8"/>
<path d="M17.9336 3.25C17.4835 3.25 17.116 2.8858 17.116 2.4375C17.116 1.9892 17.4755 1.625 17.9245 1.625H17.9336C18.3826 1.625 18.7473 1.9892 18.7473 2.4375C18.7473 2.8858 18.3826 3.25 17.9336 3.25Z" fill="#00B6B8"/>
<path d="M49.657 42.25H10.6005C10.1508 42.25 9.78687 41.887 9.78687 41.4375V4.0625C9.78687 3.6142 10.1508 3.25 10.6005 3.25H49.657C50.1072 3.25 50.4707 3.6142 50.4707 4.0625V41.4375C50.4707 41.887 50.1064 42.25 49.657 42.25ZM11.4142 40.625H48.8433V4.875H11.4142V40.625Z" fill="#00B6B8"/>
<path d="M10.5856 3.25C10.1359 3.25 9.77197 2.8858 9.77197 2.4375C9.77197 1.09378 10.8673 0 12.213 0C12.6631 0 13.0267 0.364197 13.0267 0.8125C13.0267 1.2608 12.6631 1.625 12.213 1.625C11.764 1.625 11.3993 1.98999 11.3993 2.4375C11.3993 2.8858 11.0358 3.25 10.5856 3.25Z" fill="#00B6B8"/>
<path d="M10.5856 4.875C10.1359 4.875 9.77197 4.5108 9.77197 4.0625V2.4375C9.77197 1.9892 10.1359 1.625 10.5856 1.625C11.0358 1.625 11.3993 1.9892 11.3993 2.4375V4.0625C11.3993 4.5108 11.0358 4.875 10.5856 4.875Z" fill="#00B6B8"/>
<path d="M49.6422 3.25C49.1925 3.25 48.8285 2.8858 48.8285 2.4375C48.8285 1.98999 48.4642 1.625 48.0148 1.625C47.5651 1.625 47.2012 1.2608 47.2012 0.8125C47.2012 0.364197 47.5651 0 48.0148 0C49.3609 0 50.4559 1.09378 50.4559 2.4375C50.4559 2.8858 50.0923 3.25 49.6422 3.25Z" fill="#00B6B8"/>
<path d="M49.6425 4.875C49.1928 4.875 48.8289 4.5108 48.8289 4.0625V2.4375C48.8289 1.9892 49.1928 1.625 49.6425 1.625C50.0927 1.625 50.4562 1.9892 50.4562 2.4375V4.0625C50.4562 4.5108 50.0927 4.875 49.6425 4.875Z" fill="#00B6B8"/>
<path d="M48.0146 1.625H12.2128C11.7631 1.625 11.3992 1.2608 11.3992 0.8125C11.3992 0.364197 11.7631 0 12.2128 0H48.0146C48.4648 0 48.8283 0.364197 48.8283 0.8125C48.8283 1.2608 48.4648 1.625 48.0146 1.625Z" fill="#00B6B8"/>
<path d="M8.15554 8.125C7.70579 8.125 7.33789 7.7608 7.33789 7.3125C7.33789 6.8642 7.69745 6.5 8.1468 6.5H8.15554C8.60489 6.5 8.96922 6.8642 8.96922 7.3125C8.96922 7.7608 8.60489 8.125 8.15554 8.125Z" fill="#00B6B8"/>
<path d="M44.76 47.125H5.70357C5.25382 47.125 4.88989 46.762 4.88989 46.3125V8.9375C4.88989 8.4892 5.25382 8.125 5.70357 8.125C6.15371 8.125 6.51725 8.4892 6.51725 8.9375V45.5H43.9464V42.3174C43.9464 41.868 44.3103 41.5049 44.76 41.5049C45.2102 41.5049 45.5737 41.868 45.5737 42.3174V46.3125C45.5737 46.762 45.2102 47.125 44.76 47.125Z" fill="#00B6B8"/>
<path d="M5.69014 8.125C5.24 8.125 4.87646 7.7608 4.87646 7.3125C4.87646 5.96878 5.97143 4.875 7.31749 4.875C7.76724 4.875 8.13117 5.2392 8.13117 5.6875C8.13117 6.1358 7.76724 6.5 7.31749 6.5C6.86814 6.5 6.50382 6.86499 6.50382 7.3125C6.50382 7.7608 6.13909 8.125 5.69014 8.125Z" fill="#00B6B8"/>
<path d="M5.69014 9.75C5.24 9.75 4.87646 9.3858 4.87646 8.9375V7.3125C4.87646 6.8642 5.24 6.5 5.69014 6.5C6.13989 6.5 6.50382 6.8642 6.50382 7.3125V8.9375C6.50382 9.3858 6.13909 9.75 5.69014 9.75Z" fill="#00B6B8"/>
<path d="M10.5721 9.75H5.70357C5.25382 9.75 4.88989 9.3858 4.88989 8.9375C4.88989 8.4892 5.25382 8.125 5.70357 8.125H10.5713C11.0211 8.125 11.385 8.4892 11.385 8.9375C11.385 9.3858 11.0211 9.75 10.5721 9.75Z" fill="#00B6B8"/>
<path d="M10.5725 6.5H7.33125C6.88151 6.5 6.51758 6.1358 6.51758 5.6875C6.51758 5.2392 6.88151 4.875 7.33125 4.875H10.5717C11.0214 4.875 11.3853 5.2392 11.3853 5.6875C11.3853 6.1358 11.0214 6.5 10.5725 6.5Z" fill="#00B6B8"/>
<path d="M3.27981 13C2.83006 13 2.46216 12.6358 2.46216 12.1875C2.46216 11.7392 2.82172 11.375 3.27107 11.375H3.27981C3.72916 11.375 4.09348 11.7392 4.09348 12.1875C4.09348 12.6358 3.72836 13 3.27981 13Z" fill="#00B6B8"/>
<path d="M39.8848 52H0.828325C0.378181 52 0.0146484 51.637 0.0146484 51.1875V13.8125C0.0146484 13.3642 0.378181 13 0.828325 13C1.27807 13 1.642 13.3642 1.642 13.8125V50.375H39.0711V47.1924C39.0711 46.743 39.4347 46.3799 39.8848 46.3799C40.3345 46.3799 40.6985 46.743 40.6985 47.1924V51.1875C40.6985 51.637 40.3345 52 39.8848 52Z" fill="#00B6B8"/>
<path d="M0.813677 13C0.363532 13 0 12.6358 0 12.1875C0 10.8438 1.09536 9.75 2.44103 9.75C2.89117 9.75 3.25471 10.1142 3.25471 10.5625C3.25471 11.0108 2.89117 11.375 2.44103 11.375C1.99208 11.375 1.62735 11.74 1.62735 12.1875C1.62735 12.6358 1.26382 13 0.813677 13Z" fill="#00B6B8"/>
<path d="M0.813677 14.625C0.363532 14.625 0 14.2608 0 13.8125V12.1875C0 11.7392 0.363532 11.375 0.813677 11.375C1.26382 11.375 1.62735 11.7392 1.62735 12.1875V13.8125C1.62735 14.2608 1.26382 14.625 0.813677 14.625Z" fill="#00B6B8"/>
<path d="M5.69727 14.625H0.828325C0.378181 14.625 0.0146484 14.2608 0.0146484 13.8125C0.0146484 13.3642 0.378181 13 0.828325 13H5.69727C6.14742 13 6.51095 13.3642 6.51095 13.8125C6.51095 14.2608 6.14742 14.625 5.69727 14.625Z" fill="#00B6B8"/>
<path d="M5.69736 11.375H2.45577C2.00562 11.375 1.64209 11.0108 1.64209 10.5625C1.64209 10.1142 2.00562 9.75 2.45577 9.75H5.69736C6.14751 9.75 6.51104 10.1142 6.51104 10.5625C6.51104 11.0108 6.14751 11.375 5.69736 11.375Z" fill="#00B6B8"/>
<path d="M44.7523 20.3125H15.4599C15.0098 20.3125 14.6462 19.9483 14.6462 19.5V8.9375C14.6462 8.4892 15.0098 8.125 15.4599 8.125H44.7523C45.2024 8.125 45.5659 8.4892 45.5659 8.9375V19.5C45.5659 19.9483 45.2024 20.3125 44.7523 20.3125ZM16.2736 18.6875H43.9386V9.75H16.2736V18.6875Z" fill="#00B6B8"/>
<path d="M44.7523 26.8125H15.4599C15.0098 26.8125 14.6462 26.4483 14.6462 26V23.5625C14.6462 23.1142 15.0098 22.75 15.4599 22.75H44.7523C45.2024 22.75 45.5659 23.1142 45.5659 23.5625V26C45.5659 26.4483 45.2024 26.8125 44.7523 26.8125ZM16.2736 25.1875H43.9386V24.375H16.2736V25.1875Z" fill="#00B6B8"/>
<path d="M30.9198 30.875H15.4599C15.0098 30.875 14.6462 30.512 14.6462 30.0625C14.6462 29.613 15.0098 29.25 15.4599 29.25H30.9198C31.3699 29.25 31.7334 29.613 31.7334 30.0625C31.7334 30.512 31.3699 30.875 30.9198 30.875Z" fill="#00B6B8"/>
<path d="M22.783 34.125H15.4599C15.0098 34.125 14.6462 33.762 14.6462 33.3125C14.6462 32.863 15.0098 32.5 15.4599 32.5H22.783C23.2331 32.5 23.5967 32.863 23.5967 33.3125C23.5967 33.762 23.2331 34.125 22.783 34.125Z" fill="#00B6B8"/>
<path d="M44.7524 34.125H26.0378C25.5877 34.125 25.2241 33.762 25.2241 33.3125C25.2241 32.863 25.5877 32.5 26.0378 32.5H44.7524C45.2025 32.5 45.566 32.863 45.566 33.3125C45.566 33.762 45.2025 34.125 44.7524 34.125Z" fill="#00B6B8"/>
<path d="M36.6155 37.375H15.4599C15.0098 37.375 14.6462 37.012 14.6462 36.5625C14.6462 36.113 15.0098 35.75 15.4599 35.75H36.6155C37.0656 35.75 37.4292 36.113 37.4292 36.5625C37.4292 37.012 37.0656 37.375 36.6155 37.375Z" fill="#00B6B8"/>
<path d="M44.7521 37.375H39.8701C39.4199 37.375 39.0564 37.012 39.0564 36.5625C39.0564 36.113 39.4199 35.75 39.8701 35.75H44.7521C45.2023 35.75 45.5658 36.113 45.5658 36.5625C45.5658 37.012 45.2023 37.375 44.7521 37.375Z" fill="#00B6B8"/>
<path d="M44.7521 30.875H34.1743C33.7241 30.875 33.3606 30.512 33.3606 30.0625C33.3606 29.613 33.7241 29.25 34.1743 29.25H44.7521C45.2022 29.25 45.5657 29.613 45.5657 30.0625C45.5657 30.512 45.2022 30.875 44.7521 30.875Z" fill="#00B6B8"/>
<path d="M29.2916 20.3121C29.1216 20.3121 28.9507 20.2594 28.8041 20.1495C28.4446 19.8809 28.3715 19.3711 28.6416 19.0121L33.5237 12.5121C33.7939 12.1538 34.3032 12.0808 34.662 12.3498C35.0215 12.6184 35.0946 13.1282 34.8245 13.4872L29.9424 19.9872C29.7839 20.1999 29.5399 20.3121 29.2916 20.3121Z" fill="#00B6B8"/>
<path d="M39.0573 20.3111C38.809 20.3111 38.5659 20.1988 38.4058 19.9862L33.5237 13.4862C33.2535 13.1271 33.3266 12.6174 33.6862 12.3488C34.045 12.0782 34.5543 12.152 34.8245 12.511L39.7065 19.011C39.9767 19.3701 39.9036 19.8799 39.544 20.1485C39.3982 20.2583 39.2274 20.3111 39.0573 20.3111Z" fill="#00B6B8"/>
<path d="M24.4094 20.3139C24.231 20.3139 24.0523 20.2555 23.9017 20.1357C23.5509 19.8556 23.494 19.3447 23.7749 18.9943L27.0296 14.9318C27.3117 14.5823 27.8219 14.524 28.1735 14.8053C28.5243 15.0854 28.5811 15.5964 28.3002 15.9467L25.0455 20.0092C24.8846 20.2099 24.6486 20.3139 24.4094 20.3139Z" fill="#00B6B8"/>
<path d="M30.0797 19.2632C29.8405 19.2632 29.6045 19.1593 29.4436 18.9585L27.0296 15.945C26.7487 15.5947 26.8063 15.0829 27.1563 14.8036C27.5087 14.5223 28.0197 14.5798 28.3001 14.9301L30.7146 17.9437C30.9951 18.294 30.9374 18.8058 30.5874 19.0855C30.438 19.2049 30.2581 19.2632 30.0797 19.2632Z" fill="#00B6B8"/>
<path d="M21.9942 13C21.5444 13 21.1765 12.6358 21.1765 12.1875C21.1765 11.7392 21.5361 11.375 21.9854 11.375H21.9942C22.4435 11.375 22.8078 11.7392 22.8078 12.1875C22.8078 12.6358 22.4427 13 21.9942 13Z" fill="#00B6B8"/>
</svg>
