<svg width="11" height="11" viewBox="0 0 11 11" fill="none" xmlns="http://www.w3.org/2000/svg">
<path d="M10.0856 6.47365L10.9884 2.0049C11.0536 1.68225 10.8356 1.375 10.5415 1.375H3.04043L2.86539 0.412285C2.82177 0.172326 2.63408 0 2.41635 0H0.458333C0.2052 0 0 0.23085 0 0.515625V0.859375C0 1.14415 0.2052 1.375 0.458333 1.375H1.79291L3.13445 8.75349C2.8135 8.96113 2.59722 9.35047 2.59722 9.79688C2.59722 10.4613 3.07603 11 3.66667 11C4.25731 11 4.73611 10.4613 4.73611 9.79688C4.73611 9.46013 4.61299 9.15589 4.41482 8.9375H8.4185C8.22034 9.15589 8.09723 9.46013 8.09723 9.79688C8.09723 10.4613 8.57603 11 9.16667 11C9.75731 11 10.2361 10.4613 10.2361 9.79688C10.2361 9.32052 9.98999 8.90888 9.63304 8.71396L9.7384 8.1924C9.80358 7.86975 9.58559 7.5625 9.29147 7.5625H4.16543L4.04044 6.875H9.6387C9.8527 6.875 10.0382 6.70841 10.0856 6.47365Z" fill="white"/>
</svg>
