<svg width="30" height="33" viewBox="0 0 30 33" fill="none" xmlns="http://www.w3.org/2000/svg">
<path d="M14.9838 33C23.9953 29.6318 29.9676 21.0285 29.9676 11.4155V5.58912C26.8781 5.58912 24.3736 3.08679 24.3736 0H14.9838H5.59392C5.59392 3.08679 3.08944 5.58912 0 5.58912V11.4154C0 21.0285 5.97226 29.6318 14.9838 33Z" fill="#EE436A"/>
<path d="M14.9834 33C23.9949 29.6318 29.9672 21.0285 29.9672 11.4155V5.58912C26.8777 5.58912 24.3733 3.08679 24.3733 0H14.9834C14.9834 0 14.9834 25.6523 14.9834 33Z" fill="#CA0F3A"/>
<path d="M12.896 22.319L7.92871 17.356L10.6655 14.6215L12.896 16.85L19.3012 10.4503L22.038 13.1848L12.896 22.319Z" fill="#F1F1F2"/>
<path d="M14.9834 20.2334V14.7644L19.3012 10.4503L22.0381 13.1848L14.9834 20.2334Z" fill="#E6E6E6"/>
</svg>
