<svg width="16" height="16" viewBox="0 0 16 16" fill="none" xmlns="http://www.w3.org/2000/svg">
<path d="M15.5606 13.4395L11.8899 9.76855C11.343 10.6191 10.6192 11.3426 9.76855 11.8895L13.4395 15.5605C14.0255 16.1464 14.9757 16.1464 15.5605 15.5605C16.1466 14.9755 16.1466 14.0253 15.5606 13.4395Z" fill="#6B6969"/>
<path d="M12 5.99999C12 2.68658 9.31354 0 6.00004 0C2.68661 0 0 2.68658 0 5.99999C0 9.3134 2.68661 11.9999 6.00004 11.9999C9.31354 11.9999 12 9.3134 12 5.99999ZM6.00004 10.4998C3.51858 10.4998 1.50005 8.48147 1.50005 6.00002C1.50005 3.51858 3.51858 1.50007 6.00004 1.50007C8.48144 1.50007 10.5001 3.51858 10.5001 6.00002C10.5001 8.48147 8.48144 10.4998 6.00004 10.4998Z" fill="#6B6969"/>
<path d="M2.5 5.99995H3.49988C3.49988 4.62149 4.62151 3.49997 5.99995 3.49997V2.5C4.07032 2.5 2.5 4.07031 2.5 5.99995Z" fill="#6B6969"/>
</svg>
