<svg width="20" height="20" viewBox="0 0 20 20" fill="none" xmlns="http://www.w3.org/2000/svg">
<path d="M18.9133 17.4245L15.2294 13.7252C15.0631 13.5583 14.8377 13.4655 14.6012 13.4655H13.999C15.0188 12.1557 15.6247 10.5083 15.6247 8.71622C15.6247 4.453 12.1847 0.998642 7.9392 0.998642C3.69368 0.998642 0.253662 4.453 0.253662 8.71622C0.253662 12.9794 3.69368 16.4338 7.9392 16.4338C9.72387 16.4338 11.3644 15.8253 12.6688 14.8012V15.406C12.6688 15.6435 12.7611 15.8698 12.9274 16.0368L16.6113 19.736C16.9586 20.0848 17.5203 20.0848 17.8639 19.736L18.9096 18.686C19.2569 18.3372 19.2569 17.7732 18.9133 17.4245ZM7.9392 13.4655C5.32686 13.4655 3.20964 11.3432 3.20964 8.71622C3.20964 6.09299 5.32316 3.96694 7.9392 3.96694C10.5515 3.96694 12.6688 6.08928 12.6688 8.71622C12.6688 11.3395 10.5552 13.4655 7.9392 13.4655Z" fill="white"/>
</svg>
