<svg width="20" height="16" viewBox="0 0 20 16" fill="none" xmlns="http://www.w3.org/2000/svg">
<path d="M16.0047 5.9854L15.7485 6.43379C15.6547 6.59997 15.4547 6.66895 15.2766 6.60311C14.9078 6.46514 14.5702 6.2676 14.2733 6.01989C14.1296 5.90074 14.0921 5.69066 14.1858 5.52761L14.4421 5.07922C14.2265 4.82838 14.0577 4.53677 13.9452 4.22008H13.4295C13.242 4.22008 13.0795 4.08525 13.0482 3.89712C12.9857 3.52085 12.9826 3.12577 13.0482 2.73382C13.0795 2.54569 13.242 2.40772 13.4295 2.40772H13.9452C14.0577 2.09103 14.2265 1.79942 14.4421 1.54858L14.1858 1.10019C14.0921 0.937145 14.1265 0.727062 14.2733 0.607911C14.5702 0.360201 14.9109 0.162661 15.2766 0.0246962C15.4547 -0.0411506 15.6547 0.0278318 15.7485 0.194017L16.0047 0.642402C16.3329 0.582826 16.6673 0.582826 16.9954 0.642402L17.2517 0.194017C17.3455 0.0278318 17.5455 -0.0411506 17.7236 0.0246962C18.0924 0.162661 18.4299 0.360201 18.7268 0.607911C18.8706 0.727062 18.9081 0.937145 18.8143 1.10019L18.5581 1.54858C18.7737 1.79942 18.9425 2.09103 19.055 2.40772H19.5707C19.7582 2.40772 19.9207 2.54255 19.9519 2.73069C20.0144 3.10695 20.0176 3.50204 19.9519 3.89398C19.9207 4.08211 19.7582 4.22008 19.5707 4.22008H19.055C18.9425 4.53677 18.7737 4.82838 18.5581 5.07922L18.8143 5.52761C18.9081 5.69066 18.8737 5.90074 18.7268 6.01989C18.4299 6.2676 18.0893 6.46514 17.7236 6.60311C17.5455 6.66895 17.3455 6.59997 17.2517 6.43379L16.9954 5.9854C16.6704 6.04498 16.3329 6.04498 16.0047 5.9854ZM15.6766 4.14169C16.8798 5.06982 18.2518 3.6933 17.3267 2.48611C16.1235 1.55485 14.7515 2.9345 15.6766 4.14169ZM12.0732 8.96732L13.1264 9.49409C13.442 9.67596 13.5795 10.0616 13.4545 10.4065C13.1764 11.1653 12.6295 11.8614 12.1232 12.4697C11.8919 12.7488 11.4919 12.8178 11.1762 12.6359L10.2668 12.1092C9.76673 12.5387 9.18543 12.8805 8.551 13.1031V14.1567C8.551 14.5204 8.2916 14.834 7.93532 14.8967C7.16651 15.0284 6.36019 15.0346 5.56325 14.8967C5.20385 14.834 4.9382 14.5235 4.9382 14.1567V13.1031C4.30377 12.8774 3.72248 12.5387 3.22243 12.1092L2.31298 12.6328C2.00046 12.8147 1.5973 12.7457 1.36603 12.4666C0.85974 11.8583 0.32532 11.1622 0.0471723 10.4065C-0.077838 10.0648 0.0596734 9.67909 0.375324 9.49409L1.41604 8.96732C1.29415 8.31199 1.29415 7.63784 1.41604 6.97937L0.375324 6.44946C0.0596734 6.2676 -0.0809632 5.88193 0.0471723 5.54015C0.32532 4.78134 0.85974 4.08525 1.36603 3.47695C1.5973 3.19789 1.99733 3.1289 2.31298 3.31077L3.22243 3.83754C3.72248 3.40797 4.30377 3.06619 4.9382 2.84357V1.78688C4.9382 1.42629 5.19447 1.11274 5.55075 1.05003C6.31957 0.918332 7.12901 0.91206 7.92595 1.04689C8.28535 1.1096 8.551 1.42002 8.551 1.78688V2.84043C9.18543 3.06619 9.76673 3.40483 10.2668 3.8344L11.1762 3.30763C11.4887 3.12577 11.8919 3.19475 12.1232 3.47382C12.6295 4.08211 13.1608 4.77821 13.4389 5.53702C13.5639 5.87879 13.442 6.26447 13.1264 6.44946L12.0732 6.97624C12.1951 7.63471 12.1951 8.30885 12.0732 8.96732ZM8.39786 9.62892C10.248 7.21454 7.50091 4.45838 5.09446 6.31464C3.24431 8.72902 5.99141 11.4852 8.39786 9.62892ZM16.0047 15.3576L15.7485 15.806C15.6547 15.9722 15.4547 16.0412 15.2766 15.9753C14.9078 15.8373 14.5702 15.6398 14.2733 15.3921C14.1296 15.2729 14.0921 15.0629 14.1858 14.8998L14.4421 14.4514C14.2265 14.2006 14.0577 13.909 13.9452 13.5923H13.4295C13.242 13.5923 13.0795 13.4574 13.0482 13.2693C12.9857 12.893 12.9826 12.498 13.0482 12.106C13.0795 11.9179 13.242 11.7799 13.4295 11.7799H13.9452C14.0577 11.4632 14.2265 11.1716 14.4421 10.9208L14.1858 10.4724C14.0921 10.3093 14.1265 10.0993 14.2733 9.98011C14.5702 9.7324 14.9109 9.53486 15.2766 9.39689C15.4547 9.33105 15.6547 9.40003 15.7485 9.56621L16.0047 10.0146C16.3329 9.95502 16.6673 9.95502 16.9954 10.0146L17.2517 9.56621C17.3455 9.40003 17.5455 9.33105 17.7236 9.39689C18.0924 9.53486 18.4299 9.7324 18.7268 9.98011C18.8706 10.0993 18.9081 10.3093 18.8143 10.4724L18.5581 10.9208C18.7737 11.1716 18.9425 11.4632 19.055 11.7799H19.5707C19.7582 11.7799 19.9207 11.9148 19.9519 12.1029C20.0144 12.4792 20.0176 12.8742 19.9519 13.2662C19.9207 13.4543 19.7582 13.5923 19.5707 13.5923H19.055C18.9425 13.909 18.7737 14.2006 18.5581 14.4514L18.8143 14.8998C18.9081 15.0629 18.8737 15.2729 18.7268 15.3921C18.4299 15.6398 18.0893 15.8373 17.7236 15.9753C17.5455 16.0412 17.3455 15.9722 17.2517 15.806L16.9954 15.3576C16.6704 15.4172 16.3329 15.4172 16.0047 15.3576ZM15.6766 13.5108C16.8798 14.4389 18.2518 13.0624 17.3267 11.8552C16.1235 10.927 14.7515 12.3036 15.6766 13.5108Z" fill="#3B3838"/>
</svg>
