<svg width="63" height="61" viewBox="0 0 63 61" fill="none" xmlns="http://www.w3.org/2000/svg">
<ellipse cx="31.5" cy="30.5" rx="31.5" ry="30.5" fill="#D8D8D8"/>
<path d="M43.2867 21.5152C41.0745 18.6084 37.8209 16.7062 34.1251 16.1591C30.4294 15.612 26.7339 16.4855 23.7194 18.6187C20.7049 20.7519 18.7323 23.8894 18.165 27.4533C17.6724 30.5476 18.291 33.6413 19.9102 36.3055C19.9114 36.3075 19.9126 36.3095 19.9138 36.3115C20.1585 36.7137 20.4255 37.1064 20.7156 37.4876C22.6869 40.078 25.5565 41.9084 28.7958 42.6417C28.9435 42.6751 29.0915 42.7056 29.2399 42.7344C29.2708 42.7428 29.3023 42.7484 29.3344 42.7516C30.2187 42.9168 31.113 42.9999 32.0049 42.9999C32.903 42.9999 33.7983 42.9155 34.6779 42.751C34.704 42.748 34.7298 42.7434 34.755 42.7368C35.978 42.5012 37.1697 42.1086 38.2942 41.5614C38.5639 41.4302 38.6721 41.1131 38.536 40.8531C38.4 40.5931 38.0711 40.4887 37.8015 40.62C37.1242 40.9496 36.4299 41.2163 35.7262 41.4229L37.9936 37.6323L42.4328 36.8282C42.0469 37.3414 41.6164 37.8304 41.141 38.289C40.9275 38.495 40.9276 38.8289 41.1412 39.0347C41.3548 39.2406 41.7009 39.2405 41.9144 39.0346C42.751 38.2276 43.4712 37.3246 44.0644 36.3518C44.0687 36.3447 44.0732 36.3378 44.0772 36.3307C45.0444 34.738 45.6697 32.9583 45.9001 31.1017C45.9021 31.0888 45.9037 31.0759 45.9047 31.0629C45.9242 30.9022 45.9415 30.741 45.955 30.5792C46.2246 27.3495 45.277 24.1307 43.2867 21.5152ZM33.9592 17.2015C36.7924 17.6209 39.343 18.9047 41.2947 20.8659L40.6275 26.3974L36.3406 27.3256L32.5614 24.6778V20.7173L33.4034 20.1353C33.6488 19.9657 33.7052 19.6363 33.5293 19.3996C33.3533 19.1629 33.0118 19.1086 32.7663 19.2782L31.9784 19.8227L28.2114 17.6002C30.0482 17.0548 32.0035 16.912 33.9592 17.2015ZM28.4259 28.0937L30.2069 26.846L31.9878 25.5982L35.5498 28.0937L34.1892 32.1315H29.7865V32.1315L28.4259 28.0937ZM24.3664 19.4689C25.1652 18.9037 26.0161 18.4349 26.9037 18.0651L31.441 20.7421V24.6778L27.6617 27.3257L23.3579 26.3939L22.4792 21.0971C23.0457 20.5028 23.6763 19.9573 24.3664 19.4689ZM19.2459 27.6133C19.5631 25.6209 20.3574 23.7735 21.5528 22.189L22.2926 26.6489L19.0959 29.7585C19.0824 29.0476 19.1318 28.3305 19.2459 27.6133ZM19.2051 31.1502L23.0518 27.4084L27.3593 28.341L28.7885 32.5825L26.0986 36.5741L20.7401 35.5822C19.9349 34.2019 19.4179 32.7017 19.2051 31.1502ZM21.5973 36.8637C21.583 36.8449 21.5693 36.8258 21.5551 36.8069L26.008 37.6312L28.2823 41.4328C25.6811 40.6766 23.3161 39.1223 21.5973 36.8637ZM34.2589 41.7651C32.7518 42.0267 31.2247 42.0227 29.7465 41.7698L26.9978 37.1751L29.6859 33.1861H34.3163L37.0044 37.1752L34.2589 41.7651ZM43.2403 35.6088L37.9045 36.5753L35.2138 32.5824L36.643 28.3409L40.9473 27.409L44.7628 31.1873C44.547 32.7279 44.0374 34.2319 43.2403 35.6088ZM44.8775 29.7894L41.699 26.6418L42.2639 21.9584C42.3113 22.0184 42.3586 22.0783 42.405 22.1392C44.1319 24.4085 44.9436 27.1127 44.8775 29.7894Z" fill="#EE436A"/>
<path d="M34.8535 18.1464C34.7605 18.0534 34.6315 17.9999 34.5 17.9999C34.3685 17.9999 34.2395 18.0534 34.1465 18.1464C34.0535 18.2394 34 18.3684 34 18.4999C34 18.6314 34.0535 18.7604 34.1465 18.8534C34.2395 18.9469 34.3685 18.9999 34.5 18.9999C34.6315 18.9999 34.7605 18.9469 34.8535 18.8534C34.9465 18.7604 35 18.6314 35 18.4999C35 18.3684 34.9465 18.2394 34.8535 18.1464Z" fill="#EE436A"/>
<path d="M40.8535 39.1466C40.7605 39.0536 40.6315 39.0001 40.5 39.0001C40.3685 39.0001 40.2395 39.0536 40.1465 39.1466C40.0535 39.2396 40 39.3686 40 39.5001C40 39.6316 40.0535 39.7606 40.1465 39.8536C40.2395 39.9471 40.3684 40.0001 40.5 40.0001C40.6315 40.0001 40.7605 39.9471 40.8535 39.8536C40.9465 39.7606 41 39.6316 41 39.5001C41 39.3686 40.9465 39.2396 40.8535 39.1466Z" fill="#EE436A"/>
</svg>
