<svg width="63" height="61" viewBox="0 0 63 61" fill="none" xmlns="http://www.w3.org/2000/svg">
<ellipse cx="31.5" cy="30.5" rx="31.5" ry="30.5" fill="#D8D8D8"/>
<path d="M44.806 19H43.1944C42.5356 19 42 19.5802 42 20.2935V22.0333V24.6333V40.7819L43.6 43.8153V44.5667C43.6 44.8063 43.7788 45 44 45C44.2212 45 44.4 44.8063 44.4 44.5667V43.8153L46 40.7819V24.6333V22.0333V20.2935C46 19.5802 45.4644 19 44.806 19ZM42.8 22.9H45.2V23.7667H42.8V22.9ZM44 42.8264L43.0892 41.1H44.9108L44 42.8264ZM45.2 40.2333H42.8V24.6333H45.2V40.2333ZM42.8 22.0333V20.2935C42.8 20.0582 42.9768 19.8667 43.194 19.8667H44.8056C45.0232 19.8667 45.2 20.0582 45.2 20.2935V22.0333H42.8Z" fill="#EE436A"/>
<path d="M18 19V45H22.7826H40V19H22.7826H18ZM18.9565 44.1333V19.8667H21.8261V44.1333H18.9565ZM39.0435 19.8667V44.1333H22.7826V19.8667H39.0435Z" fill="#EE436A"/>
<path d="M37 29V23H25V29H37ZM26 23.8571H36V28.1429H26V23.8571Z" fill="#EE436A"/>
<path d="M33 25H27V26H33V25Z" fill="#EE436A"/>
<path d="M33 27H27V28H33V27Z" fill="#EE436A"/>
</svg>
