<svg width="33" height="35" viewBox="0 0 33 35" fill="none" xmlns="http://www.w3.org/2000/svg">
<path d="M16.5 34.5351C25.6127 34.5351 33 26.8041 33 17.2675C33 7.73094 25.6127 0 16.5 0C7.3873 0 0 7.73094 0 17.2675C0 26.8041 7.3873 34.5351 16.5 34.5351Z" fill="#F0F0F0"/>
<path d="M15.7822 17.2675H32.9996C32.9996 15.709 32.8011 14.1992 32.4312 12.7629H15.7822V17.2675Z" fill="#D80027"/>
<path d="M15.7822 8.25838H30.5778C29.5678 6.53352 28.2763 5.00892 26.7706 3.75378H15.7822V8.25838Z" fill="#D80027"/>
<path d="M16.5005 34.535C20.3837 34.535 23.9529 33.1304 26.7715 30.7812H6.22949C9.04803 33.1304 12.6172 34.535 16.5005 34.535Z" fill="#D80027"/>
<path d="M2.42171 26.2767H30.5782C31.3891 24.892 32.0179 23.3784 32.4315 21.7721H0.568359C0.981955 23.3784 1.61082 24.892 2.42171 26.2767Z" fill="#D80027"/>
<path d="M7.64311 2.69657H9.14674L7.7481 3.75994L8.28236 5.48055L6.88379 4.41718L5.48522 5.48055L5.9467 3.99413C4.71526 5.06762 3.63593 6.32531 2.74648 7.72668H3.22826L2.33797 8.40356C2.19927 8.64571 2.06624 8.8917 1.93875 9.14134L2.36388 10.5107L1.57072 9.90758C1.37356 10.3447 1.19322 10.7917 1.03112 11.248L1.4995 12.7568H3.22826L1.82963 13.8202L2.36388 15.5408L0.965314 14.4774L0.127553 15.1144C0.0436992 15.8198 0 16.5383 0 17.2675H16.5C16.5 7.731 16.5 6.60672 16.5 0C13.2405 0 10.202 0.989511 7.64311 2.69657ZM8.28236 15.5408L6.88379 14.4774L5.48522 15.5408L6.01947 13.8202L4.62084 12.7568H6.3496L6.88379 11.0362L7.41797 12.7568H9.14674L7.7481 13.8202L8.28236 15.5408ZM7.7481 8.79005L8.28236 10.5107L6.88379 9.4473L5.48522 10.5107L6.01947 8.79005L4.62084 7.72668H6.3496L6.88379 6.00607L7.41797 7.72668H9.14674L7.7481 8.79005ZM14.2008 15.5408L12.8023 14.4774L11.4037 15.5408L11.9379 13.8202L10.5393 12.7568H12.2681L12.8023 11.0362L13.3364 12.7568H15.0652L13.6666 13.8202L14.2008 15.5408ZM13.6666 8.79005L14.2008 10.5107L12.8023 9.4473L11.4037 10.5107L11.9379 8.79005L10.5393 7.72668H12.2681L12.8023 6.00607L13.3364 7.72668H15.0652L13.6666 8.79005ZM13.6666 3.75994L14.2008 5.48055L12.8023 4.41718L11.4037 5.48055L11.9379 3.75994L10.5393 2.69657H12.2681L12.8023 0.975953L13.3364 2.69657H15.0652L13.6666 3.75994Z" fill="#0052B4"/>
</svg>
